<?xml version="1.0" encoding="UTF-8" standalone="no"?>
<svg
   width="670pt"
   height="670pt"
   viewBox="0 0 670 669.99999"
   version="1.1"
   id="svg39"
   sodipodi:docname="pressure_angle.svg"
   inkscape:version="1.2.1 (9c6d41e410, 2022-07-14)"
   inkscape:export-filename="..\..\Github\STLGears.com\STLGearsApp\static\STLGearsApp\images\tooltips\module.svg"
   inkscape:export-xdpi="96"
   inkscape:export-ydpi="96"
   xmlns:inkscape="http://www.inkscape.org/namespaces/inkscape"
   xmlns:sodipodi="http://sodipodi.sourceforge.net/DTD/sodipodi-0.dtd"
   xmlns="http://www.w3.org/2000/svg"
   xmlns:svg="http://www.w3.org/2000/svg"
   xmlns:rdf="http://www.w3.org/1999/02/22-rdf-syntax-ns#"
   xmlns:cc="http://creativecommons.org/ns#"
   xmlns:dc="http://purl.org/dc/elements/1.1/">
  <sodipodi:namedview
     id="namedview41"
     pagecolor="#ffffff"
     bordercolor="#000000"
     borderopacity="0.25"
     inkscape:showpageshadow="2"
     inkscape:pageopacity="0.0"
     inkscape:pagecheckerboard="0"
     inkscape:deskcolor="#d1d1d1"
     inkscape:document-units="pt"
     showgrid="false"
     inkscape:zoom="0.6245496"
     inkscape:cx="374.67"
     inkscape:cy="799.77635"
     inkscape:window-width="1920"
     inkscape:window-height="1001"
     inkscape:window-x="-9"
     inkscape:window-y="-9"
     inkscape:window-maximized="1"
     inkscape:current-layer="svg39" />
  <metadata
     id="metadata2">
    <rdf:RDF>
      <cc:Work>
        <dc:type
           rdf:resource="http://purl.org/dc/dcmitype/StillImage" />
        <dc:date>2023-01-30T17:37:56.672467</dc:date>
        <dc:format>image/svg+xml</dc:format>
        <dc:creator>
          <cc:Agent>
            <dc:title>Matplotlib v3.6.0, https://matplotlib.org/</dc:title>
          </cc:Agent>
        </dc:creator>
      </cc:Work>
    </rdf:RDF>
  </metadata>
  <defs
     id="defs6">
    <inkscape:path-effect
       effect="spiro"
       id="path-effect6902"
       is_visible="true"
       lpeversion="1" />
    <marker
       style="overflow:visible"
       id="TriangleStart"
       refX="0"
       refY="0"
       orient="auto-start-reverse"
       inkscape:stockid="TriangleStart"
       markerWidth="3"
       markerHeight="3"
       viewBox="0 0 4.9916334 5.6666178"
       inkscape:isstock="true"
       inkscape:collect="always"
       preserveAspectRatio="none">
      <path
         transform="scale(0.5)"
         style="fill:context-stroke;fill-rule:evenodd;stroke:context-stroke;stroke-width:1pt"
         d="M 5.77,0 -2.88,5 V -5 Z"
         id="path135" />
    </marker>
    <inkscape:path-effect
       effect="spiro"
       id="path-effect13913"
       is_visible="true"
       lpeversion="1" />
    <inkscape:path-effect
       effect="spiro"
       id="path-effect13909"
       is_visible="true"
       lpeversion="1" />
    <style
       type="text/css"
       id="style4">*{stroke-linejoin: round; stroke-linecap: butt}</style>
    <clipPath
       clipPathUnits="userSpaceOnUse"
       id="clipPath11016">
      <path
         id="path11018"
         style="fill:#ff0000;fill-opacity:1;fill-rule:nonzero;stroke:none;stroke-width:0.664254"
         d="m 24.040381,147.07147 h -3.366814 v 3.88858 h 3.366814 z" />
    </clipPath>
    <clipPath
       clipPathUnits="userSpaceOnUse"
       id="clipPath11026">
      <path
         id="path11028"
         style="fill:#ff0000;fill-opacity:1;fill-rule:nonzero;stroke:none;stroke-width:0.664254"
         d="m 112.67143,149.56872 h -2.52348 v 0.75039 h 2.52348 z" />
    </clipPath>
    <clipPath
       clipPathUnits="userSpaceOnUse"
       id="clipPath11036">
      <path
         id="path11038"
         style="fill:#ff0000;fill-opacity:1;fill-rule:nonzero;stroke:none;stroke-width:0.664254"
         d="m 110.14835,149.56872 h 2.46865 v 0.75039 h -2.46865 z" />
    </clipPath>
    <clipPath
       clipPathUnits="userSpaceOnUse"
       id="clipPath11046">
      <path
         id="path11048"
         style="fill:#ff0000;fill-opacity:1;fill-rule:nonzero;stroke:none;stroke-width:0.592305"
         d="m 363.47747,185.53084 h -20.60922 v -7.19327 h 20.60922 z" />
    </clipPath>
    <clipPath
       clipPathUnits="userSpaceOnUse"
       id="clipPath11056">
      <path
         id="path11058"
         style="fill:#ff0000;fill-opacity:1;fill-rule:nonzero;stroke:none;stroke-width:0.592305"
         d="m 363.25882,170.70354 h -20.39057 v -7.17823 h 20.39057 z m -12.14804,-6.09658 c 0.005,-0.0318 -0.0246,-0.0658 -0.0879,-0.0671 h -0.009 c -0.0147,-3.9e-4 -0.0293,-0.002 -0.044,-0.003 -0.0152,-0.002 -0.0304,-0.004 -0.0451,-0.008 -0.0104,-0.002 -0.0184,-0.009 -0.0278,-0.0139 -0.0121,-0.008 -0.0256,-0.0152 -0.037,-0.0243 -6.6e-4,-4.7e-4 -0.003,-0.004 -0.006,-0.006 1.3e-4,-0.005 1.3e-4,-0.01 0,-0.015 3.2e-4,-0.0139 0.001,-0.0278 0.002,-0.0416 0.002,-0.0157 0.004,-0.0317 0.006,-0.0474 0.002,-0.0181 0.002,-0.0362 10e-4,-0.0544 -7.1e-4,-0.0218 -0.003,-0.0431 -0.006,-0.0648 -0.003,-0.0225 -0.005,-0.0448 -0.008,-0.0671 -0.005,-0.0241 -0.0114,-0.0479 -0.0174,-0.0717 -0.005,-0.0175 -0.01,-0.0347 -0.015,-0.0521 -0.007,-0.0211 -0.0143,-0.0432 -0.0231,-0.0636 -0.0106,-0.0229 -0.0215,-0.045 -0.0359,-0.0659 -0.01,-0.0161 -0.0199,-0.0326 -0.0278,-0.0497 -0.05,-0.1083 -0.1576,-0.0647 -0.11106,0.0451 0.01,0.0234 0.0228,0.0443 0.0359,0.0659 0.0121,0.0172 0.0213,0.0366 0.0301,0.0555 0.007,0.0166 0.0128,0.0339 0.0185,0.0509 0.004,0.0156 0.007,0.0307 0.0116,0.0463 0.005,0.0208 0.0121,0.0415 0.0162,0.0625 0.003,0.0194 0.006,0.0396 0.008,0.059 0.002,0.0181 0.001,0.0362 0.001,0.0544 9.5e-4,0.0135 8.9e-4,0.027 0,0.0405 -0.001,0.0146 -0.006,0.0293 -0.008,0.044 -0.002,0.0173 0,0.0358 0,0.0532 2.3e-4,0.006 2.2e-4,0.0115 0,0.0173 -0.0514,-0.0684 -0.11689,-0.0536 -0.12031,0 -0.009,-0.003 -0.0176,-0.006 -0.0266,-0.007 -0.0839,-0.0101 -0.11712,0.0466 -0.0879,0.0856 3.8e-4,9.5e-4 -2.9e-4,0.001 0,0.002 7.7e-4,0.002 0.003,0.003 0.003,0.005 0.0109,0.0189 0.0331,0.0372 0.0694,0.0474 0.004,0.001 0.0187,0.003 0.022,0.006 0.004,0.001 0.008,0.004 0.0139,0.007 l 0.007,0.004 c 0.004,0.002 0.0141,0.006 0.0173,0.007 0.004,0.002 0.008,0.004 0.0127,0.006 -9.4e-4,-2.3e-4 0.002,-3.5e-4 0.002,0 0.008,0.005 0.0175,0.009 0.0266,0.0127 0.038,0.0159 0.0687,0.0136 0.0879,10e-4 0.01,0.005 0.0185,0.0117 0.0278,0.0173 0.014,0.009 0.0296,0.0141 0.0451,0.0197 0.016,0.006 0.0318,0.0102 0.0486,0.0127 0.012,0.001 0.0242,0.004 0.0359,0.007 0.0116,0.003 0.0229,0.005 0.0347,0.007 0.008,0.002 0.0105,0.004 0.0185,0.007 0.008,0.002 0.0155,0.006 0.0243,0.008 0.0608,0.018 0.0989,-0.009 0.10411,-0.0417 0.003,-0.0167 -0.004,-0.035 -0.0197,-0.0497 0.0163,-0.01 0.0257,-0.0236 0.0278,-0.0382 z" />
    </clipPath>
    <clipPath
       clipPathUnits="userSpaceOnUse"
       id="clipPath11076">
      <path
         id="path11078"
         style="fill:#ff0000;fill-opacity:1;fill-rule:nonzero;stroke:none;stroke-width:0.592305"
         d="m 343.69424,165.08127 h -8.65205 v -1.59067 h 8.65205 z" />
    </clipPath>
    <clipPath
       clipPathUnits="userSpaceOnUse"
       id="clipPath11096">
      <path
         id="path11098"
         style="fill:#ff0000;fill-opacity:1;fill-rule:nonzero;stroke:none;stroke-width:0.75"
         d="m 42.455567,32.958985 v 3.786621 h 15.108398 v -3.786621 z" />
    </clipPath>
    <inkscape:path-effect
       effect="spiro"
       id="path-effect11241"
       is_visible="true"
       lpeversion="1" />
    <inkscape:path-effect
       effect="spiro"
       id="path-effect11241-8"
       is_visible="true"
       lpeversion="1" />
    <clipPath
       clipPathUnits="userSpaceOnUse"
       id="clipPath12732">
      <path
         id="path12734"
         style="fill:#ff0000;fill-opacity:1;fill-rule:nonzero;stroke:none;stroke-width:0.592305"
         d="m 343.69424,185.56554 h -8.65205 v -1.59066 h 0.30078 c 0.0223,0.003 0.0445,0.006 0.0671,0.0104 0.0482,0.009 0.0969,0.0143 0.14576,0.0185 0.0446,0.007 0.0892,0.0103 0.13419,0.0139 0.0338,0.003 0.0682,0.003 0.10181,0.007 0.0191,0.003 0.0387,0.005 0.0578,0.007 0.1376,0.0143 0.24297,-0.0108 0.31582,-0.0567 h 7.52875 z" />
    </clipPath>
    <clipPath
       clipPathUnits="userSpaceOnUse"
       id="clipPath1090">
      <path
         id="path1092"
         style="fill:#ff0000;fill-opacity:1;fill-rule:nonzero;stroke:none;stroke-width:0.75"
         d="m 502.88233,492.14502 v 146.24707 h 501.67527 c 3.2088,-2.53965 6.4479,-5.04126 9.7544,-7.45752 6.0877,-4.44867 10.3471,-7.32807 14.3511,-9.89941 V 492.14502 Z" />
    </clipPath>
    <clipPath
       clipPathUnits="userSpaceOnUse"
       id="clipPath1100">
      <path
         id="path1102"
         style="fill:#ff0000;fill-opacity:1;fill-rule:nonzero;stroke:none;stroke-width:0.75"
         d="m 502.88233,492.14502 v 146.24707 h 501.67527 c 3.2088,-2.53965 6.4479,-5.04126 9.7544,-7.45752 6.0877,-4.44867 10.3471,-7.32807 14.3511,-9.89941 V 492.14502 Z" />
    </clipPath>
    <clipPath
       clipPathUnits="userSpaceOnUse"
       id="clipPath1146">
      <path
         id="path1148"
         style="stroke-width:85013.5"
         d="m 414.72044,307.58437 -357.120463,-5.2e-4 -1.3e-5,-266.111869 357.120466,5.23e-4 z M 248.40796,294.53759 c 0.029,-0.004 0.0587,-0.0263 0.0556,-0.0839 l -6.2e-4,-0.009 c -6.3e-4,-0.0147 -3.8e-4,-0.0294 3.7e-4,-0.0441 0.001,-0.0154 0.003,-0.0306 0.006,-0.0457 0.002,-0.0105 0.008,-0.019 0.0119,-0.0287 0.007,-0.0126 0.0133,-0.0266 0.0216,-0.0386 4.3e-4,-6.9e-4 0.002,-0.004 0.004,-0.006 0.005,-1.3e-4 0.01,-9.6e-4 0.015,-9.6e-4 0.0139,-6.5e-4 0.0278,-9.6e-4 0.0417,-5.7e-4 0.0157,6.3e-4 0.032,0.002 0.0477,0.002 0.0182,2.8e-4 0.0362,10e-4 0.0543,-0.003 0.0217,-0.002 0.0429,-0.005 0.0643,-0.009 0.0222,-0.004 0.0443,-0.009 0.0663,-0.0139 0.0237,-0.007 0.0469,-0.0146 0.0704,-0.0223 0.0171,-0.006 0.0339,-0.0122 0.0509,-0.0187 0.0206,-0.009 0.0421,-0.0171 0.0619,-0.0274 0.0221,-0.0122 0.0434,-0.0246 0.0633,-0.0404 0.0154,-0.0108 0.0312,-0.022 0.0477,-0.0312 0.10456,-0.0574 0.0536,-0.16175 -0.0527,-0.1077 -0.0226,0.0115 -0.0427,0.0247 -0.0634,0.0392 -0.0163,0.0133 -0.0349,0.0249 -0.0532,0.035 -0.016,0.008 -0.033,0.0149 -0.0495,0.0218 -0.0153,0.005 -0.0301,0.009 -0.0454,0.0149 -0.0204,0.006 -0.0406,0.0147 -0.0614,0.0204 -0.0191,0.004 -0.0388,0.008 -0.0582,0.0121 -0.0179,0.003 -0.036,0.004 -0.0541,0.006 -0.0134,0.002 -0.027,0.003 -0.0406,0.003 -0.0147,-4e-4 -0.0294,-0.003 -0.044,-0.004 -0.0174,-5.1e-4 -0.035,-2e-5 -0.0524,1.2e-4 -0.006,7.7e-4 -0.0116,0 -0.0174,0 0.0603,-0.0532 0.0339,-0.0923 -0.0137,-0.0976 8.5e-4,-0.003 -9.8e-4,-0.005 0.002,-0.008 0.003,-0.0127 0.007,-0.0257 0.008,-0.0388 9.9e-4,-0.0225 -0.0149,-0.021 -0.0212,-0.0357 l -6e-5,-9.4e-4 c -0.004,-0.0205 -0.0134,-0.0343 -0.0249,-0.0423 -0.008,-0.003 -0.008,-0.008 -0.0156,-0.007 -0.0297,-0.007 -0.0661,0.0198 -0.0789,0.0819 -9.1e-4,0.004 -9.2e-4,0.0186 -0.003,0.022 -7.3e-4,0.004 -0.004,0.009 -0.006,0.0143 -8.7e-4,0.002 -0.002,0.005 -0.003,0.007 -10e-4,0.004 -0.005,0.0145 -0.006,0.0178 -0.002,0.004 -0.002,0.008 -0.004,0.013 l -9.4e-4,7e-5 c -0.005,0.009 -0.008,0.0181 -0.0107,0.0274 -0.0133,0.039 -0.009,0.0695 0.005,0.0878 -0.004,0.01 -0.009,0.0192 -0.0143,0.0289 -0.008,0.0146 -0.0119,0.0306 -0.0164,0.0465 -0.005,0.0163 -0.007,0.0333 -0.008,0.0504 -2.9e-4,0.0121 -9.7e-4,0.0241 -0.003,0.0361 -0.002,0.0118 -0.005,0.0244 -0.007,0.0364 -0.002,0.008 -9.7e-4,0.0106 -0.003,0.0188 -0.002,0.008 -6.4e-4,0.0157 -0.003,0.0245 -0.0137,0.0619 0.0154,0.0981 0.0486,0.10102 0.0223,0.002 0.0462,-0.0114 0.0597,-0.0424 0.0102,0.0137 0.0171,0.0344 0.0293,0.0386 z m -80.963,3.18773 v 0 c 0.0284,-0.0312 -0.30199,-0.30589 -0.40985,-0.42924 -11.73905,-13.42596 1.97575,-12.99487 14.72113,-12.64796 -0.0541,0.22993 -0.10555,0.46102 -0.14657,0.69437 -0.10003,0.96924 0.004,1.97287 0.53022,2.82165 0.1849,0.29808 0.42115,0.56377 0.659,0.82159 0.13573,0.14713 0.30464,0.25837 0.45721,0.38795 0.94125,0.68803 2.05332,0.98646 3.18551,1.16779 0.53456,0.0394 1.06118,0.10935 1.58953,0.1944 0.0874,0.0187 0.0486,0.008 0.0951,0.0166 0.008,0.004 0.0111,0.004 0.0156,0.008 0.0797,0.0669 0.0389,0.0343 0.23471,0.14018 0.36366,0.19674 0.28522,0.14632 0.68107,0.32147 0.01,0.004 0.0212,0.008 0.0278,0.0165 0.004,0.005 -0.0127,-0.004 -0.019,-0.006 0.42766,0.2205 0.14173,0.0674 0.54716,0.38057 0.1104,0.0758 0.21779,0.15634 0.33125,0.22747 0.34401,0.21567 0.42197,0.23939 0.75439,0.39281 0.17834,0.11869 0.083,0.0589 0.39882,0.24943 0.65732,0.39639 1.12341,0.5497 1.44644,0.52218 0.1395,-0.0119 0.24624,-0.0651 0.33592,-0.13937 0.0743,0.004 0.14838,0.005 0.22277,0.002 1.50245,-0.0691 2.98237,-1.5794 3.02886,-4.55341 0.0149,-0.95171 0.0305,-1.90417 0.0996,-2.85385 0.0714,-0.64147 0.1201,-1.28801 0.24571,-1.92004 2.46247,-1.28226 2.36407,-3.83497 -2.41465,-8.77529 0.0115,-0.0448 0.0265,-0.0886 0.0371,-0.13355 0.038,-0.2128 0.0912,-0.4228 0.11449,-0.6377 0.10139,-0.93418 -0.0743,-1.94238 -0.57272,-2.75024 -0.1756,-0.28456 -0.41365,-0.52461 -0.62067,-0.7872 -0.13681,-0.11855 -0.26865,-0.24455 -0.41099,-0.35641 -0.55024,-0.43238 -1.18791,-0.72582 -1.81128,-1.03367 -0.66638,-0.28059 -1.272,-0.68446 -1.88429,-1.06455 -1.06848,-0.65214 -2.05928,-1.28494 -3.31134,-1.54283 -0.25234,-0.0587 -0.50488,-0.12279 -0.75748,-0.18623 -1.55428,-1.40444 -3.04355,-2.87689 -4.53504,-4.34867 -0.26283,-1.1977 -0.48921,-2.40434 -0.69777,-3.61363 -0.42583,-2.77377 -0.88934,-5.54119 -1.34326,-8.31042 -0.44487,-2.91284 -0.8443,-5.83696 -1.42785,-8.72558 -1.21594,-6.01909 -7.15042,-4.50392 -6.01069,1.53006 0.50951,2.6975 0.89212,5.41851 1.30652,8.13214 0.0226,0.13836 0.0455,0.27673 0.0683,0.41507 -2.05073,-3.04921 -4.06004,-6.12593 -6.09607,-9.18487 -2.82186,-4.34778 -5.92531,-8.5035 -8.96134,-12.70228 -3.16318,-4.06354 -5.04184,-8.88576 -6.93703,-13.62456 -0.95254,-2.60463 -1.41913,-3.69857 -2.13512,-6.33976 -3.30528,-12.1927 1.12604,2.45765 -4.29937,-15.80029 -3.1417,-10.57263 -4.33009,-13.8265 -7.89588,-24.5131 -0.86521,-2.50566 -1.71556,-5.01589 -2.58038,-7.52165 4.05817,-7.55097 8.7074,-14.76034 13.4142,-21.92 4.57071,-6.68579 9.24001,-13.34007 14.43888,-19.55721 3.98465,-4.12683 7.31614,-8.90002 11.4165,-12.90977 2.88264,-2.15688 6.06199,-3.83366 8.96001,-5.97836 1.1777,-0.87158 2.30211,-1.812099 3.45342,-2.718241 4.84186,-4.021019 10.00782,-7.594387 15.31459,-10.966075 4.37919,-2.330166 8.81023,-4.559434 13.13247,-6.99439 3.12501,-1.753075 6.64938,-2.537458 10.11504,-3.307906 2.92766,-0.220987 5.2139,0.435011 8.00249,1.181786 4.87622,1.801423 9.85508,3.277521 14.8146,4.821333 3.56685,1.175845 7.04103,2.671431 10.43842,4.276803 6.27658,3.382771 12.97098,5.743701 19.74745,7.886494 5.96907,1.732038 11.79327,3.909448 17.37514,6.640136 2.67632,1.41389 4.70416,3.6552 6.68488,5.89688 2.42076,2.90344 4.01963,6.33251 5.5039,9.77573 1.63107,4.38122 3.13986,8.79239 5.06518,13.05551 2.16887,4.37994 5.05724,8.33882 7.93953,12.26537 1.58147,1.93025 2.859,4.05543 3.85569,6.33604 0.70895,1.8911 1.03247,3.89731 1.36794,5.88049 0.45584,2.79171 0.67708,5.61534 0.92033,8.43152 0.10417,1.66956 0.31422,3.33423 0.39803,5.0052 0.007,0.1426 0.0438,0.55402 -0.0214,0.42708 -0.19827,-0.3857 0.0704,-1.13014 -0.20658,-0.11902 -1.26509,4.34499 -2.03141,8.79531 -2.6289,13.27402 -0.40924,4.31267 -0.71165,8.63948 -0.96776,12.96477 -0.24028,1.90352 -0.60667,3.70017 -1.27052,5.4923 -0.882,2.65454 -2.12398,5.20525 -3.63136,7.56175 -1.75629,3.10575 -3.6862,6.10533 -5.55082,9.14476 -2.02961,3.13506 -3.63014,6.49879 -5.25462,9.85012 -0.69159,1.86612 -1.53146,3.53087 -2.6808,5.1241 -1.51102,1.83964 -2.97363,3.72298 -4.37537,5.65258 -1.55321,2.4377 -3.02918,4.9257 -4.47711,7.4257 -1.40029,2.25249 -2.65858,4.59538 -3.95134,6.91257 -0.4233,0.56468 -0.11065,0.13398 -0.84642,1.35187 -0.99287,1.6434 -1.83529,3.2505 -2.54409,4.81716 -0.17552,0.0982 -0.34889,0.2029 -0.51729,0.32103 -0.42359,0.2972 -0.65415,0.56293 -1.00101,0.92061 -0.24955,0.26532 -0.46802,0.55596 -0.68498,0.84781 -0.77536,0.60639 -1.22606,1.35444 -1.36211,2.11636 -0.1523,0.29856 -0.29792,0.60056 -0.43091,0.90771 -0.051,0.14524 -0.0976,0.30358 -0.14119,0.46636 -0.36666,-0.10483 -0.72988,-0.222 -1.08629,-0.36252 -0.54537,-0.25205 -0.81607,-0.35829 -1.33472,-0.67648 -1.15473,-0.70844 -2.18029,-1.60978 -3.23252,-2.456 -1.439,-1.21918 -2.80172,-2.52205 -4.19182,-3.79579 -5.37179,-4.92214 -9.77644,0.68859 -4.56104,5.77616 1.28599,1.25448 2.61904,2.46206 3.98628,3.62736 1.25463,1.02305 2.49872,2.07788 3.87225,2.94217 0.99853,0.62831 1.24658,0.71555 2.28716,1.2227 1.73654,0.77805 3.58847,1.17463 5.45392,1.48783 0.012,0.2964 0.032,0.58818 0.0558,0.87756 -0.21076,0.2337 -0.45425,0.55067 -0.73921,0.97068 -0.62596,0.92263 -1.09045,1.93926 -1.58669,2.93412 -0.13009,0.29812 -0.28173,0.58443 -0.43912,0.86761 -1.36259,-0.21601 -1.29573,0.39118 -0.76016,1.33597 -0.22319,0.4134 -0.38619,0.85263 -0.54202,1.29467 -0.66968,1.89961 -0.47388,3.48092 0.16879,4.62342 -0.0164,-0.005 -0.0321,-0.012 -0.0491,-0.0141 -0.0362,-0.004 0.009,0.0168 0.0639,0.0404 0.77721,1.35907 2.19053,2.08772 3.5311,1.97128 0.43608,-0.0379 0.86314,-0.16861 1.25901,-0.39231 2.26689,-0.2077 3.48328,-2.15171 2.68281,-4.28031 2.79485,3.37651 6.94593,5.18998 11.5952,4.91716 6.5931,-0.38688 14.18318,-4.96439 20.31198,-15.21221 0.74738,-1.24962 0.26535,-0.44814 1.45422,-2.40181 1.27499,-2.30842 2.54004,-4.62418 3.92667,-6.86794 0.70877,-1.17262 1.74176,-2.79826 2.38395,-4.12254 1.36835,-2.1062 3.21959,-3.85655 4.59393,-5.96222 2.1774,-3.15858 4.14521,-6.43827 5.54296,-10.02323 1.10339,-2.31199 2.16906,-4.64047 3.59041,-6.78539 1.87038,-3.11413 3.88824,-6.14183 5.65573,-9.31905 2.66,-4.51762 5.11022,-9.18302 6.72604,-14.1898 1.62558,-4.83729 2.72544,-9.78387 3.13052,-14.8813 0.20306,-3.49093 0.46759,-6.97961 0.7299,-10.46548 0.50193,-3.94612 1.39664,-7.78156 2.37628,-11.63643 0.81209,-4.95513 0.88579,-9.57534 0.24974,-14.53606 -0.32998,-3.80453 -0.65944,-7.61453 -1.30291,-11.38178 -0.86973,-4.96604 -1.96699,-9.91381 -4.05015,-14.53389 -2.05774,-4.40363 -4.43375,-8.65012 -7.46437,-12.47007 -1.5551,-2.11824 -3.14596,-4.22157 -4.493,-6.47831 -0.55954,-0.87958 -0.17642,-0.22576 -0.88943,-2.10091 -1.26761,-3.33361 -2.35149,-6.73646 -3.75134,-10.02047 -3.04153,-6.906632 -6.60453,-13.60003 -11.64896,-19.283026 -5.06787,-5.527639 -10.5921,-10.619876 -17.4113,-13.931799 -7.13372,-3.427365 -14.507,-6.315195 -22.11443,-8.52207 -5.30945,-1.666001 -10.531,-3.480751 -15.41715,-6.19876 -4.86805,-2.26444 -9.83229,-4.383681 -14.94889,-6.020376 -5.50206,-1.693184 -10.97277,-3.460288 -16.43517,-5.280321 -2.75858,-0.694029 -4.73148,-1.260762 -7.56199,-1.683237 -5.64652,-0.842816 -11.33299,-0.714296 -16.95632,0.26538 -6.81269,1.568212 -13.57976,3.5005 -19.68046,7.018311 -4.81003,2.775464 -9.88939,5.061119 -14.65833,7.9134 -6.33863,4.051075 -12.52389,8.328386 -18.33065,13.121597 -0.65099,0.531781 -2.37549,1.982957 -3.2124,2.531124 -4.30922,2.822553 -8.84193,5.353233 -12.45633,9.112356 -4.62035,4.83552 -8.83716,10.039863 -13.30763,15.013897 -5.46027,6.635744 -10.53785,13.582114 -15.37751,20.683564 -1.18708,-3.67225 -2.37924,-7.34288 -3.52924,-11.02744 -2.136,-8.143464 -5.3718,-16.270012 -5.35137,-24.792027 0.08,-0.294618 0.16005,-0.589498 0.24002,-0.884114 0.0906,-0.01871 0.21435,0.01628 0.27205,-0.05607 0.20196,-0.253196 0.27056,-0.592159 0.45652,-0.857372 0.25925,-0.369789 1.03399,-0.711755 1.37342,-0.960611 1.4163,-1.164131 2.98013,-1.624328 4.71567,-1.9932 3.75582,-0.868253 7.62135,-1.025196 11.45387,-1.281259 34.65944,-2.315575 32.29503,-37.366895 -2.36152,-35.00998 -6.06497,0.412498 -12.16108,0.837345 -18.06936,2.369834 -3.42803,0.959317 -4.32727,1.090328 -7.65453,2.522289 -4.816659,2.072994 -9.123861,5.159704 -12.986779,8.671455 -1.118178,1.183681 -2.318649,2.295031 -3.354914,3.55104 -5.834477,7.071697 -8.911796,15.693016 -9.16184,24.836511 0.18388,4.854503 0.07673,5.719629 0.88531,10.712702 1.300065,8.028172 3.882458,15.815922 6.048655,23.629132 4.351765,13.93313 9.010694,27.7642 13.733683,41.57353 -1.260234,2.80267 -2.507686,5.61093 -3.738332,8.42621 -10.59548,24.23918 3.206102,39.94954 17.383127,32.42066 0.32677,1.07302 0.53383,1.66356 0.91256,2.93308 6.31064,21.15329 -0.38855,-0.84094 4.57296,16.71595 1.03965,3.67893 1.77264,5.45588 3.08107,8.98752 2.99023,7.35511 6.17577,14.70421 11.04129,21.04962 2.77954,3.84354 5.63054,7.64103 8.21147,11.62257 2.7593,4.11722 5.41517,8.30354 8.24506,12.37406 3.01478,4.31261 6.13753,8.58046 9.89706,12.28463 2.5159,2.3909 4.89772,4.92353 7.54394,7.1765 0.87798,0.75652 4.18917,4.02315 4.7964,4.23781 l 3e-5,4.4e-4 c 0.0208,0.007 0.0326,0.008 0.0369,0.003 z m 23.37606,-5.42661 c -0.0313,-0.0156 -0.062,-0.0326 -0.0927,-0.0492 0.009,0.004 0.0107,0.005 0.0203,0.009 0.025,0.0117 0.0971,0.0525 0.0724,0.0402 z m -3.07974,-6.01652 c -0.0429,-0.0606 -0.0178,-0.0455 0.0226,-0.17554 -0.005,0.0582 -0.01,0.11713 -0.0226,0.17554 z m 2.31665,-1.38919 c -0.14717,-0.0507 -0.28292,-0.13404 -0.43408,-0.17164 0.15999,-0.005 0.29445,-0.0216 0.45151,-0.0279 -0.003,0.0273 -0.006,0.0546 -0.009,0.0818 -0.003,0.0392 -0.005,0.0785 -0.008,0.11768 z m 56.45318,-4.88659 v -9e-5 l -8.9e-4,-3.8e-4 c 0.006,-6e-5 0.0124,-9.9e-4 0.0185,-0.001 0.19332,-0.0143 0.37262,-0.21984 0.3443,-0.60259 -0.002,-0.0235 -0.004,-0.047 -0.006,-0.0704 -0.004,-0.053 -0.008,-0.10625 -0.0146,-0.15902 -0.008,-0.0609 -0.0161,-0.1216 -0.0324,-0.18091 -0.009,-0.0322 -0.0106,-0.0384 -0.0192,-0.0927 -0.006,-0.033 -0.0103,-0.0537 -0.0112,-0.0942 -0.003,-0.0419 -0.006,-0.0838 -0.009,-0.12579 -0.003,-0.0427 -0.007,-0.0853 -0.01,-0.12803 -0.004,-0.0473 -0.007,-0.0947 -0.0122,-0.14182 -0.009,-0.0695 -0.0197,-0.13921 -0.0421,-0.20578 -0.0408,-0.11094 -0.0991,-0.21218 -0.18953,-0.29064 -0.0808,-0.0676 -0.16722,-0.12932 -0.26365,-0.173 -0.69222,-0.31358 0.4094,0.92779 -0.27683,0.722 -8.7e-4,-0.002 -0.002,-0.003 -0.003,-0.004 -7e-5,8.9e-4 3e-4,0.003 3.5e-4,0.005 -0.006,-0.002 -0.0122,-0.004 -0.0187,-0.006 -0.003,-9.8e-4 -0.0116,-0.005 -0.009,-0.003 0.003,0.004 0.009,0.004 0.0133,0.007 0.005,0.003 0.0105,0.007 0.016,0.0105 9.9e-4,0.0105 0.002,0.0228 0.003,0.0311 0.004,0.0363 0.007,0.0719 0.01,0.10835 0.003,0.0409 0.006,0.0827 0.009,0.12354 0.003,0.0417 0.007,0.0829 0.01,0.1246 0.002,0.0621 0.0105,0.12412 0.0223,0.18514 0.008,0.0516 0.0189,0.10157 0.0327,0.15191 0.006,0.0237 0.009,0.0482 0.012,0.0724 0.005,0.0415 0.008,0.0829 0.0111,0.12444 0.002,0.022 0.003,0.0449 0.005,0.0669 0.0274,0.37049 0.2231,0.54853 0.41096,0.54655 z m -18.10323,1.23982 c 0.13605,-0.0102 0.26267,-0.15335 0.24397,-0.42286 l -0.001,-0.0208 c -0.003,-0.0426 -0.006,-0.0855 -0.009,-0.12811 -0.004,-0.0602 -0.009,-0.11981 -0.0125,-0.17997 -0.003,-0.0471 -0.003,-0.0952 -0.004,-0.14239 -1.9e-4,-0.01 4.7e-4,-0.0193 2.2e-4,-0.029 0.002,-0.0225 0.005,-0.0451 0.007,-0.0677 0.008,-0.0352 0.0177,-0.07 0.0215,-0.10589 0.006,-0.0478 0.0138,-0.0953 0.0143,-0.14366 9.9e-4,-0.0421 -5.1e-4,-0.0842 -0.004,-0.12614 l -0.007,-0.10494 -0.008,-0.12009 c -0.001,-0.0164 -0.0109,-0.0212 -0.0129,-0.0362 -0.003,-0.0126 -0.008,-0.0223 -0.0117,-0.034 0.005,-0.014 0.0104,-0.028 0.0168,-0.0417 0.005,-0.0102 0.008,-0.0209 0.0129,-0.031 0.003,-0.006 0.006,-0.0121 0.009,-0.018 -0.003,0.003 -0.005,0.006 -0.009,0.009 -0.0177,0.0124 -0.0338,0.0221 -0.0489,0.0301 -9.7e-4,-0.002 -0.002,-0.006 -0.003,-0.008 -2.7e-4,-8.1e-4 -1.9e-4,-8.7e-4 -2.2e-4,-0.002 -0.0398,-0.12002 -0.11136,-0.17775 -0.18718,-0.20738 -0.005,-0.19035 0.0135,-0.38897 -0.17442,-0.17336 -0.0436,0.05 -0.0703,0.11207 -0.0982,0.17151 -0.0259,0.0541 -0.0441,0.11078 -0.0648,0.16686 -0.0238,0.0533 -0.0412,0.10821 -0.0547,0.16496 -0.0116,0.052 -0.0151,0.10691 -0.0155,0.15999 7e-5,0.0359 0.002,0.0704 0.004,0.10636 2.2e-4,0.007 9.8e-4,0.0129 0.001,0.0195 l -9.6e-4,9.3e-4 c -3.7e-4,0.004 -2.4e-4,0.007 -4e-4,0.0104 -4.4e-4,0.005 -9.2e-4,0.0109 -9.3e-4,0.0162 -10e-4,0.0204 -0.006,0.0556 -0.009,0.0922 -5e-5,-0.002 3.6e-4,-0.006 -3.5e-4,-0.005 -0.007,0.0166 -0.01,0.0779 -0.0105,0.097 -0.001,0.0279 -0.003,0.0557 -0.007,0.084 -0.006,0.0487 -0.008,0.0978 -0.008,0.14675 -0.003,0.045 -0.005,0.0898 -0.006,0.13491 -6.8e-4,0.0339 0.002,0.0682 1.3e-4,0.10198 -9.7e-4,0.0193 -0.002,0.0389 -0.003,0.0583 -0.009,0.25455 0.10753,0.39404 0.23526,0.41387 0.0567,0.0949 0.1253,0.16791 0.20603,0.16317 z m 17.6115,-2.74621 c -0.007,-0.004 -0.0131,-0.0105 -0.0186,-0.0173 0.007,0.005 0.0135,0.0107 0.0186,0.0173 z" />
    </clipPath>
    <clipPath
       clipPathUnits="userSpaceOnUse"
       id="clipPath1156">
      <path
         id="path1158"
         style="fill:#ff0000;fill-opacity:1;fill-rule:nonzero;stroke:none;stroke-width:2948.88"
         d="m 124.46756,281.34104 -0.21158,-37.69991 c 2.48225,3.93337 5.02855,7.83108 7.30521,11.88863 2.49115,4.2847 4.87473,8.63185 7.43916,12.87466 2.71433,4.46421 5.54129,8.88853 9.02251,12.80439 z m 34.83673,-0.1955 c 3.09448,-0.72511 7.67867,-0.47204 12.41269,-0.0696 z m 30.68603,-0.17221 c 2.15437,-1.20379 1.97151,-3.76321 -2.24239,-8.71474 0.0137,-0.0423 0.0298,-0.0838 0.0433,-0.12636 0.0515,-0.20995 0.11803,-0.41605 0.15501,-0.62902 0.16076,-0.92583 0.0497,-1.94323 -0.39626,-2.78124 -0.15709,-0.29518 -0.37927,-0.54983 -0.56912,-0.82508 -0.12897,-0.12704 -0.2525,-0.2612 -0.38742,-0.3819 -0.52154,-0.46659 -1.13927,-0.80017 -1.74173,-1.14716 -0.64713,-0.32251 -1.22567,-0.76416 -1.81247,-1.18252 -1.02472,-0.71896 -1.97322,-1.41367 -3.20625,-1.75089 -0.24809,-0.0746 -0.49596,-0.15468 -0.74399,-0.2341 -1.46161,-1.50072 -2.854,-3.06522 -4.2486,-4.62912 -0.18591,-1.21202 -0.33486,-2.43056 -0.46587,-3.65071 -0.24807,-2.79529 -0.53414,-5.58675 -0.81053,-8.37929 -0.2582,-2.93527 -0.47032,-5.87881 -0.86846,-8.7988 -0.82962,-6.08432 -6.84858,-4.95071 -6.09598,1.14363 0.33645,2.72453 0.54472,5.46434 0.78525,8.19887 0.0138,0.13953 0.0279,0.27905 0.0417,0.41857 -1.85216,-3.17374 -3.66105,-6.37238 -5.49785,-9.55495 -2.53876,-4.51884 -5.37092,-8.864 -8.133,-13.24785 -2.89763,-4.25693 -4.46493,-9.18934 -6.05399,-14.03933 -0.78451,-2.66012 -1.18043,-3.78158 -1.72645,-6.46293 -2.52096,-12.37878 0.96698,2.52445 -3.283,-16.04232 -2.46096,-10.75153 -3.43955,-14.07447 -6.31656,-24.96676 -0.70297,-2.5533 -1.39859,-5.10824 -2.10102,-7.66165 4.53288,-7.28017 9.63444,-14.18146 14.7904,-21.02923 4.98784,-6.38065 10.07206,-12.72357 15.65682,-18.59649 4.2397,-3.86433 7.86889,-8.41538 12.21656,-12.15542 3.01438,-1.96864 6.29406,-3.43926 9.32295,-5.394783 1.23089,-0.794685 2.41303,-1.661617 3.61973,-2.492495 5.08851,-3.704046 10.47183,-6.94059 15.98291,-9.967019 4.51881,-2.046113 9.08301,-3.98824 13.55174,-6.142592 3.23047,-1.550185 6.79757,-2.108368 10.30538,-2.656179 2.93573,-0.03383 5.17567,0.766635 7.91096,1.689732 4.75148,2.108749 9.6258,3.899383 14.47677,5.756342 3.48462,1.400961 6.85653,3.114998 10.14456,4.933762 6.04813,3.776179 12.57823,6.559205 19.2043,9.129789 5.84646,2.109193 11.51989,4.653723 16.91624,7.734793 2.58073,1.5817 4.46153,3.94778 6.29525,6.31122 2.23072,3.05192 3.60748,6.57591 4.86913,10.10683 1.34835,4.4762 2.57283,8.97481 4.22239,13.35198 1.88507,4.50942 4.51515,8.64439 7.14116,12.7467 1.45519,2.02715 2.5946,4.22955 3.44381,6.56908 0.58691,1.93249 0.78182,3.95521 0.99013,5.95574 0.27687,2.81512 0.31751,5.6471 0.38067,8.47307 -0.003,1.67284 0.10099,3.34748 0.0779,5.02034 -0.002,0.14271 0.008,0.55562 -0.0485,0.42481 -0.17332,-0.39757 0.14231,-1.12327 -0.19863,-0.13188 -1.53962,4.25547 -2.58818,8.64778 -3.47008,13.07924 -0.68343,4.27779 -1.26124,8.57653 -1.79266,12.87677 -0.36118,1.88433 -0.8414,3.65394 -1.61818,5.40005 -1.04946,2.59285 -2.45169,5.05922 -4.10625,7.31473 -1.9508,2.98742 -4.06808,5.85788 -6.12275,8.77216 -2.22543,2.99925 -4.03719,6.254 -5.87208,9.49494 -0.80919,1.81822 -1.7537,3.42607 -3.00224,4.94275 -1.62528,1.73954 -3.20504,3.52579 -4.72693,5.36201 -1.70552,2.33368 -3.33696,4.72265 -4.94139,7.12512 -1.54109,2.1586 -2.9464,4.41647 -4.3843,6.64648 -0.45847,0.53652 -0.11894,0.1266 -0.93089,1.29509 -1.63878,2.35835 -2.93835,4.65632 -3.93911,6.87368 -0.007,-9.9e-4 -0.0128,-0.002 -0.0203,-0.004 -1.31244,-0.1786 -2.58919,0.0183 -3.76076,0.65136 -0.45523,0.24599 -0.71508,0.48322 -1.10113,0.79825 -0.27867,0.23453 -0.52938,0.49791 -0.77877,0.76264 -0.83518,0.50897 -1.36781,1.19409 -1.5939,1.9297 -0.18885,0.28264 -0.36795,0.57191 -0.53808,0.86566 -0.0676,0.13834 -0.13224,0.29012 -0.19446,0.44673 -0.35201,-0.14668 -0.69917,-0.30514 -1.03686,-0.48609 -0.51242,-0.31366 -0.76887,-0.45069 -1.24706,-0.82695 -1.06466,-0.8377 -1.97867,-1.85201 -2.92554,-2.81466 -1.28771,-1.37801 -2.48997,-2.83018 -3.7228,-4.2567 -4.76402,-5.51253 -9.79026,-0.45126 -5.20077,5.20741 1.13165,1.39529 2.31547,2.74953 3.53819,4.0657 1.12737,1.16179 2.24059,2.35392 3.50448,3.37183 0.91883,0.74 1.15508,0.85543 2.12975,1.47996 2.1388,1.27507 4.5494,1.92584 6.92833,2.5851 1.20354,0.30704 2.40411,0.63578 3.62215,0.88301 0.0854,0.5012 0.1879,0.99173 0.31107,1.46824 l -4.44519,0.0249 c 0.0701,-2.0799 0.0994,-3.60008 -2.06561,-1.09384 -0.30542,0.35356 -0.58383,0.72739 -0.84989,1.11021 l -31.1999,0.17503 c 0.0728,-0.0966 0.12092,-0.24195 0.11897,-0.43558 -2.3e-4,-0.0235 -9.3e-4,-0.047 -0.002,-0.0706 -8.5e-4,-0.0531 -9.4e-4,-0.10661 -0.004,-0.15967 -0.004,-0.0613 -0.008,-0.12247 -0.0207,-0.1827 -0.007,-0.0326 -0.008,-0.0387 -0.0131,-0.0934 -0.004,-0.0333 -0.007,-0.0544 -0.005,-0.0948 -2.4e-4,-0.0421 -5e-4,-0.084 -7.8e-4,-0.12611 -2.9e-4,-0.0428 -0.001,-0.0856 -0.002,-0.1284 -6.7e-4,-0.0474 -7.1e-4,-0.0949 -0.003,-0.14228 -0.004,-0.0699 -0.0109,-0.14021 -0.029,-0.20807 -0.0337,-0.11332 -0.0854,-0.2181 -0.17062,-0.30216 -0.0764,-0.0727 -0.15865,-0.1397 -0.2521,-0.18944 -0.67081,-0.35708 0.34946,0.95196 -0.32225,0.70283 -7.8e-4,-0.002 -0.002,-0.003 -0.002,-0.005 -1.3e-4,8.8e-4 8e-5,0.003 3e-5,0.005 -0.006,-0.002 -0.0122,-0.004 -0.0187,-0.007 -0.003,-10e-4 -0.011,-0.006 -0.009,-0.003 0.003,0.004 0.009,0.005 0.0128,0.008 0.005,0.004 0.0102,0.008 0.0153,0.0115 4.4e-4,0.0105 8.5e-4,0.0228 9.5e-4,0.031 0.002,0.0365 0.002,0.0723 0.003,0.10878 5e-4,0.041 3.5e-4,0.0827 6.3e-4,0.12379 2.7e-4,0.0418 0.002,0.0831 0.002,0.12488 -0.002,0.0621 0.003,0.12463 0.0102,0.18624 0.005,0.052 0.0123,0.10256 0.0228,0.15368 0.004,0.024 0.006,0.0484 0.007,0.0727 0.002,0.0417 0.002,0.0832 0.003,0.12492 3.3e-4,0.0221 1.5e-4,0.0451 3.7e-4,0.0672 0.002,0.19188 0.0524,0.33553 0.1262,0.4307 l -17.69255,0.0994 c 0.0419,-0.0671 0.0685,-0.1606 0.0678,-0.28151 l -1.4e-4,-0.0208 c -2.3e-4,-0.0426 -5.5e-4,-0.0857 -7.5e-4,-0.12843 -2.7e-4,-0.0603 -9.7e-4,-0.1202 -9.7e-4,-0.18048 5e-5,-0.0472 -8e-5,-0.0951 0.003,-0.14226 2.2e-4,-0.005 9.6e-4,-0.01 9.7e-4,-0.015 0.005,-0.0301 0.009,-0.0602 0.0134,-0.0903 0.01,-0.0314 0.0205,-0.0625 0.0261,-0.095 0.009,-0.0473 0.02,-0.0942 0.0235,-0.14241 0.004,-0.0419 0.005,-0.084 0.004,-0.12614 l -5.6e-4,-0.10523 -1.7e-4,-0.0347 c 2e-4,-0.008 -4e-5,-0.0153 -1.2e-4,-0.023 l -4.1e-4,-0.0625 c -6e-5,-0.0108 -0.007,-0.0139 -0.007,-0.0243 l -5e-5,-9.4e-4 c -0.003,-0.0162 -0.009,-0.0279 -0.013,-0.0427 0.007,-0.015 0.0137,-0.0297 0.0216,-0.0442 0.005,-0.01 0.009,-0.0202 0.0148,-0.0301 0.003,-0.006 0.007,-0.0118 0.0103,-0.0175 -0.003,0.003 -0.005,0.006 -0.008,0.008 -0.0195,0.0119 -0.0368,0.0218 -0.0532,0.0292 -0.002,-0.006 -0.003,-0.014 -0.006,-0.0196 -0.0323,-0.11634 -0.0968,-0.17741 -0.16782,-0.21193 0.007,-0.19029 0.0383,-0.38742 -0.16302,-0.18423 -0.0467,0.0472 -0.0774,0.10738 -0.10892,0.16493 -0.0293,0.0523 -0.0512,0.10774 -0.0755,0.16238 -0.0272,0.0517 -0.0478,0.10538 -0.0649,0.16115 -0.0149,0.0511 -0.0218,0.10457 -0.0257,0.15751 -0.002,0.0358 -0.003,0.0717 -0.003,0.10764 -1.9e-4,0.007 5e-5,0.0131 1e-4,0.0197 l -9.9e-4,9.9e-4 c -6.4e-4,0.004 -6.4e-4,0.007 -9.3e-4,0.0104 -7.4e-4,0.005 -0.001,0.0108 -0.002,0.0161 -0.003,0.0203 -0.01,0.0552 -0.0143,0.0916 8e-5,-0.002 6.8e-4,-0.006 -1.2e-4,-0.005 -0.008,0.0161 -0.0145,0.0771 -0.0168,0.0961 -0.003,0.0277 -0.007,0.0553 -0.0122,0.0834 -0.009,0.0482 -0.0139,0.097 -0.0178,0.14585 -0.006,0.0447 -0.01,0.0892 -0.0131,0.13422 -0.003,0.0338 -0.002,0.0683 -0.006,0.10183 -0.002,0.0192 -0.005,0.0387 -0.007,0.0579 -0.0232,0.23624 0.0681,0.37915 0.18287,0.42013 0.004,0.0216 0.006,0.0467 0.0154,0.0612 z m 49.36784,-1.67099 c -0.007,-0.005 -0.0123,-0.0114 -0.0173,-0.0184 0.007,0.006 0.0127,0.0115 0.0173,0.0184 z m 71.96373,0.99019 c 0.7233,-0.89843 1.4439,-1.82013 2.1462,-2.84056 0.82553,-1.19932 0.29332,-0.43037 1.60436,-2.30425 1.41962,-2.22235 2.8299,-4.4527 4.35677,-6.60346 0.78205,-1.12505 1.91664,-2.68137 2.64203,-3.96206 1.49989,-2.0146 3.45886,-3.64342 4.96469,-5.65718 2.37433,-3.01325 4.54745,-6.16076 6.17098,-9.64932 1.10958,-1.9879 2.22477,-3.96974 3.54312,-5.82966 l 0.20594,36.70265 z M 123.50777,110.28772 123.28675,70.903573 c 0.0122,-0.0018 0.0236,-0.0042 0.0359,-0.006 3.80356,-0.626969 7.67116,-0.537092 11.51229,-0.54822 4.41543,-0.01275 8.26099,-0.596094 11.55044,-1.596498 l 21.20695,-0.118937 c -0.42284,0.289449 -0.83237,0.608763 -1.12238,0.773297 -4.48045,2.541984 -9.16533,4.778424 -13.01219,8.29942 -4.91926,4.530994 -9.45933,9.455958 -14.23798,14.134773 -5.52069,5.898348 -10.71835,12.094582 -15.71204,18.446352 z m 212.4172,-13.886127 c -1.14416,-1.927324 -2.36417,-3.811961 -3.75537,-5.596601 -4.70502,-5.83958 -9.89318,-11.273796 -16.48738,-15.013882 -5.27191,-2.960659 -10.70661,-5.609776 -16.2994,-7.896652 l 36.38103,-0.204128 z" />
    </clipPath>
    <clipPath
       clipPathUnits="userSpaceOnUse"
       id="clipPath11036-5">
      <path
         id="path11038-3"
         style="fill:#ff0000;fill-opacity:1;fill-rule:nonzero;stroke:none;stroke-width:0.664254"
         d="m 110.14835,149.56872 h 2.46865 v 0.75039 h -2.46865 z" />
    </clipPath>
    <marker
       style="overflow:visible"
       id="TriangleStart-0"
       refX="0"
       refY="0"
       orient="auto-start-reverse"
       inkscape:stockid="TriangleStart"
       markerWidth="3"
       markerHeight="3"
       viewBox="0 0 4.9916334 5.6666178"
       inkscape:isstock="true"
       inkscape:collect="always"
       preserveAspectRatio="none">
      <path
         transform="scale(0.5)"
         style="fill:context-stroke;fill-rule:evenodd;stroke:context-stroke;stroke-width:1pt"
         d="M 5.77,0 -2.88,5 V -5 Z"
         id="path135-7" />
    </marker>
    <inkscape:path-effect
       effect="spiro"
       id="path-effect6902-5"
       is_visible="true"
       lpeversion="1" />
  </defs>
  <defs
     id="defs37" />
  <rect
     style="font-variation-settings:normal;display:none;opacity:1;vector-effect:none;fill:#075295;fill-opacity:1;fill-rule:evenodd;stroke-width:0.75225;stroke-linecap:butt;stroke-linejoin:miter;stroke-miterlimit:4;stroke-dasharray:none;stroke-dashoffset:0;stroke-opacity:1;-inkscape-stroke:none;stop-color:#000000;stop-opacity:1"
     id="rect322"
     width="59.439804"
     height="43.306145"
     x="0"
     y="-2.8421709e-14" />
  <text
     xml:space="preserve"
     style="font-style:normal;font-variant:normal;font-weight:normal;font-stretch:normal;font-size:539.405px;font-family:sans-serif;-inkscape-font-specification:'sans-serif, Normal';font-variant-ligatures:normal;font-variant-caps:normal;font-variant-numeric:normal;font-variant-east-asian:normal;text-align:center;text-anchor:middle;fill:#ff0000;fill-opacity:1;fill-rule:evenodd;stroke:none;stroke-width:57.3384;stroke-linecap:butt;stroke-linejoin:round;stroke-dasharray:none;stroke-opacity:1;paint-order:stroke markers fill"
     x="151.92879"
     y="620.7182"
     id="text13655"><tspan
       sodipodi:role="line"
       id="tspan13653"
       style="font-style:normal;font-variant:normal;font-weight:normal;font-stretch:normal;font-size:67.4257px;font-family:sans-serif;-inkscape-font-specification:'sans-serif, Normal';font-variant-ligatures:normal;font-variant-caps:normal;font-variant-numeric:normal;font-variant-east-asian:normal;fill:#000000;stroke:none;stroke-width:57.3384"
       x="151.92879"
       y="620.7182" /></text>
  <text
     xml:space="preserve"
     style="font-style:normal;font-variant:normal;font-weight:normal;font-stretch:normal;font-size:539.405px;font-family:sans-serif;-inkscape-font-specification:'sans-serif, Normal';font-variant-ligatures:normal;font-variant-caps:normal;font-variant-numeric:normal;font-variant-east-asian:normal;text-align:center;text-anchor:middle;display:none;fill:#ff0000;fill-opacity:1;fill-rule:evenodd;stroke:none;stroke-width:57.3384;stroke-linecap:butt;stroke-linejoin:round;stroke-dasharray:none;stroke-opacity:1;paint-order:stroke markers fill"
     x="333.82816"
     y="591.01312"
     id="text13895"><tspan
       sodipodi:role="line"
       style="font-style:normal;font-variant:normal;font-weight:normal;font-stretch:normal;font-size:40px;font-family:sans-serif;-inkscape-font-specification:'sans-serif, Normal';font-variant-ligatures:normal;font-variant-caps:normal;font-variant-numeric:normal;font-variant-east-asian:normal;fill:#000000;stroke:none;stroke-width:57.3384"
       x="-337.43134"
       y="-103.18773"
       id="tspan13917">Larger module <tspan
   style="font-style:normal;font-variant:normal;font-weight:bold;font-stretch:normal;font-size:40px;font-family:sans-serif;-inkscape-font-specification:'sans-serif, Bold';font-variant-ligatures:normal;font-variant-caps:normal;font-variant-numeric:normal;font-variant-east-asian:normal;stroke-width:57.3384"
   id="tspan13948">→</tspan> Larger teeth <tspan
   style="font-style:normal;font-variant:normal;font-weight:bold;font-stretch:normal;font-size:40px;font-family:sans-serif;-inkscape-font-specification:'sans-serif, Bold';font-variant-ligatures:normal;font-variant-caps:normal;font-variant-numeric:normal;font-variant-east-asian:normal;stroke-width:57.3384"
   id="tspan13950">→</tspan></tspan></text>
  <text
     xml:space="preserve"
     style="font-style:normal;font-variant:normal;font-weight:normal;font-stretch:normal;font-size:539.405px;font-family:sans-serif;-inkscape-font-specification:'sans-serif, Normal';font-variant-ligatures:normal;font-variant-caps:normal;font-variant-numeric:normal;font-variant-east-asian:normal;text-align:center;text-anchor:middle;display:none;fill:#ff0000;fill-opacity:1;fill-rule:evenodd;stroke:none;stroke-width:57.3384;stroke-linecap:butt;stroke-linejoin:round;stroke-dasharray:none;stroke-opacity:1;paint-order:stroke markers fill"
     x="332.96878"
     y="646.617"
     id="text13895-8"><tspan
       sodipodi:role="line"
       style="font-style:normal;font-variant:normal;font-weight:normal;font-stretch:normal;font-size:40px;font-family:sans-serif;-inkscape-font-specification:'sans-serif, Normal';font-variant-ligatures:normal;font-variant-caps:normal;font-variant-numeric:normal;font-variant-east-asian:normal;fill:#000000;stroke:none;stroke-width:57.3384"
       x="-337.43134"
       y="-103.18773"
       id="tspan13917-7">Bigger gear</tspan></text>
  <g
     id="g7635"
     transform="translate(-4.8034616,-75.65452)">
    <path
       d="m 351.05601,174.528 -0.24356,-7.67272 -0.7297,-7.64183 -1.21292,-7.58016 -1.69123,-7.48798 -2.16274,-7.36563 -2.62555,-7.21363 -3.07778,-7.03259 -3.51762,-6.82322 -3.94329,-6.58639 -4.35308,-6.32302 -4.74535,-6.034207 -5.11851,-5.721088 -5.47106,-5.384934 -5.80158,-5.027096 -6.10874,-4.649016 -6.39129,-4.252216 -6.64812,-3.838294 -6.87818,-3.408917 -7.08053,-2.965812 -7.25438,-2.510766 -7.39902,-2.04561 -7.51387,-1.572216 -7.59845,-1.092492 -7.65244,-0.60837 -7.67562,-0.121796 -7.6679,0.365267 -7.62928,0.850859 -7.55997,1.333025 -7.46019,1.809825 -7.3304,2.279335 -7.17106,2.739668 -6.98287,3.18897 -6.76656,3.625431 -6.52299,4.047292 -6.25316,4.452858 -5.95816,4.840493 -5.63916,5.208638 -5.29745,5.555808 -4.93442,5.880607 -4.55151,6.181724 -4.15027,6.45796 -3.73233,6.70818 -3.29936,6.9314 -2.8531,7.12669 -2.39535,7.29331 -1.92796,7.43054 -1.45281,7.53786 -0.9718,7.61483 -0.48687,7.66114 v 7.67658 l 0.48687,7.66114 0.9718,7.61482 1.45281,7.53787 1.92796,7.43054 2.39535,7.2933 2.8531,7.1267 3.29936,6.9314 3.73233,6.70818 4.15027,6.45796 4.55151,6.18172 4.93442,5.88061 5.29745,5.55581 5.63916,5.20864 5.95816,4.84049 6.25316,4.45286 6.52299,4.04729 6.76656,3.62543 6.98287,3.18897 7.17106,2.73967 7.3304,2.27933 7.46019,1.80983 7.55997,1.33302 7.62928,0.85086 7.6679,0.36527 7.67562,-0.1218 7.65244,-0.60837 7.59845,-1.09249 7.51387,-1.57221 7.39902,-2.04561 7.25438,-2.51077 7.08053,-2.96581 6.87818,-3.40892 6.64812,-3.83829 6.39129,-4.25222 6.10874,-4.64901 5.80158,-5.0271 5.47106,-5.38494 5.11851,-5.72108 4.74535,-6.03421 4.35308,-6.32302 3.94329,-6.58639 3.51762,-6.82322 3.07778,-7.03259 2.62555,-7.21363 2.16274,-7.36564 1.69123,-7.48797 1.21292,-7.58016 0.7297,-7.64183 0.24356,-7.67272"
       clip-path="url(#clipPath1146)"
       style="fill:none;stroke:#1a73e8;stroke-width:0.78974;stroke-dasharray:3.9487, 3.9487;stroke-dashoffset:0"
       id="path26"
       transform="matrix(17.075353,0.03930045,0.03930062,-17.075354,-3540.247,5338.7571)" />
    <g
       id="g7549">
      <g
         id="line2d_7"
         transform="matrix(1.4401356,-17.01456,-17.01456,-1.4401356,3028.0021,6534.32)"
         style="display:inline">
        <path
           d="m 335.93411,174.528 0.0121,-4.08673 -0.56344,-6.98682 -1.00743,-6.62925 -0.35409,-2.33007 -1.47983,-6.55198 -1.8924,-6.44493 -2.29735,-6.31193 -2.69306,-6.15351 -3.07791,-5.97032 -3.45038,-5.76309 -3.80895,-5.53265 -4.15218,-5.27992 -4.4787,-5.00596 -4.78718,-4.711814 -5.07638,-4.398709 -5.34514,-4.067889 -5.59238,-3.720689 -5.81711,-3.358507 -6.0184,-2.982802 -6.19547,-2.595086 -6.34759,-2.19692 -6.47414,-1.789909 -6.57463,-1.375689 -6.64864,-0.955931 -6.69589,-0.532323 -6.71617,-0.106572 -6.70941,0.319608 -6.67562,0.744502 -6.61497,1.166398 -6.52767,1.583596 -6.4141,1.994418 -6.27468,2.39721 -6.11001,2.790349 -5.92074,3.172251 -5.70761,3.541381 -5.47152,3.896251 -5.21339,4.235431 -4.93426,4.557558 -4.63527,4.861337 -4.31762,5.14553 -3.98257,5.40901 -3.63149,5.65071 -3.26579,5.86966 -2.88694,6.06497 -2.49646,6.23586 -2.09593,6.38164 -1.68697,6.50173 -1.2712,6.59563 -0.85033,6.66297 -0.42601,6.70349 v 6.71702 l 0.42601,6.70349 0.85033,6.66297 1.2712,6.59563 1.68697,6.50173 2.09593,6.38164 2.49646,6.23586 2.88694,6.06497 3.26579,5.86966 3.63149,5.65071 3.98257,5.40901 4.31762,5.14554 4.63527,4.86133 4.93426,4.55755 5.21339,4.23544 5.47152,3.89625 5.70761,3.54138 5.92074,3.17225 6.11001,2.79035 6.27468,2.39721 6.4141,1.99442 6.52767,1.58359 6.61497,1.1664 6.67562,0.7445 6.70941,0.31961 6.71617,-0.10657 6.69589,-0.53233 6.64864,-0.95593 6.57463,-1.37568 6.47414,-1.78991 6.34759,-2.19692 6.19547,-2.59509 6.0184,-2.9828 5.81711,-3.35851 5.59238,-3.72069 5.34514,-4.06789 5.07638,-4.39871 4.78718,-4.71181 4.4787,-5.00596 4.15218,-5.27993 3.80895,-5.53264 3.45038,-5.76309 3.07791,-5.97032 2.69306,-6.15351 2.29735,-6.31193 1.8924,-6.44493 1.47983,-6.55198 1.0613,-6.63264 0.48838,-6.16122 0.36323,-7.23901"
           clip-path="url(#clipPath1156)"
           style="fill:none;stroke:#000000;stroke-width:0.78974;stroke-dasharray:2.36922, 2.36922;stroke-dashoffset:0"
           id="path29"
           sodipodi:nodetypes="ccccccccccccccccccccccccccccccccccccccccccccccccccccccccccccccccccccccccccccccccccccccccccccccccccccc"
           transform="rotate(-90,230.11351,174.52801)" />
      </g>
      <g
         id="line2d_1"
         transform="matrix(0.64034738,-17.063388,-17.063388,-0.64034738,3226.5335,6406.0176)">
        <path
           d="m 343.26436,185.13524 1.17338,-0.003 2.13069,-0.22099 2.60556,-0.50493 2.90172,-0.7988 3.10955,-1.09503 3.16823,-1.34909 3.2808,-1.63392 1.45287,-0.79924 -0.33774,0.18764"
           clip-path="url(#clipPath11046)"
           style="fill:none;stroke:#075295;stroke-width:0.78974;stroke-linecap:square;stroke-dasharray:none;stroke-opacity:1"
           id="path11"
           sodipodi:nodetypes="cccccccccc" />
      </g>
      <g
         id="line2d_2"
         transform="matrix(0.64034738,-17.063388,-17.063388,-0.64034738,3226.5335,6406.0176)">
        <path
           d="m 343.26436,163.92076 1.17338,0.003 2.13069,0.22099 2.60556,0.50493 2.90172,0.7988 3.10955,1.09503 3.16823,1.34908 3.2808,1.63393 0.58975,0.31139 0.48785,0.31893"
           clip-path="url(#clipPath11056)"
           style="fill:none;stroke:#075295;stroke-width:0.78974;stroke-linecap:square;stroke-dasharray:none;stroke-opacity:1"
           id="path14"
           sodipodi:nodetypes="cccccccccc" />
      </g>
      <g
         id="line2d_3"
         transform="matrix(0.64034738,-17.063388,-17.063388,-0.64034738,3226.5335,6406.0176)">
        <path
           d="m 363.00318,178.32423 0.17541,-3.69545 -0.0915,-4.17662 -0.0849,-0.0529"
           clip-path="url(#p5aa0a9abf8)"
           style="fill:none;stroke:#075295;stroke-width:0.78974;stroke-linecap:square;stroke-dasharray:none;stroke-opacity:1"
           id="path17"
           sodipodi:nodetypes="cccc"
           transform="translate(0.11769218,0.01481831)" />
      </g>
      <g
         id="line2d_4"
         transform="matrix(0.64034738,-17.063388,-17.063388,-0.64034738,3226.5335,6406.0176)">
        <path
           d="m 335.4723,184.40499 7.79206,0.73025"
           clip-path="url(#clipPath12732)"
           style="fill:none;stroke:#075295;stroke-width:0.78974;stroke-linecap:square;stroke-dasharray:none;stroke-opacity:1"
           id="path20" />
      </g>
      <g
         id="line2d_5"
         transform="matrix(0.64034738,-17.063388,-17.063388,-0.64034738,3226.5335,6406.0176)">
        <path
           d="m 335.4723,164.65101 7.79206,-0.73025"
           clip-path="url(#clipPath11076)"
           style="fill:none;stroke:#075295;stroke-width:0.78974;stroke-linecap:square;stroke-dasharray:none;stroke-opacity:1"
           id="path23" />
      </g>
      <g
         aria-label="α"
         id="text6491-7"
         style="font-size:539.405px;font-family:Arial;-inkscape-font-specification:'Arial, Normal';text-align:center;text-anchor:middle;fill:#ff0000;fill-rule:evenodd;stroke-width:70.833;paint-order:stroke markers fill"
         transform="matrix(0.80891739,0.0303567,-0.0303567,0.80891739,99.238807,83.202728)">
        <path
           d="m -44.368517,175.76559 h 7.923771 q -3.014481,9.47407 -5.555252,22.86696 3.014473,16.62268 5.555252,22.86695 h -7.708458 q -1.851748,-4.30639 -2.799153,-8.3544 -3.574298,9.38794 -14.943184,9.38794 -8.612794,0 -13.866589,-6.4596 -5.253809,-6.45958 -5.253809,-17.52702 0,-11.36888 5.253809,-17.57008 5.296863,-6.24428 13.995772,-6.24428 5.383,0 8.785046,2.19627 3.402047,2.1532 6.330405,6.58878 0.301436,-1.50724 2.28239,-7.75152 z m -16.10591,5.383 q -5.555252,0 -8.785046,4.47865 -3.229794,4.47865 -3.229794,12.91918 0,8.22521 3.057527,12.91918 3.057542,4.69397 8.526657,4.69397 5.339932,0 8.914245,-4.60784 3.574298,-4.6509 3.574298,-13.34982 0,-8.44053 -3.358978,-12.74693 -3.315931,-4.30639 -8.698909,-4.30639 z"
           style="fill:#000000;stroke-width:70.833"
           id="path6857" />
      </g>
      <path
         style="fill:none;fill-rule:evenodd;stroke:#000000;stroke-width:16.1822;stroke-linecap:butt;stroke-linejoin:round;stroke-dasharray:none;stroke-opacity:1;paint-order:stroke markers fill"
         d="m -226.6689,670.49855 c 21.15902,-7.07336 42.35266,-14.04314 63.57991,-20.90901 43.04711,-13.92341 86.256691,-27.42641 130.080173,-38.66996 43.446399,-11.14681 87.44807,-20.05958 131.685465,-27.46861 44.209952,-7.40444 88.678872,-13.31145 133.328702,-17.27868 22.63957,-2.01157 45.32345,-3.52433 68.02965,-4.53681"
         id="path11239"
         inkscape:path-effect="#path-effect11241"
         inkscape:original-d="m -226.6689,670.49855 c 21.19037,-6.62206 42.39633,-13.92885 63.57991,-20.90901 21.18358,-6.98015 86.729857,-25.76949 130.080173,-38.66996 43.350326,-12.90047 87.800034,-18.30191 131.685465,-27.46861 43.885432,-9.16669 88.895542,-11.50864 133.328702,-17.27868 44.4332,-5.77005 45.36283,-3.01406 68.02965,-4.53681" />
      <path
         style="fill:none;fill-rule:evenodd;stroke:#000000;stroke-width:16.1822;stroke-linecap:butt;stroke-linejoin:round;stroke-dasharray:none;stroke-opacity:1;paint-order:stroke markers fill"
         d="m 1025.8047,630.82278 c -20.8719,-7.8806 -41.78939,-15.64031 -62.75115,-23.27862 -42.50758,-15.48945 -85.21533,-30.48561 -128.53851,-43.52092 -45.19219,-13.59767 -91.03473,-25.05351 -137.35585,-34.08592 -38.32691,-7.47357 -76.95691,-13.2846 -115.60416,-18.86996 -25.84476,-3.73512 -51.70393,-7.37047 -77.57676,-10.90593"
         id="path11239-1"
         inkscape:path-effect="#path-effect11241-8"
         inkscape:original-d="m 1025.8047,630.82278 c -20.9272,-7.41206 -41.84423,-15.50896 -62.75115,-23.27862 -20.90691,-7.76965 -85.70247,-29.00384 -128.53851,-43.52092 -42.83605,-14.51708 -93.84505,-23.27992 -137.35585,-34.08592 -43.5108,-10.806 -71.41863,-11.43768 -115.60416,-18.86996 -44.18556,-7.43229 -54.98299,-8.53422 -77.57676,-10.90593"
         sodipodi:nodetypes="cssssc"
         clip-path="url(#clipPath1090)"
         transform="rotate(2.1491625,-1440.1469,3949.9829)" />
      <g
         id="g13875"
         transform="matrix(0.64034738,-17.063388,-17.063388,-0.64034738,3226.5335,6406.0176)">
        <path
           d="m 343.26436,185.13524 1.17338,-0.003 2.13069,-0.22099 2.60556,-0.50493 2.90172,-0.7988 3.10955,-1.09503 3.16823,-1.34909 3.2808,-1.63392 1.45287,-0.79924 -0.33774,0.18764"
           clip-path="url(#clipPath11046)"
           style="fill:none;stroke:#075295;stroke-width:0.78974;stroke-linecap:square;stroke-dasharray:none;stroke-opacity:1"
           id="path13873"
           sodipodi:nodetypes="cccccccccc" />
      </g>
      <g
         id="g13879"
         transform="matrix(0.64034738,-17.063388,-17.063388,-0.64034738,3226.5335,6406.0176)">
        <path
           d="m 343.26436,163.92076 1.17338,0.003 2.13069,0.22099 2.60556,0.50493 2.90172,0.7988 3.10955,1.09503 3.16823,1.34908 3.2808,1.63393 0.58975,0.31139 0.48785,0.31893"
           clip-path="url(#clipPath11056)"
           style="fill:none;stroke:#075295;stroke-width:0.78974;stroke-linecap:square;stroke-dasharray:none;stroke-opacity:1"
           id="path13877"
           sodipodi:nodetypes="cccccccccc" />
      </g>
      <path
         d="m 415.98862,95.746378 63.16922,-0.626718 71.2087,4.235789 0.84829,1.482551"
         clip-path="url(#p5aa0a9abf8)"
         style="fill:none;stroke:#075295;stroke-width:13.4851;stroke-linecap:square;stroke-dasharray:none;stroke-opacity:1"
         id="path13881"
         sodipodi:nodetypes="cccc" />
      <g
         id="g13887"
         transform="matrix(0.64034738,-17.063388,-17.063388,-0.64034738,3226.5335,6406.0176)">
        <path
           d="m 335.4723,184.40499 7.79206,0.73025"
           clip-path="url(#clipPath12732)"
           style="fill:none;stroke:#075295;stroke-width:0.78974;stroke-linecap:square;stroke-dasharray:none;stroke-opacity:1"
           id="path13885" />
      </g>
      <g
         id="g13891"
         transform="matrix(0.64034738,-17.063388,-17.063388,-0.64034738,3226.5335,6406.0176)">
        <path
           d="m 335.4723,164.65101 7.79206,-0.73025"
           clip-path="url(#clipPath11076)"
           style="fill:none;stroke:#075295;stroke-width:0.78974;stroke-linecap:square;stroke-dasharray:none;stroke-opacity:1"
           id="path13889" />
      </g>
      <path
         style="fill:none;fill-rule:evenodd;stroke:#000000;stroke-width:16.1822;stroke-linecap:butt;stroke-linejoin:round;stroke-dasharray:none;stroke-opacity:1;paint-order:stroke markers fill"
         d="m -226.6689,670.49855 c 21.15902,-7.07336 42.35266,-14.04314 63.57991,-20.90901 43.04711,-13.92341 86.256691,-27.42641 130.080173,-38.66996 43.446399,-11.14681 87.44807,-20.05958 131.685465,-27.46861 44.209952,-7.40444 88.678872,-13.31145 133.328702,-17.27868 22.63957,-2.01157 45.32345,-3.52433 68.02965,-4.53681"
         id="path13901"
         inkscape:path-effect="#path-effect13909"
         inkscape:original-d="m -226.6689,670.49855 c 21.19037,-6.62206 42.39633,-13.92885 63.57991,-20.90901 21.18358,-6.98015 86.729857,-25.76949 130.080173,-38.66996 43.350326,-12.90047 87.800034,-18.30191 131.685465,-27.46861 43.885432,-9.16669 88.895542,-11.50864 133.328702,-17.27868 44.4332,-5.77005 45.36283,-3.01406 68.02965,-4.53681" />
      <path
         style="fill:none;fill-rule:evenodd;stroke:#000000;stroke-width:16.1822;stroke-linecap:butt;stroke-linejoin:round;stroke-dasharray:none;stroke-opacity:1;paint-order:stroke markers fill"
         d="m 1025.8047,630.82278 c -20.8719,-7.8806 -41.78939,-15.64031 -62.75115,-23.27862 -42.50758,-15.48945 -85.21533,-30.48561 -128.53851,-43.52092 -45.19219,-13.59767 -91.03473,-25.05351 -137.35585,-34.08592 -38.32691,-7.47357 -76.95691,-13.2846 -115.60416,-18.86996 -25.84476,-3.73512 -51.70393,-7.37047 -77.57676,-10.90593"
         id="path13903"
         inkscape:path-effect="#path-effect13913"
         inkscape:original-d="m 1025.8047,630.82278 c -20.9272,-7.41206 -41.84423,-15.50896 -62.75115,-23.27862 -20.90691,-7.76965 -85.70247,-29.00384 -128.53851,-43.52092 -42.83605,-14.51708 -93.84505,-23.27992 -137.35585,-34.08592 -43.5108,-10.806 -71.41863,-11.43768 -115.60416,-18.86996 -44.18556,-7.43229 -54.98299,-8.53422 -77.57676,-10.90593"
         sodipodi:nodetypes="cssssc"
         clip-path="url(#clipPath1100)"
         transform="rotate(2.1491625,-1440.1469,3949.9829)" />
      <g
         id="g2984"
         transform="rotate(-2.5383732,-555.4598,913.1118)">
        <path
           style="fill:#000000;fill-rule:evenodd;stroke:#000000;stroke-width:6;stroke-dasharray:18, 6;stroke-dashoffset:0;stroke-opacity:1;paint-order:stroke markers fill"
           d="M 335,125 V 545"
           id="path2843" />
        <path
           style="fill:#000000;fill-rule:evenodd;stroke:#000000;stroke-width:6;stroke-linecap:butt;stroke-linejoin:round;stroke-dasharray:18, 6;stroke-dashoffset:0;stroke-opacity:1;paint-order:stroke markers fill"
           d="M 547.86316,335.42459 45.774148,335.12808"
           id="path2843-5"
           sodipodi:nodetypes="cc" />
      </g>
      <path
         style="fill:#000000;fill-rule:evenodd;stroke:#000000;stroke-width:5.99999;stroke-dasharray:none;stroke-dashoffset:0;stroke-opacity:1;paint-order:stroke markers fill"
         d="M 362.85445,323.8161 29.410986,160.89022"
         id="path5212"
         sodipodi:nodetypes="cc" />
      <path
         style="fill:#000000;fill-rule:evenodd;stroke:#000000;stroke-width:6;stroke-dasharray:none;stroke-dashoffset:0;stroke-opacity:1;marker-start:url(#TriangleStart);paint-order:stroke markers fill"
         d="m 67.526896,194.56277 c -5.095022,3.27764 -9.550461,7.54545 -13.044148,12.49482 -1.865958,2.64343 -3.459498,5.47904 -4.747235,8.44742"
         id="path6900"
         inkscape:path-effect="#path-effect6902"
         inkscape:original-d="m 67.526896,194.56277 c -4.072727,4.0961 -8.695187,8.33042 -13.044148,12.49482 -4.348959,4.16439 -2.803279,3.43136 -4.747235,8.44742"
         sodipodi:nodetypes="csc" />
      <path
         style="fill:#000000;fill-rule:evenodd;stroke:#000000;stroke-width:6;stroke-linecap:butt;stroke-linejoin:round;stroke-dasharray:none;stroke-dashoffset:0;stroke-opacity:1;marker-start:url(#TriangleStart-0);paint-order:stroke markers fill"
         d="m 37.245596,294.13408 c -1.717226,-5.79862 -2.483995,-11.87754 -2.260473,-17.92096 0.102653,-2.77546 0.412745,-5.54323 0.926834,-8.27259"
         id="path6900-8"
         inkscape:path-effect="#path-effect6902-5"
         inkscape:original-d="m 37.245596,294.13408 c -0.583019,-5.74677 -1.505937,-11.94715 -2.260473,-17.92096 -0.754546,-5.9738 -0.722985,-3.15226 0.926834,-8.27259"
         sodipodi:nodetypes="csc" />
    </g>
  </g>
  <g
     id="g9612"
     transform="translate(78.150234,8.4060577)">
    <path
       d="m 60.247133,583.35386 6.409684,0.24054 q -2.72607,7.57223 -5.187914,18.32884 1.933854,13.53788 3.799584,18.66611 l -6.235514,-0.234 q -1.36718,-3.53973 -2.01067,-6.84299 -3.1763,7.48556 -12.37279,7.14044 -6.96704,-0.26146 -11.02083,-5.64623 -4.05381,-5.38475 -3.71784,-14.3374 0.34513,-9.19648 4.78327,-14.05325 4.47428,-4.89031 11.51098,-4.62624 4.3544,0.16341 7.03971,2.04328 2.68661,1.84504 4.92076,5.52195 0.28959,-1.21008 2.08157,-6.20105 z m -13.19176,3.86548 q -4.49374,-0.16864 -7.24233,3.35617 -2.7486,3.52481 -3.00482,10.3525 -0.24969,6.65352 2.0811,10.54337 2.33081,3.88985 6.75487,4.05588 4.31956,0.1621 7.35077,-3.45676 3.03249,-3.65369 3.29656,-10.6904 0.25623,-6.82769 -2.33018,-10.41318 -2.55158,-3.58417 -6.90597,-3.74758 z"
       style="font-size:539.405px;font-family:Arial;-inkscape-font-specification:'Arial, Normal';text-align:center;text-anchor:middle;fill:#000000;fill-rule:evenodd;stroke-width:57.3384;stroke-linecap:butt;stroke-linejoin:round;paint-order:stroke markers fill"
       id="path6857-8" />
    <g
       id="g15290"
       transform="matrix(0.75,0,0,0.75,223.6107,139.66947)">
      <text
         xml:space="preserve"
         style="font-style:normal;font-variant:normal;font-weight:normal;font-stretch:normal;font-size:58.6667px;font-family:Inter;-inkscape-font-specification:'Inter, Normal';font-variant-ligatures:normal;font-variant-caps:normal;font-variant-numeric:normal;font-variant-east-asian:normal;fill:#1a1a1a;fill-opacity:1;fill-rule:evenodd;stroke-width:0;stroke-linecap:butt;stroke-linejoin:round"
         x="-186.34"
         y="641.14752"
         id="text912-2-1"><tspan
           sodipodi:role="line"
           x="-186.34"
           y="641.14752"
           style="font-style:normal;font-variant:normal;font-weight:normal;font-stretch:normal;font-size:70.6667px;font-family:Arial;-inkscape-font-specification:'Arial, Normal';font-variant-ligatures:normal;font-variant-caps:normal;font-variant-numeric:normal;font-variant-east-asian:normal"
           id="tspan1849-4-1">= Pressure angle</tspan></text>
    </g>
  </g>
</svg>
