<?xml version="1.0" encoding="UTF-8" standalone="no"?>
<svg
   width="670pt"
   height="670pt"
   viewBox="0 0 670 669.99999"
   version="1.1"
   id="svg39"
   sodipodi:docname="spurg_height.svg"
   inkscape:version="1.2.1 (9c6d41e410, 2022-07-14)"
   inkscape:export-filename="..\..\Github\STLGears.com\STLGearsApp\static\STLGearsApp\images\tooltips\module.svg"
   inkscape:export-xdpi="96"
   inkscape:export-ydpi="96"
   xmlns:inkscape="http://www.inkscape.org/namespaces/inkscape"
   xmlns:sodipodi="http://sodipodi.sourceforge.net/DTD/sodipodi-0.dtd"
   xmlns="http://www.w3.org/2000/svg"
   xmlns:svg="http://www.w3.org/2000/svg"
   xmlns:rdf="http://www.w3.org/1999/02/22-rdf-syntax-ns#"
   xmlns:cc="http://creativecommons.org/ns#"
   xmlns:dc="http://purl.org/dc/elements/1.1/">
  <sodipodi:namedview
     id="namedview41"
     pagecolor="#ffffff"
     bordercolor="#000000"
     borderopacity="0.25"
     inkscape:showpageshadow="2"
     inkscape:pageopacity="0.0"
     inkscape:pagecheckerboard="0"
     inkscape:deskcolor="#d1d1d1"
     inkscape:document-units="pt"
     showgrid="false"
     inkscape:zoom="0.44162326"
     inkscape:cx="-149.44865"
     inkscape:cy="288.70762"
     inkscape:window-width="1920"
     inkscape:window-height="1001"
     inkscape:window-x="-9"
     inkscape:window-y="-9"
     inkscape:window-maximized="1"
     inkscape:current-layer="g3536-7" />
  <metadata
     id="metadata2">
    <rdf:RDF>
      <cc:Work>
        <dc:type
           rdf:resource="http://purl.org/dc/dcmitype/StillImage" />
        <dc:date>2023-01-30T17:37:56.672467</dc:date>
        <dc:format>image/svg+xml</dc:format>
        <dc:creator>
          <cc:Agent>
            <dc:title>Matplotlib v3.6.0, https://matplotlib.org/</dc:title>
          </cc:Agent>
        </dc:creator>
      </cc:Work>
    </rdf:RDF>
  </metadata>
  <defs
     id="defs6">
    <inkscape:path-effect
       effect="spiro"
       id="path-effect6902"
       is_visible="true"
       lpeversion="1" />
    <inkscape:path-effect
       effect="spiro"
       id="path-effect13913"
       is_visible="true"
       lpeversion="1" />
    <inkscape:path-effect
       effect="spiro"
       id="path-effect13909"
       is_visible="true"
       lpeversion="1" />
    <style
       type="text/css"
       id="style4">*{stroke-linejoin: round; stroke-linecap: butt}</style>
    <clipPath
       clipPathUnits="userSpaceOnUse"
       id="clipPath11016">
      <path
         id="path11018"
         style="fill:#ff0000;fill-opacity:1;fill-rule:nonzero;stroke:none;stroke-width:0.664254"
         d="m 24.040381,147.07147 h -3.366814 v 3.88858 h 3.366814 z" />
    </clipPath>
    <clipPath
       clipPathUnits="userSpaceOnUse"
       id="clipPath11026">
      <path
         id="path11028"
         style="fill:#ff0000;fill-opacity:1;fill-rule:nonzero;stroke:none;stroke-width:0.664254"
         d="m 112.67143,149.56872 h -2.52348 v 0.75039 h 2.52348 z" />
    </clipPath>
    <clipPath
       clipPathUnits="userSpaceOnUse"
       id="clipPath11036">
      <path
         id="path11038"
         style="fill:#ff0000;fill-opacity:1;fill-rule:nonzero;stroke:none;stroke-width:0.664254"
         d="m 110.14835,149.56872 h 2.46865 v 0.75039 h -2.46865 z" />
    </clipPath>
    <clipPath
       clipPathUnits="userSpaceOnUse"
       id="clipPath11046">
      <path
         id="path11048"
         style="fill:#ff0000;fill-opacity:1;fill-rule:nonzero;stroke:none;stroke-width:0.592305"
         d="m 363.47747,185.53084 h -20.60922 v -7.19327 h 20.60922 z" />
    </clipPath>
    <clipPath
       clipPathUnits="userSpaceOnUse"
       id="clipPath11056">
      <path
         id="path11058"
         style="fill:#ff0000;fill-opacity:1;fill-rule:nonzero;stroke:none;stroke-width:0.592305"
         d="m 363.25882,170.70354 h -20.39057 v -7.17823 h 20.39057 z m -12.14804,-6.09658 c 0.005,-0.0318 -0.0246,-0.0658 -0.0879,-0.0671 h -0.009 c -0.0147,-3.9e-4 -0.0293,-0.002 -0.044,-0.003 -0.0152,-0.002 -0.0304,-0.004 -0.0451,-0.008 -0.0104,-0.002 -0.0184,-0.009 -0.0278,-0.0139 -0.0121,-0.008 -0.0256,-0.0152 -0.037,-0.0243 -6.6e-4,-4.7e-4 -0.003,-0.004 -0.006,-0.006 1.3e-4,-0.005 1.3e-4,-0.01 0,-0.015 3.2e-4,-0.0139 0.001,-0.0278 0.002,-0.0416 0.002,-0.0157 0.004,-0.0317 0.006,-0.0474 0.002,-0.0181 0.002,-0.0362 10e-4,-0.0544 -7.1e-4,-0.0218 -0.003,-0.0431 -0.006,-0.0648 -0.003,-0.0225 -0.005,-0.0448 -0.008,-0.0671 -0.005,-0.0241 -0.0114,-0.0479 -0.0174,-0.0717 -0.005,-0.0175 -0.01,-0.0347 -0.015,-0.0521 -0.007,-0.0211 -0.0143,-0.0432 -0.0231,-0.0636 -0.0106,-0.0229 -0.0215,-0.045 -0.0359,-0.0659 -0.01,-0.0161 -0.0199,-0.0326 -0.0278,-0.0497 -0.05,-0.1083 -0.1576,-0.0647 -0.11106,0.0451 0.01,0.0234 0.0228,0.0443 0.0359,0.0659 0.0121,0.0172 0.0213,0.0366 0.0301,0.0555 0.007,0.0166 0.0128,0.0339 0.0185,0.0509 0.004,0.0156 0.007,0.0307 0.0116,0.0463 0.005,0.0208 0.0121,0.0415 0.0162,0.0625 0.003,0.0194 0.006,0.0396 0.008,0.059 0.002,0.0181 0.001,0.0362 0.001,0.0544 9.5e-4,0.0135 8.9e-4,0.027 0,0.0405 -0.001,0.0146 -0.006,0.0293 -0.008,0.044 -0.002,0.0173 0,0.0358 0,0.0532 2.3e-4,0.006 2.2e-4,0.0115 0,0.0173 -0.0514,-0.0684 -0.11689,-0.0536 -0.12031,0 -0.009,-0.003 -0.0176,-0.006 -0.0266,-0.007 -0.0839,-0.0101 -0.11712,0.0466 -0.0879,0.0856 3.8e-4,9.5e-4 -2.9e-4,0.001 0,0.002 7.7e-4,0.002 0.003,0.003 0.003,0.005 0.0109,0.0189 0.0331,0.0372 0.0694,0.0474 0.004,0.001 0.0187,0.003 0.022,0.006 0.004,0.001 0.008,0.004 0.0139,0.007 l 0.007,0.004 c 0.004,0.002 0.0141,0.006 0.0173,0.007 0.004,0.002 0.008,0.004 0.0127,0.006 -9.4e-4,-2.3e-4 0.002,-3.5e-4 0.002,0 0.008,0.005 0.0175,0.009 0.0266,0.0127 0.038,0.0159 0.0687,0.0136 0.0879,10e-4 0.01,0.005 0.0185,0.0117 0.0278,0.0173 0.014,0.009 0.0296,0.0141 0.0451,0.0197 0.016,0.006 0.0318,0.0102 0.0486,0.0127 0.012,0.001 0.0242,0.004 0.0359,0.007 0.0116,0.003 0.0229,0.005 0.0347,0.007 0.008,0.002 0.0105,0.004 0.0185,0.007 0.008,0.002 0.0155,0.006 0.0243,0.008 0.0608,0.018 0.0989,-0.009 0.10411,-0.0417 0.003,-0.0167 -0.004,-0.035 -0.0197,-0.0497 0.0163,-0.01 0.0257,-0.0236 0.0278,-0.0382 z" />
    </clipPath>
    <clipPath
       clipPathUnits="userSpaceOnUse"
       id="clipPath11076">
      <path
         id="path11078"
         style="fill:#ff0000;fill-opacity:1;fill-rule:nonzero;stroke:none;stroke-width:0.592305"
         d="m 343.69424,165.08127 h -8.65205 v -1.59067 h 8.65205 z" />
    </clipPath>
    <clipPath
       clipPathUnits="userSpaceOnUse"
       id="clipPath11096">
      <path
         id="path11098"
         style="fill:#ff0000;fill-opacity:1;fill-rule:nonzero;stroke:none;stroke-width:0.75"
         d="m 42.455567,32.958985 v 3.786621 h 15.108398 v -3.786621 z" />
    </clipPath>
    <inkscape:path-effect
       effect="spiro"
       id="path-effect11241"
       is_visible="true"
       lpeversion="1" />
    <inkscape:path-effect
       effect="spiro"
       id="path-effect11241-8"
       is_visible="true"
       lpeversion="1" />
    <clipPath
       clipPathUnits="userSpaceOnUse"
       id="clipPath12732">
      <path
         id="path12734"
         style="fill:#ff0000;fill-opacity:1;fill-rule:nonzero;stroke:none;stroke-width:0.592305"
         d="m 343.69424,185.56554 h -8.65205 v -1.59066 h 0.30078 c 0.0223,0.003 0.0445,0.006 0.0671,0.0104 0.0482,0.009 0.0969,0.0143 0.14576,0.0185 0.0446,0.007 0.0892,0.0103 0.13419,0.0139 0.0338,0.003 0.0682,0.003 0.10181,0.007 0.0191,0.003 0.0387,0.005 0.0578,0.007 0.1376,0.0143 0.24297,-0.0108 0.31582,-0.0567 h 7.52875 z" />
    </clipPath>
    <clipPath
       clipPathUnits="userSpaceOnUse"
       id="clipPath1090">
      <path
         id="path1092"
         style="fill:#ff0000;fill-opacity:1;fill-rule:nonzero;stroke:none;stroke-width:0.75"
         d="m 502.88233,492.14502 v 146.24707 h 501.67527 c 3.2088,-2.53965 6.4479,-5.04126 9.7544,-7.45752 6.0877,-4.44867 10.3471,-7.32807 14.3511,-9.89941 V 492.14502 Z" />
    </clipPath>
    <clipPath
       clipPathUnits="userSpaceOnUse"
       id="clipPath1100">
      <path
         id="path1102"
         style="fill:#ff0000;fill-opacity:1;fill-rule:nonzero;stroke:none;stroke-width:0.75"
         d="m 502.88233,492.14502 v 146.24707 h 501.67527 c 3.2088,-2.53965 6.4479,-5.04126 9.7544,-7.45752 6.0877,-4.44867 10.3471,-7.32807 14.3511,-9.89941 V 492.14502 Z" />
    </clipPath>
    <clipPath
       clipPathUnits="userSpaceOnUse"
       id="clipPath1146">
      <path
         id="path1148"
         style="stroke-width:85013.5"
         d="m 414.72044,307.58437 -357.120463,-5.2e-4 -1.3e-5,-266.111869 357.120466,5.23e-4 z M 248.40796,294.53759 c 0.029,-0.004 0.0587,-0.0263 0.0556,-0.0839 l -6.2e-4,-0.009 c -6.3e-4,-0.0147 -3.8e-4,-0.0294 3.7e-4,-0.0441 0.001,-0.0154 0.003,-0.0306 0.006,-0.0457 0.002,-0.0105 0.008,-0.019 0.0119,-0.0287 0.007,-0.0126 0.0133,-0.0266 0.0216,-0.0386 4.3e-4,-6.9e-4 0.002,-0.004 0.004,-0.006 0.005,-1.3e-4 0.01,-9.6e-4 0.015,-9.6e-4 0.0139,-6.5e-4 0.0278,-9.6e-4 0.0417,-5.7e-4 0.0157,6.3e-4 0.032,0.002 0.0477,0.002 0.0182,2.8e-4 0.0362,10e-4 0.0543,-0.003 0.0217,-0.002 0.0429,-0.005 0.0643,-0.009 0.0222,-0.004 0.0443,-0.009 0.0663,-0.0139 0.0237,-0.007 0.0469,-0.0146 0.0704,-0.0223 0.0171,-0.006 0.0339,-0.0122 0.0509,-0.0187 0.0206,-0.009 0.0421,-0.0171 0.0619,-0.0274 0.0221,-0.0122 0.0434,-0.0246 0.0633,-0.0404 0.0154,-0.0108 0.0312,-0.022 0.0477,-0.0312 0.10456,-0.0574 0.0536,-0.16175 -0.0527,-0.1077 -0.0226,0.0115 -0.0427,0.0247 -0.0634,0.0392 -0.0163,0.0133 -0.0349,0.0249 -0.0532,0.035 -0.016,0.008 -0.033,0.0149 -0.0495,0.0218 -0.0153,0.005 -0.0301,0.009 -0.0454,0.0149 -0.0204,0.006 -0.0406,0.0147 -0.0614,0.0204 -0.0191,0.004 -0.0388,0.008 -0.0582,0.0121 -0.0179,0.003 -0.036,0.004 -0.0541,0.006 -0.0134,0.002 -0.027,0.003 -0.0406,0.003 -0.0147,-4e-4 -0.0294,-0.003 -0.044,-0.004 -0.0174,-5.1e-4 -0.035,-2e-5 -0.0524,1.2e-4 -0.006,7.7e-4 -0.0116,0 -0.0174,0 0.0603,-0.0532 0.0339,-0.0923 -0.0137,-0.0976 8.5e-4,-0.003 -9.8e-4,-0.005 0.002,-0.008 0.003,-0.0127 0.007,-0.0257 0.008,-0.0388 9.9e-4,-0.0225 -0.0149,-0.021 -0.0212,-0.0357 l -6e-5,-9.4e-4 c -0.004,-0.0205 -0.0134,-0.0343 -0.0249,-0.0423 -0.008,-0.003 -0.008,-0.008 -0.0156,-0.007 -0.0297,-0.007 -0.0661,0.0198 -0.0789,0.0819 -9.1e-4,0.004 -9.2e-4,0.0186 -0.003,0.022 -7.3e-4,0.004 -0.004,0.009 -0.006,0.0143 -8.7e-4,0.002 -0.002,0.005 -0.003,0.007 -10e-4,0.004 -0.005,0.0145 -0.006,0.0178 -0.002,0.004 -0.002,0.008 -0.004,0.013 l -9.4e-4,7e-5 c -0.005,0.009 -0.008,0.0181 -0.0107,0.0274 -0.0133,0.039 -0.009,0.0695 0.005,0.0878 -0.004,0.01 -0.009,0.0192 -0.0143,0.0289 -0.008,0.0146 -0.0119,0.0306 -0.0164,0.0465 -0.005,0.0163 -0.007,0.0333 -0.008,0.0504 -2.9e-4,0.0121 -9.7e-4,0.0241 -0.003,0.0361 -0.002,0.0118 -0.005,0.0244 -0.007,0.0364 -0.002,0.008 -9.7e-4,0.0106 -0.003,0.0188 -0.002,0.008 -6.4e-4,0.0157 -0.003,0.0245 -0.0137,0.0619 0.0154,0.0981 0.0486,0.10102 0.0223,0.002 0.0462,-0.0114 0.0597,-0.0424 0.0102,0.0137 0.0171,0.0344 0.0293,0.0386 z m -80.963,3.18773 v 0 c 0.0284,-0.0312 -0.30199,-0.30589 -0.40985,-0.42924 -11.73905,-13.42596 1.97575,-12.99487 14.72113,-12.64796 -0.0541,0.22993 -0.10555,0.46102 -0.14657,0.69437 -0.10003,0.96924 0.004,1.97287 0.53022,2.82165 0.1849,0.29808 0.42115,0.56377 0.659,0.82159 0.13573,0.14713 0.30464,0.25837 0.45721,0.38795 0.94125,0.68803 2.05332,0.98646 3.18551,1.16779 0.53456,0.0394 1.06118,0.10935 1.58953,0.1944 0.0874,0.0187 0.0486,0.008 0.0951,0.0166 0.008,0.004 0.0111,0.004 0.0156,0.008 0.0797,0.0669 0.0389,0.0343 0.23471,0.14018 0.36366,0.19674 0.28522,0.14632 0.68107,0.32147 0.01,0.004 0.0212,0.008 0.0278,0.0165 0.004,0.005 -0.0127,-0.004 -0.019,-0.006 0.42766,0.2205 0.14173,0.0674 0.54716,0.38057 0.1104,0.0758 0.21779,0.15634 0.33125,0.22747 0.34401,0.21567 0.42197,0.23939 0.75439,0.39281 0.17834,0.11869 0.083,0.0589 0.39882,0.24943 0.65732,0.39639 1.12341,0.5497 1.44644,0.52218 0.1395,-0.0119 0.24624,-0.0651 0.33592,-0.13937 0.0743,0.004 0.14838,0.005 0.22277,0.002 1.50245,-0.0691 2.98237,-1.5794 3.02886,-4.55341 0.0149,-0.95171 0.0305,-1.90417 0.0996,-2.85385 0.0714,-0.64147 0.1201,-1.28801 0.24571,-1.92004 2.46247,-1.28226 2.36407,-3.83497 -2.41465,-8.77529 0.0115,-0.0448 0.0265,-0.0886 0.0371,-0.13355 0.038,-0.2128 0.0912,-0.4228 0.11449,-0.6377 0.10139,-0.93418 -0.0743,-1.94238 -0.57272,-2.75024 -0.1756,-0.28456 -0.41365,-0.52461 -0.62067,-0.7872 -0.13681,-0.11855 -0.26865,-0.24455 -0.41099,-0.35641 -0.55024,-0.43238 -1.18791,-0.72582 -1.81128,-1.03367 -0.66638,-0.28059 -1.272,-0.68446 -1.88429,-1.06455 -1.06848,-0.65214 -2.05928,-1.28494 -3.31134,-1.54283 -0.25234,-0.0587 -0.50488,-0.12279 -0.75748,-0.18623 -1.55428,-1.40444 -3.04355,-2.87689 -4.53504,-4.34867 -0.26283,-1.1977 -0.48921,-2.40434 -0.69777,-3.61363 -0.42583,-2.77377 -0.88934,-5.54119 -1.34326,-8.31042 -0.44487,-2.91284 -0.8443,-5.83696 -1.42785,-8.72558 -1.21594,-6.01909 -7.15042,-4.50392 -6.01069,1.53006 0.50951,2.6975 0.89212,5.41851 1.30652,8.13214 0.0226,0.13836 0.0455,0.27673 0.0683,0.41507 -2.05073,-3.04921 -4.06004,-6.12593 -6.09607,-9.18487 -2.82186,-4.34778 -5.92531,-8.5035 -8.96134,-12.70228 -3.16318,-4.06354 -5.04184,-8.88576 -6.93703,-13.62456 -0.95254,-2.60463 -1.41913,-3.69857 -2.13512,-6.33976 -3.30528,-12.1927 1.12604,2.45765 -4.29937,-15.80029 -3.1417,-10.57263 -4.33009,-13.8265 -7.89588,-24.5131 -0.86521,-2.50566 -1.71556,-5.01589 -2.58038,-7.52165 4.05817,-7.55097 8.7074,-14.76034 13.4142,-21.92 4.57071,-6.68579 9.24001,-13.34007 14.43888,-19.55721 3.98465,-4.12683 7.31614,-8.90002 11.4165,-12.90977 2.88264,-2.15688 6.06199,-3.83366 8.96001,-5.97836 1.1777,-0.87158 2.30211,-1.812099 3.45342,-2.718241 4.84186,-4.021019 10.00782,-7.594387 15.31459,-10.966075 4.37919,-2.330166 8.81023,-4.559434 13.13247,-6.99439 3.12501,-1.753075 6.64938,-2.537458 10.11504,-3.307906 2.92766,-0.220987 5.2139,0.435011 8.00249,1.181786 4.87622,1.801423 9.85508,3.277521 14.8146,4.821333 3.56685,1.175845 7.04103,2.671431 10.43842,4.276803 6.27658,3.382771 12.97098,5.743701 19.74745,7.886494 5.96907,1.732038 11.79327,3.909448 17.37514,6.640136 2.67632,1.41389 4.70416,3.6552 6.68488,5.89688 2.42076,2.90344 4.01963,6.33251 5.5039,9.77573 1.63107,4.38122 3.13986,8.79239 5.06518,13.05551 2.16887,4.37994 5.05724,8.33882 7.93953,12.26537 1.58147,1.93025 2.859,4.05543 3.85569,6.33604 0.70895,1.8911 1.03247,3.89731 1.36794,5.88049 0.45584,2.79171 0.67708,5.61534 0.92033,8.43152 0.10417,1.66956 0.31422,3.33423 0.39803,5.0052 0.007,0.1426 0.0438,0.55402 -0.0214,0.42708 -0.19827,-0.3857 0.0704,-1.13014 -0.20658,-0.11902 -1.26509,4.34499 -2.03141,8.79531 -2.6289,13.27402 -0.40924,4.31267 -0.71165,8.63948 -0.96776,12.96477 -0.24028,1.90352 -0.60667,3.70017 -1.27052,5.4923 -0.882,2.65454 -2.12398,5.20525 -3.63136,7.56175 -1.75629,3.10575 -3.6862,6.10533 -5.55082,9.14476 -2.02961,3.13506 -3.63014,6.49879 -5.25462,9.85012 -0.69159,1.86612 -1.53146,3.53087 -2.6808,5.1241 -1.51102,1.83964 -2.97363,3.72298 -4.37537,5.65258 -1.55321,2.4377 -3.02918,4.9257 -4.47711,7.4257 -1.40029,2.25249 -2.65858,4.59538 -3.95134,6.91257 -0.4233,0.56468 -0.11065,0.13398 -0.84642,1.35187 -0.99287,1.6434 -1.83529,3.2505 -2.54409,4.81716 -0.17552,0.0982 -0.34889,0.2029 -0.51729,0.32103 -0.42359,0.2972 -0.65415,0.56293 -1.00101,0.92061 -0.24955,0.26532 -0.46802,0.55596 -0.68498,0.84781 -0.77536,0.60639 -1.22606,1.35444 -1.36211,2.11636 -0.1523,0.29856 -0.29792,0.60056 -0.43091,0.90771 -0.051,0.14524 -0.0976,0.30358 -0.14119,0.46636 -0.36666,-0.10483 -0.72988,-0.222 -1.08629,-0.36252 -0.54537,-0.25205 -0.81607,-0.35829 -1.33472,-0.67648 -1.15473,-0.70844 -2.18029,-1.60978 -3.23252,-2.456 -1.439,-1.21918 -2.80172,-2.52205 -4.19182,-3.79579 -5.37179,-4.92214 -9.77644,0.68859 -4.56104,5.77616 1.28599,1.25448 2.61904,2.46206 3.98628,3.62736 1.25463,1.02305 2.49872,2.07788 3.87225,2.94217 0.99853,0.62831 1.24658,0.71555 2.28716,1.2227 1.73654,0.77805 3.58847,1.17463 5.45392,1.48783 0.012,0.2964 0.032,0.58818 0.0558,0.87756 -0.21076,0.2337 -0.45425,0.55067 -0.73921,0.97068 -0.62596,0.92263 -1.09045,1.93926 -1.58669,2.93412 -0.13009,0.29812 -0.28173,0.58443 -0.43912,0.86761 -1.36259,-0.21601 -1.29573,0.39118 -0.76016,1.33597 -0.22319,0.4134 -0.38619,0.85263 -0.54202,1.29467 -0.66968,1.89961 -0.47388,3.48092 0.16879,4.62342 -0.0164,-0.005 -0.0321,-0.012 -0.0491,-0.0141 -0.0362,-0.004 0.009,0.0168 0.0639,0.0404 0.77721,1.35907 2.19053,2.08772 3.5311,1.97128 0.43608,-0.0379 0.86314,-0.16861 1.25901,-0.39231 2.26689,-0.2077 3.48328,-2.15171 2.68281,-4.28031 2.79485,3.37651 6.94593,5.18998 11.5952,4.91716 6.5931,-0.38688 14.18318,-4.96439 20.31198,-15.21221 0.74738,-1.24962 0.26535,-0.44814 1.45422,-2.40181 1.27499,-2.30842 2.54004,-4.62418 3.92667,-6.86794 0.70877,-1.17262 1.74176,-2.79826 2.38395,-4.12254 1.36835,-2.1062 3.21959,-3.85655 4.59393,-5.96222 2.1774,-3.15858 4.14521,-6.43827 5.54296,-10.02323 1.10339,-2.31199 2.16906,-4.64047 3.59041,-6.78539 1.87038,-3.11413 3.88824,-6.14183 5.65573,-9.31905 2.66,-4.51762 5.11022,-9.18302 6.72604,-14.1898 1.62558,-4.83729 2.72544,-9.78387 3.13052,-14.8813 0.20306,-3.49093 0.46759,-6.97961 0.7299,-10.46548 0.50193,-3.94612 1.39664,-7.78156 2.37628,-11.63643 0.81209,-4.95513 0.88579,-9.57534 0.24974,-14.53606 -0.32998,-3.80453 -0.65944,-7.61453 -1.30291,-11.38178 -0.86973,-4.96604 -1.96699,-9.91381 -4.05015,-14.53389 -2.05774,-4.40363 -4.43375,-8.65012 -7.46437,-12.47007 -1.5551,-2.11824 -3.14596,-4.22157 -4.493,-6.47831 -0.55954,-0.87958 -0.17642,-0.22576 -0.88943,-2.10091 -1.26761,-3.33361 -2.35149,-6.73646 -3.75134,-10.02047 -3.04153,-6.906632 -6.60453,-13.60003 -11.64896,-19.283026 -5.06787,-5.527639 -10.5921,-10.619876 -17.4113,-13.931799 -7.13372,-3.427365 -14.507,-6.315195 -22.11443,-8.52207 -5.30945,-1.666001 -10.531,-3.480751 -15.41715,-6.19876 -4.86805,-2.26444 -9.83229,-4.383681 -14.94889,-6.020376 -5.50206,-1.693184 -10.97277,-3.460288 -16.43517,-5.280321 -2.75858,-0.694029 -4.73148,-1.260762 -7.56199,-1.683237 -5.64652,-0.842816 -11.33299,-0.714296 -16.95632,0.26538 -6.81269,1.568212 -13.57976,3.5005 -19.68046,7.018311 -4.81003,2.775464 -9.88939,5.061119 -14.65833,7.9134 -6.33863,4.051075 -12.52389,8.328386 -18.33065,13.121597 -0.65099,0.531781 -2.37549,1.982957 -3.2124,2.531124 -4.30922,2.822553 -8.84193,5.353233 -12.45633,9.112356 -4.62035,4.83552 -8.83716,10.039863 -13.30763,15.013897 -5.46027,6.635744 -10.53785,13.582114 -15.37751,20.683564 -1.18708,-3.67225 -2.37924,-7.34288 -3.52924,-11.02744 -2.136,-8.143464 -5.3718,-16.270012 -5.35137,-24.792027 0.08,-0.294618 0.16005,-0.589498 0.24002,-0.884114 0.0906,-0.01871 0.21435,0.01628 0.27205,-0.05607 0.20196,-0.253196 0.27056,-0.592159 0.45652,-0.857372 0.25925,-0.369789 1.03399,-0.711755 1.37342,-0.960611 1.4163,-1.164131 2.98013,-1.624328 4.71567,-1.9932 3.75582,-0.868253 7.62135,-1.025196 11.45387,-1.281259 34.65944,-2.315575 32.29503,-37.366895 -2.36152,-35.00998 -6.06497,0.412498 -12.16108,0.837345 -18.06936,2.369834 -3.42803,0.959317 -4.32727,1.090328 -7.65453,2.522289 -4.816659,2.072994 -9.123861,5.159704 -12.986779,8.671455 -1.118178,1.183681 -2.318649,2.295031 -3.354914,3.55104 -5.834477,7.071697 -8.911796,15.693016 -9.16184,24.836511 0.18388,4.854503 0.07673,5.719629 0.88531,10.712702 1.300065,8.028172 3.882458,15.815922 6.048655,23.629132 4.351765,13.93313 9.010694,27.7642 13.733683,41.57353 -1.260234,2.80267 -2.507686,5.61093 -3.738332,8.42621 -10.59548,24.23918 3.206102,39.94954 17.383127,32.42066 0.32677,1.07302 0.53383,1.66356 0.91256,2.93308 6.31064,21.15329 -0.38855,-0.84094 4.57296,16.71595 1.03965,3.67893 1.77264,5.45588 3.08107,8.98752 2.99023,7.35511 6.17577,14.70421 11.04129,21.04962 2.77954,3.84354 5.63054,7.64103 8.21147,11.62257 2.7593,4.11722 5.41517,8.30354 8.24506,12.37406 3.01478,4.31261 6.13753,8.58046 9.89706,12.28463 2.5159,2.3909 4.89772,4.92353 7.54394,7.1765 0.87798,0.75652 4.18917,4.02315 4.7964,4.23781 l 3e-5,4.4e-4 c 0.0208,0.007 0.0326,0.008 0.0369,0.003 z m 23.37606,-5.42661 c -0.0313,-0.0156 -0.062,-0.0326 -0.0927,-0.0492 0.009,0.004 0.0107,0.005 0.0203,0.009 0.025,0.0117 0.0971,0.0525 0.0724,0.0402 z m -3.07974,-6.01652 c -0.0429,-0.0606 -0.0178,-0.0455 0.0226,-0.17554 -0.005,0.0582 -0.01,0.11713 -0.0226,0.17554 z m 2.31665,-1.38919 c -0.14717,-0.0507 -0.28292,-0.13404 -0.43408,-0.17164 0.15999,-0.005 0.29445,-0.0216 0.45151,-0.0279 -0.003,0.0273 -0.006,0.0546 -0.009,0.0818 -0.003,0.0392 -0.005,0.0785 -0.008,0.11768 z m 56.45318,-4.88659 v -9e-5 l -8.9e-4,-3.8e-4 c 0.006,-6e-5 0.0124,-9.9e-4 0.0185,-0.001 0.19332,-0.0143 0.37262,-0.21984 0.3443,-0.60259 -0.002,-0.0235 -0.004,-0.047 -0.006,-0.0704 -0.004,-0.053 -0.008,-0.10625 -0.0146,-0.15902 -0.008,-0.0609 -0.0161,-0.1216 -0.0324,-0.18091 -0.009,-0.0322 -0.0106,-0.0384 -0.0192,-0.0927 -0.006,-0.033 -0.0103,-0.0537 -0.0112,-0.0942 -0.003,-0.0419 -0.006,-0.0838 -0.009,-0.12579 -0.003,-0.0427 -0.007,-0.0853 -0.01,-0.12803 -0.004,-0.0473 -0.007,-0.0947 -0.0122,-0.14182 -0.009,-0.0695 -0.0197,-0.13921 -0.0421,-0.20578 -0.0408,-0.11094 -0.0991,-0.21218 -0.18953,-0.29064 -0.0808,-0.0676 -0.16722,-0.12932 -0.26365,-0.173 -0.69222,-0.31358 0.4094,0.92779 -0.27683,0.722 -8.7e-4,-0.002 -0.002,-0.003 -0.003,-0.004 -7e-5,8.9e-4 3e-4,0.003 3.5e-4,0.005 -0.006,-0.002 -0.0122,-0.004 -0.0187,-0.006 -0.003,-9.8e-4 -0.0116,-0.005 -0.009,-0.003 0.003,0.004 0.009,0.004 0.0133,0.007 0.005,0.003 0.0105,0.007 0.016,0.0105 9.9e-4,0.0105 0.002,0.0228 0.003,0.0311 0.004,0.0363 0.007,0.0719 0.01,0.10835 0.003,0.0409 0.006,0.0827 0.009,0.12354 0.003,0.0417 0.007,0.0829 0.01,0.1246 0.002,0.0621 0.0105,0.12412 0.0223,0.18514 0.008,0.0516 0.0189,0.10157 0.0327,0.15191 0.006,0.0237 0.009,0.0482 0.012,0.0724 0.005,0.0415 0.008,0.0829 0.0111,0.12444 0.002,0.022 0.003,0.0449 0.005,0.0669 0.0274,0.37049 0.2231,0.54853 0.41096,0.54655 z m -18.10323,1.23982 c 0.13605,-0.0102 0.26267,-0.15335 0.24397,-0.42286 l -0.001,-0.0208 c -0.003,-0.0426 -0.006,-0.0855 -0.009,-0.12811 -0.004,-0.0602 -0.009,-0.11981 -0.0125,-0.17997 -0.003,-0.0471 -0.003,-0.0952 -0.004,-0.14239 -1.9e-4,-0.01 4.7e-4,-0.0193 2.2e-4,-0.029 0.002,-0.0225 0.005,-0.0451 0.007,-0.0677 0.008,-0.0352 0.0177,-0.07 0.0215,-0.10589 0.006,-0.0478 0.0138,-0.0953 0.0143,-0.14366 9.9e-4,-0.0421 -5.1e-4,-0.0842 -0.004,-0.12614 l -0.007,-0.10494 -0.008,-0.12009 c -0.001,-0.0164 -0.0109,-0.0212 -0.0129,-0.0362 -0.003,-0.0126 -0.008,-0.0223 -0.0117,-0.034 0.005,-0.014 0.0104,-0.028 0.0168,-0.0417 0.005,-0.0102 0.008,-0.0209 0.0129,-0.031 0.003,-0.006 0.006,-0.0121 0.009,-0.018 -0.003,0.003 -0.005,0.006 -0.009,0.009 -0.0177,0.0124 -0.0338,0.0221 -0.0489,0.0301 -9.7e-4,-0.002 -0.002,-0.006 -0.003,-0.008 -2.7e-4,-8.1e-4 -1.9e-4,-8.7e-4 -2.2e-4,-0.002 -0.0398,-0.12002 -0.11136,-0.17775 -0.18718,-0.20738 -0.005,-0.19035 0.0135,-0.38897 -0.17442,-0.17336 -0.0436,0.05 -0.0703,0.11207 -0.0982,0.17151 -0.0259,0.0541 -0.0441,0.11078 -0.0648,0.16686 -0.0238,0.0533 -0.0412,0.10821 -0.0547,0.16496 -0.0116,0.052 -0.0151,0.10691 -0.0155,0.15999 7e-5,0.0359 0.002,0.0704 0.004,0.10636 2.2e-4,0.007 9.8e-4,0.0129 0.001,0.0195 l -9.6e-4,9.3e-4 c -3.7e-4,0.004 -2.4e-4,0.007 -4e-4,0.0104 -4.4e-4,0.005 -9.2e-4,0.0109 -9.3e-4,0.0162 -10e-4,0.0204 -0.006,0.0556 -0.009,0.0922 -5e-5,-0.002 3.6e-4,-0.006 -3.5e-4,-0.005 -0.007,0.0166 -0.01,0.0779 -0.0105,0.097 -0.001,0.0279 -0.003,0.0557 -0.007,0.084 -0.006,0.0487 -0.008,0.0978 -0.008,0.14675 -0.003,0.045 -0.005,0.0898 -0.006,0.13491 -6.8e-4,0.0339 0.002,0.0682 1.3e-4,0.10198 -9.7e-4,0.0193 -0.002,0.0389 -0.003,0.0583 -0.009,0.25455 0.10753,0.39404 0.23526,0.41387 0.0567,0.0949 0.1253,0.16791 0.20603,0.16317 z m 17.6115,-2.74621 c -0.007,-0.004 -0.0131,-0.0105 -0.0186,-0.0173 0.007,0.005 0.0135,0.0107 0.0186,0.0173 z" />
    </clipPath>
    <clipPath
       clipPathUnits="userSpaceOnUse"
       id="clipPath1156">
      <path
         id="path1158"
         style="fill:#ff0000;fill-opacity:1;fill-rule:nonzero;stroke:none;stroke-width:2948.88"
         d="m 124.46756,281.34104 -0.21158,-37.69991 c 2.48225,3.93337 5.02855,7.83108 7.30521,11.88863 2.49115,4.2847 4.87473,8.63185 7.43916,12.87466 2.71433,4.46421 5.54129,8.88853 9.02251,12.80439 z m 34.83673,-0.1955 c 3.09448,-0.72511 7.67867,-0.47204 12.41269,-0.0696 z m 30.68603,-0.17221 c 2.15437,-1.20379 1.97151,-3.76321 -2.24239,-8.71474 0.0137,-0.0423 0.0298,-0.0838 0.0433,-0.12636 0.0515,-0.20995 0.11803,-0.41605 0.15501,-0.62902 0.16076,-0.92583 0.0497,-1.94323 -0.39626,-2.78124 -0.15709,-0.29518 -0.37927,-0.54983 -0.56912,-0.82508 -0.12897,-0.12704 -0.2525,-0.2612 -0.38742,-0.3819 -0.52154,-0.46659 -1.13927,-0.80017 -1.74173,-1.14716 -0.64713,-0.32251 -1.22567,-0.76416 -1.81247,-1.18252 -1.02472,-0.71896 -1.97322,-1.41367 -3.20625,-1.75089 -0.24809,-0.0746 -0.49596,-0.15468 -0.74399,-0.2341 -1.46161,-1.50072 -2.854,-3.06522 -4.2486,-4.62912 -0.18591,-1.21202 -0.33486,-2.43056 -0.46587,-3.65071 -0.24807,-2.79529 -0.53414,-5.58675 -0.81053,-8.37929 -0.2582,-2.93527 -0.47032,-5.87881 -0.86846,-8.7988 -0.82962,-6.08432 -6.84858,-4.95071 -6.09598,1.14363 0.33645,2.72453 0.54472,5.46434 0.78525,8.19887 0.0138,0.13953 0.0279,0.27905 0.0417,0.41857 -1.85216,-3.17374 -3.66105,-6.37238 -5.49785,-9.55495 -2.53876,-4.51884 -5.37092,-8.864 -8.133,-13.24785 -2.89763,-4.25693 -4.46493,-9.18934 -6.05399,-14.03933 -0.78451,-2.66012 -1.18043,-3.78158 -1.72645,-6.46293 -2.52096,-12.37878 0.96698,2.52445 -3.283,-16.04232 -2.46096,-10.75153 -3.43955,-14.07447 -6.31656,-24.96676 -0.70297,-2.5533 -1.39859,-5.10824 -2.10102,-7.66165 4.53288,-7.28017 9.63444,-14.18146 14.7904,-21.02923 4.98784,-6.38065 10.07206,-12.72357 15.65682,-18.59649 4.2397,-3.86433 7.86889,-8.41538 12.21656,-12.15542 3.01438,-1.96864 6.29406,-3.43926 9.32295,-5.394783 1.23089,-0.794685 2.41303,-1.661617 3.61973,-2.492495 5.08851,-3.704046 10.47183,-6.94059 15.98291,-9.967019 4.51881,-2.046113 9.08301,-3.98824 13.55174,-6.142592 3.23047,-1.550185 6.79757,-2.108368 10.30538,-2.656179 2.93573,-0.03383 5.17567,0.766635 7.91096,1.689732 4.75148,2.108749 9.6258,3.899383 14.47677,5.756342 3.48462,1.400961 6.85653,3.114998 10.14456,4.933762 6.04813,3.776179 12.57823,6.559205 19.2043,9.129789 5.84646,2.109193 11.51989,4.653723 16.91624,7.734793 2.58073,1.5817 4.46153,3.94778 6.29525,6.31122 2.23072,3.05192 3.60748,6.57591 4.86913,10.10683 1.34835,4.4762 2.57283,8.97481 4.22239,13.35198 1.88507,4.50942 4.51515,8.64439 7.14116,12.7467 1.45519,2.02715 2.5946,4.22955 3.44381,6.56908 0.58691,1.93249 0.78182,3.95521 0.99013,5.95574 0.27687,2.81512 0.31751,5.6471 0.38067,8.47307 -0.003,1.67284 0.10099,3.34748 0.0779,5.02034 -0.002,0.14271 0.008,0.55562 -0.0485,0.42481 -0.17332,-0.39757 0.14231,-1.12327 -0.19863,-0.13188 -1.53962,4.25547 -2.58818,8.64778 -3.47008,13.07924 -0.68343,4.27779 -1.26124,8.57653 -1.79266,12.87677 -0.36118,1.88433 -0.8414,3.65394 -1.61818,5.40005 -1.04946,2.59285 -2.45169,5.05922 -4.10625,7.31473 -1.9508,2.98742 -4.06808,5.85788 -6.12275,8.77216 -2.22543,2.99925 -4.03719,6.254 -5.87208,9.49494 -0.80919,1.81822 -1.7537,3.42607 -3.00224,4.94275 -1.62528,1.73954 -3.20504,3.52579 -4.72693,5.36201 -1.70552,2.33368 -3.33696,4.72265 -4.94139,7.12512 -1.54109,2.1586 -2.9464,4.41647 -4.3843,6.64648 -0.45847,0.53652 -0.11894,0.1266 -0.93089,1.29509 -1.63878,2.35835 -2.93835,4.65632 -3.93911,6.87368 -0.007,-9.9e-4 -0.0128,-0.002 -0.0203,-0.004 -1.31244,-0.1786 -2.58919,0.0183 -3.76076,0.65136 -0.45523,0.24599 -0.71508,0.48322 -1.10113,0.79825 -0.27867,0.23453 -0.52938,0.49791 -0.77877,0.76264 -0.83518,0.50897 -1.36781,1.19409 -1.5939,1.9297 -0.18885,0.28264 -0.36795,0.57191 -0.53808,0.86566 -0.0676,0.13834 -0.13224,0.29012 -0.19446,0.44673 -0.35201,-0.14668 -0.69917,-0.30514 -1.03686,-0.48609 -0.51242,-0.31366 -0.76887,-0.45069 -1.24706,-0.82695 -1.06466,-0.8377 -1.97867,-1.85201 -2.92554,-2.81466 -1.28771,-1.37801 -2.48997,-2.83018 -3.7228,-4.2567 -4.76402,-5.51253 -9.79026,-0.45126 -5.20077,5.20741 1.13165,1.39529 2.31547,2.74953 3.53819,4.0657 1.12737,1.16179 2.24059,2.35392 3.50448,3.37183 0.91883,0.74 1.15508,0.85543 2.12975,1.47996 2.1388,1.27507 4.5494,1.92584 6.92833,2.5851 1.20354,0.30704 2.40411,0.63578 3.62215,0.88301 0.0854,0.5012 0.1879,0.99173 0.31107,1.46824 l -4.44519,0.0249 c 0.0701,-2.0799 0.0994,-3.60008 -2.06561,-1.09384 -0.30542,0.35356 -0.58383,0.72739 -0.84989,1.11021 l -31.1999,0.17503 c 0.0728,-0.0966 0.12092,-0.24195 0.11897,-0.43558 -2.3e-4,-0.0235 -9.3e-4,-0.047 -0.002,-0.0706 -8.5e-4,-0.0531 -9.4e-4,-0.10661 -0.004,-0.15967 -0.004,-0.0613 -0.008,-0.12247 -0.0207,-0.1827 -0.007,-0.0326 -0.008,-0.0387 -0.0131,-0.0934 -0.004,-0.0333 -0.007,-0.0544 -0.005,-0.0948 -2.4e-4,-0.0421 -5e-4,-0.084 -7.8e-4,-0.12611 -2.9e-4,-0.0428 -0.001,-0.0856 -0.002,-0.1284 -6.7e-4,-0.0474 -7.1e-4,-0.0949 -0.003,-0.14228 -0.004,-0.0699 -0.0109,-0.14021 -0.029,-0.20807 -0.0337,-0.11332 -0.0854,-0.2181 -0.17062,-0.30216 -0.0764,-0.0727 -0.15865,-0.1397 -0.2521,-0.18944 -0.67081,-0.35708 0.34946,0.95196 -0.32225,0.70283 -7.8e-4,-0.002 -0.002,-0.003 -0.002,-0.005 -1.3e-4,8.8e-4 8e-5,0.003 3e-5,0.005 -0.006,-0.002 -0.0122,-0.004 -0.0187,-0.007 -0.003,-10e-4 -0.011,-0.006 -0.009,-0.003 0.003,0.004 0.009,0.005 0.0128,0.008 0.005,0.004 0.0102,0.008 0.0153,0.0115 4.4e-4,0.0105 8.5e-4,0.0228 9.5e-4,0.031 0.002,0.0365 0.002,0.0723 0.003,0.10878 5e-4,0.041 3.5e-4,0.0827 6.3e-4,0.12379 2.7e-4,0.0418 0.002,0.0831 0.002,0.12488 -0.002,0.0621 0.003,0.12463 0.0102,0.18624 0.005,0.052 0.0123,0.10256 0.0228,0.15368 0.004,0.024 0.006,0.0484 0.007,0.0727 0.002,0.0417 0.002,0.0832 0.003,0.12492 3.3e-4,0.0221 1.5e-4,0.0451 3.7e-4,0.0672 0.002,0.19188 0.0524,0.33553 0.1262,0.4307 l -17.69255,0.0994 c 0.0419,-0.0671 0.0685,-0.1606 0.0678,-0.28151 l -1.4e-4,-0.0208 c -2.3e-4,-0.0426 -5.5e-4,-0.0857 -7.5e-4,-0.12843 -2.7e-4,-0.0603 -9.7e-4,-0.1202 -9.7e-4,-0.18048 5e-5,-0.0472 -8e-5,-0.0951 0.003,-0.14226 2.2e-4,-0.005 9.6e-4,-0.01 9.7e-4,-0.015 0.005,-0.0301 0.009,-0.0602 0.0134,-0.0903 0.01,-0.0314 0.0205,-0.0625 0.0261,-0.095 0.009,-0.0473 0.02,-0.0942 0.0235,-0.14241 0.004,-0.0419 0.005,-0.084 0.004,-0.12614 l -5.6e-4,-0.10523 -1.7e-4,-0.0347 c 2e-4,-0.008 -4e-5,-0.0153 -1.2e-4,-0.023 l -4.1e-4,-0.0625 c -6e-5,-0.0108 -0.007,-0.0139 -0.007,-0.0243 l -5e-5,-9.4e-4 c -0.003,-0.0162 -0.009,-0.0279 -0.013,-0.0427 0.007,-0.015 0.0137,-0.0297 0.0216,-0.0442 0.005,-0.01 0.009,-0.0202 0.0148,-0.0301 0.003,-0.006 0.007,-0.0118 0.0103,-0.0175 -0.003,0.003 -0.005,0.006 -0.008,0.008 -0.0195,0.0119 -0.0368,0.0218 -0.0532,0.0292 -0.002,-0.006 -0.003,-0.014 -0.006,-0.0196 -0.0323,-0.11634 -0.0968,-0.17741 -0.16782,-0.21193 0.007,-0.19029 0.0383,-0.38742 -0.16302,-0.18423 -0.0467,0.0472 -0.0774,0.10738 -0.10892,0.16493 -0.0293,0.0523 -0.0512,0.10774 -0.0755,0.16238 -0.0272,0.0517 -0.0478,0.10538 -0.0649,0.16115 -0.0149,0.0511 -0.0218,0.10457 -0.0257,0.15751 -0.002,0.0358 -0.003,0.0717 -0.003,0.10764 -1.9e-4,0.007 5e-5,0.0131 1e-4,0.0197 l -9.9e-4,9.9e-4 c -6.4e-4,0.004 -6.4e-4,0.007 -9.3e-4,0.0104 -7.4e-4,0.005 -0.001,0.0108 -0.002,0.0161 -0.003,0.0203 -0.01,0.0552 -0.0143,0.0916 8e-5,-0.002 6.8e-4,-0.006 -1.2e-4,-0.005 -0.008,0.0161 -0.0145,0.0771 -0.0168,0.0961 -0.003,0.0277 -0.007,0.0553 -0.0122,0.0834 -0.009,0.0482 -0.0139,0.097 -0.0178,0.14585 -0.006,0.0447 -0.01,0.0892 -0.0131,0.13422 -0.003,0.0338 -0.002,0.0683 -0.006,0.10183 -0.002,0.0192 -0.005,0.0387 -0.007,0.0579 -0.0232,0.23624 0.0681,0.37915 0.18287,0.42013 0.004,0.0216 0.006,0.0467 0.0154,0.0612 z m 49.36784,-1.67099 c -0.007,-0.005 -0.0123,-0.0114 -0.0173,-0.0184 0.007,0.006 0.0127,0.0115 0.0173,0.0184 z m 71.96373,0.99019 c 0.7233,-0.89843 1.4439,-1.82013 2.1462,-2.84056 0.82553,-1.19932 0.29332,-0.43037 1.60436,-2.30425 1.41962,-2.22235 2.8299,-4.4527 4.35677,-6.60346 0.78205,-1.12505 1.91664,-2.68137 2.64203,-3.96206 1.49989,-2.0146 3.45886,-3.64342 4.96469,-5.65718 2.37433,-3.01325 4.54745,-6.16076 6.17098,-9.64932 1.10958,-1.9879 2.22477,-3.96974 3.54312,-5.82966 l 0.20594,36.70265 z M 123.50777,110.28772 123.28675,70.903573 c 0.0122,-0.0018 0.0236,-0.0042 0.0359,-0.006 3.80356,-0.626969 7.67116,-0.537092 11.51229,-0.54822 4.41543,-0.01275 8.26099,-0.596094 11.55044,-1.596498 l 21.20695,-0.118937 c -0.42284,0.289449 -0.83237,0.608763 -1.12238,0.773297 -4.48045,2.541984 -9.16533,4.778424 -13.01219,8.29942 -4.91926,4.530994 -9.45933,9.455958 -14.23798,14.134773 -5.52069,5.898348 -10.71835,12.094582 -15.71204,18.446352 z m 212.4172,-13.886127 c -1.14416,-1.927324 -2.36417,-3.811961 -3.75537,-5.596601 -4.70502,-5.83958 -9.89318,-11.273796 -16.48738,-15.013882 -5.27191,-2.960659 -10.70661,-5.609776 -16.2994,-7.896652 l 36.38103,-0.204128 z" />
    </clipPath>
    <clipPath
       clipPathUnits="userSpaceOnUse"
       id="clipPath11036-5">
      <path
         id="path11038-3"
         style="fill:#ff0000;fill-opacity:1;fill-rule:nonzero;stroke:none;stroke-width:0.664254"
         d="m 110.14835,149.56872 h 2.46865 v 0.75039 h -2.46865 z" />
    </clipPath>
    <inkscape:path-effect
       effect="spiro"
       id="path-effect6902-5"
       is_visible="true"
       lpeversion="1" />
    <clipPath
       id="p8a05e97d8d">
      <rect
         x="57.599998"
         y="41.472"
         width="357.12"
         height="266.112"
         id="rect373" />
    </clipPath>
    <clipPath
       id="clipPath1909">
      <rect
         x="57.599998"
         y="41.472"
         width="357.12"
         height="266.112"
         id="rect1907" />
    </clipPath>
    <clipPath
       id="clipPath1913">
      <rect
         x="57.599998"
         y="41.472"
         width="357.12"
         height="266.112"
         id="rect1911" />
    </clipPath>
    <clipPath
       id="clipPath1917">
      <rect
         x="57.599998"
         y="41.472"
         width="357.12"
         height="266.112"
         id="rect1915" />
    </clipPath>
    <clipPath
       id="clipPath1921">
      <rect
         x="57.599998"
         y="41.472"
         width="357.12"
         height="266.112"
         id="rect1919" />
    </clipPath>
    <clipPath
       id="clipPath1925">
      <rect
         x="57.599998"
         y="41.472"
         width="357.12"
         height="266.112"
         id="rect1923" />
    </clipPath>
    <clipPath
       id="clipPath1929">
      <rect
         x="57.599998"
         y="41.472"
         width="357.12"
         height="266.112"
         id="rect1927" />
    </clipPath>
    <clipPath
       id="clipPath1933">
      <rect
         x="57.599998"
         y="41.472"
         width="357.12"
         height="266.112"
         id="rect1931" />
    </clipPath>
    <clipPath
       id="clipPath1937">
      <rect
         x="57.599998"
         y="41.472"
         width="357.12"
         height="266.112"
         id="rect1935" />
    </clipPath>
    <clipPath
       id="clipPath1941">
      <rect
         x="57.599998"
         y="41.472"
         width="357.12"
         height="266.112"
         id="rect1939" />
    </clipPath>
    <clipPath
       id="clipPath1945">
      <rect
         x="57.599998"
         y="41.472"
         width="357.12"
         height="266.112"
         id="rect1943" />
    </clipPath>
    <clipPath
       id="clipPath1949">
      <rect
         x="57.599998"
         y="41.472"
         width="357.12"
         height="266.112"
         id="rect1947" />
    </clipPath>
    <clipPath
       id="clipPath1953">
      <rect
         x="57.599998"
         y="41.472"
         width="357.12"
         height="266.112"
         id="rect1951" />
    </clipPath>
    <clipPath
       id="clipPath1957">
      <rect
         x="57.599998"
         y="41.472"
         width="357.12"
         height="266.112"
         id="rect1955" />
    </clipPath>
    <clipPath
       id="clipPath1961">
      <rect
         x="57.599998"
         y="41.472"
         width="357.12"
         height="266.112"
         id="rect1959" />
    </clipPath>
    <clipPath
       id="clipPath1965">
      <rect
         x="57.599998"
         y="41.472"
         width="357.12"
         height="266.112"
         id="rect1963" />
    </clipPath>
    <clipPath
       id="clipPath1969">
      <rect
         x="57.599998"
         y="41.472"
         width="357.12"
         height="266.112"
         id="rect1967" />
    </clipPath>
    <clipPath
       id="clipPath1973">
      <rect
         x="57.599998"
         y="41.472"
         width="357.12"
         height="266.112"
         id="rect1971" />
    </clipPath>
    <clipPath
       id="clipPath1977">
      <rect
         x="57.599998"
         y="41.472"
         width="357.12"
         height="266.112"
         id="rect1975" />
    </clipPath>
    <clipPath
       id="clipPath1981">
      <rect
         x="57.599998"
         y="41.472"
         width="357.12"
         height="266.112"
         id="rect1979" />
    </clipPath>
    <clipPath
       id="clipPath1985">
      <rect
         x="57.599998"
         y="41.472"
         width="357.12"
         height="266.112"
         id="rect1983" />
    </clipPath>
    <clipPath
       id="clipPath1989">
      <rect
         x="57.599998"
         y="41.472"
         width="357.12"
         height="266.112"
         id="rect1987" />
    </clipPath>
    <clipPath
       id="clipPath1993">
      <rect
         x="57.599998"
         y="41.472"
         width="357.12"
         height="266.112"
         id="rect1991" />
    </clipPath>
    <clipPath
       id="clipPath1997">
      <rect
         x="57.599998"
         y="41.472"
         width="357.12"
         height="266.112"
         id="rect1995" />
    </clipPath>
    <clipPath
       id="clipPath2001">
      <rect
         x="57.599998"
         y="41.472"
         width="357.12"
         height="266.112"
         id="rect1999" />
    </clipPath>
    <clipPath
       id="clipPath2005">
      <rect
         x="57.599998"
         y="41.472"
         width="357.12"
         height="266.112"
         id="rect2003" />
    </clipPath>
    <clipPath
       id="clipPath2009">
      <rect
         x="57.599998"
         y="41.472"
         width="357.12"
         height="266.112"
         id="rect2007" />
    </clipPath>
    <clipPath
       id="clipPath2013">
      <rect
         x="57.599998"
         y="41.472"
         width="357.12"
         height="266.112"
         id="rect2011" />
    </clipPath>
    <clipPath
       id="clipPath2017">
      <rect
         x="57.599998"
         y="41.472"
         width="357.12"
         height="266.112"
         id="rect2015" />
    </clipPath>
    <clipPath
       id="clipPath2021">
      <rect
         x="57.599998"
         y="41.472"
         width="357.12"
         height="266.112"
         id="rect2019" />
    </clipPath>
    <clipPath
       id="clipPath2025">
      <rect
         x="57.599998"
         y="41.472"
         width="357.12"
         height="266.112"
         id="rect2023" />
    </clipPath>
    <clipPath
       id="clipPath2029">
      <rect
         x="57.599998"
         y="41.472"
         width="357.12"
         height="266.112"
         id="rect2027" />
    </clipPath>
    <clipPath
       id="clipPath2033">
      <rect
         x="57.599998"
         y="41.472"
         width="357.12"
         height="266.112"
         id="rect2031" />
    </clipPath>
    <clipPath
       id="clipPath2037">
      <rect
         x="57.599998"
         y="41.472"
         width="357.12"
         height="266.112"
         id="rect2035" />
    </clipPath>
    <clipPath
       id="clipPath2041">
      <rect
         x="57.599998"
         y="41.472"
         width="357.12"
         height="266.112"
         id="rect2039" />
    </clipPath>
    <clipPath
       id="clipPath2045">
      <rect
         x="57.599998"
         y="41.472"
         width="357.12"
         height="266.112"
         id="rect2043" />
    </clipPath>
    <clipPath
       id="clipPath2049">
      <rect
         x="57.599998"
         y="41.472"
         width="357.12"
         height="266.112"
         id="rect2047" />
    </clipPath>
    <clipPath
       id="clipPath2053">
      <rect
         x="57.599998"
         y="41.472"
         width="357.12"
         height="266.112"
         id="rect2051" />
    </clipPath>
    <clipPath
       id="clipPath2057">
      <rect
         x="57.599998"
         y="41.472"
         width="357.12"
         height="266.112"
         id="rect2055" />
    </clipPath>
    <clipPath
       id="clipPath2061">
      <rect
         x="57.599998"
         y="41.472"
         width="357.12"
         height="266.112"
         id="rect2059" />
    </clipPath>
    <clipPath
       id="clipPath2065">
      <rect
         x="57.599998"
         y="41.472"
         width="357.12"
         height="266.112"
         id="rect2063" />
    </clipPath>
    <clipPath
       id="clipPath2069">
      <rect
         x="57.599998"
         y="41.472"
         width="357.12"
         height="266.112"
         id="rect2067" />
    </clipPath>
    <clipPath
       id="clipPath2073">
      <rect
         x="57.599998"
         y="41.472"
         width="357.12"
         height="266.112"
         id="rect2071" />
    </clipPath>
    <clipPath
       id="clipPath2077">
      <rect
         x="57.599998"
         y="41.472"
         width="357.12"
         height="266.112"
         id="rect2075" />
    </clipPath>
    <clipPath
       id="clipPath2081">
      <rect
         x="57.599998"
         y="41.472"
         width="357.12"
         height="266.112"
         id="rect2079" />
    </clipPath>
    <clipPath
       id="clipPath2085">
      <rect
         x="57.599998"
         y="41.472"
         width="357.12"
         height="266.112"
         id="rect2083" />
    </clipPath>
    <clipPath
       id="clipPath2089">
      <rect
         x="57.599998"
         y="41.472"
         width="357.12"
         height="266.112"
         id="rect2087" />
    </clipPath>
  </defs>
  <defs
     id="defs37" />
  <text
     xml:space="preserve"
     style="font-style:normal;font-variant:normal;font-weight:normal;font-stretch:normal;font-size:539.405px;font-family:sans-serif;-inkscape-font-specification:'sans-serif, Normal';font-variant-ligatures:normal;font-variant-caps:normal;font-variant-numeric:normal;font-variant-east-asian:normal;text-align:center;text-anchor:middle;fill:#ff0000;fill-opacity:1;fill-rule:evenodd;stroke:none;stroke-width:57.3384;stroke-linecap:butt;stroke-linejoin:round;stroke-dasharray:none;stroke-opacity:1;paint-order:stroke markers fill"
     x="151.92879"
     y="620.7182"
     id="text13655"><tspan
       sodipodi:role="line"
       id="tspan13653"
       style="font-style:normal;font-variant:normal;font-weight:normal;font-stretch:normal;font-size:67.4257px;font-family:sans-serif;-inkscape-font-specification:'sans-serif, Normal';font-variant-ligatures:normal;font-variant-caps:normal;font-variant-numeric:normal;font-variant-east-asian:normal;fill:#000000;stroke:none;stroke-width:57.3384"
       x="151.92879"
       y="620.7182" /></text>
  <g
     id="g3536-7"
     style="display:inline;stroke-linecap:butt;stroke-linejoin:round"
     transform="translate(4.8787,414.21444)">
    <g
       id="g7918"
       transform="matrix(1.183496,0,0,1.1831971,-145.31203,14.51239)"
       style="stroke-width:0.845061">
      <path
         style="fill:none;stroke:#075295;stroke-width:4.2253;stroke-dasharray:none;stroke-opacity:1"
         d="m 345.51885,609.3483 c -1.95426,-1.66783 -4.46169,-4.46724 -5.57207,-6.22095 l -2.01885,-3.18855 V 404.4821 209.02535 l -6.46463,-0.0111 c -3.55554,-0.008 -7.30919,-0.23693 -8.34145,-0.51283 l -1.87683,-0.50147 V 399.7348 591.4697 l 4.37926,0.4812 c 2.4086,0.26481 6.06841,0.62473 8.1329,0.8002 2.06453,0.17563 0.0863,0.24911 -4.39648,0.16306 l -8.15013,-0.15598 -0.96826,3.36583 c -1.39608,4.85283 -3.58057,7.634 -9.28461,11.82054 -5.32881,3.91118 -5.32889,3.91118 -13.99618,2.27154 -3.1977,-0.60497 -4.33625,-3.78648 -4.86247,-13.58709 l -0.46612,-8.68245 -5.63872,-1.41577 -5.63866,-1.41574 -3.2255,3.65344 c -3.18326,3.60558 -10.52366,7.56558 -19.02168,10.26172 -3.18609,1.01088 -3.90561,0.94295 -8.13291,-0.76766 l -4.63754,-1.87666 v -12.37829 c 0,-6.80809 -0.19467,-12.37834 -0.43243,-12.37834 -0.23763,0 -2.20852,0.92205 -4.37926,2.04896 -2.29368,1.19075 -7.26603,2.58275 -11.87122,3.32332 -11.68797,1.87956 -13.79392,1.72597 -17.6055,-1.28384 l -3.24807,-2.56488 v -10.619 -10.61903 l -7.03823,-0.53938 c -8.99233,-0.68911 -10.88235,-1.43615 -12.04474,-4.76064 -0.52929,-1.5138 -0.93649,-8.02752 -0.93649,-14.98019 0,-7.30404 -0.33892,-12.51054 -0.83416,-12.81572 -1.09705,-0.676 -1.15872,-386.17856 -0.0623,-389.05392 0.67353,-1.76625 1.63032,-2.1632 7.50729,-3.11479 l 6.73537,-1.09052 V 114.6445 103.73008 l 2.86551,-2.76908 2.86549,-2.769112 8.60399,0.59447 c 9.47631,0.65471 16.38262,1.865312 17.98812,3.153062 0.8245,0.66135 1.04267,-1.61823 1.04267,-10.894692 v -11.73109 l 4.26331,-2.15397 c 3.99124,-2.0165 4.5369,-2.0895 8.55001,-1.1442 7.83207,1.84496 16.58498,5.67563 20.51183,8.97695 l 3.87865,3.2608 4.2692,-1.36509 4.26919,-1.36505 0.27624,-10.56445 c 0.15882,-6.07161 0.65911,-10.94508 1.17635,-11.45935 0.49493,-0.49217 3.12248,-1.30313 5.83898,-1.80209 4.90484,-0.90095 4.97559,-0.88547 10.20117,2.22925 6.44895,3.84397 9.23563,6.70212 11.08122,11.3656 1.5694,3.96561 0.71911,3.76928 11.80907,2.72704 l 5.63048,-0.52917 v -3.28716 c 0,-4.42276 1.5863,-7.85763 5.8303,-12.6243 l 3.54779,-3.98478 5.936,0.24243 5.93597,0.24243 3.19323,4.6372 c 2.66108,3.86447 3.2883,5.59642 3.76393,10.39342 l 0.57075,5.75617 5.00487,0.60552 c 2.75267,0.33319 5.82538,0.80304 6.82829,1.0444 1.50126,0.36148 2.20588,-0.26168 3.98856,-3.52739 2.21305,-4.05397 5.87713,-6.97102 14.36301,-11.43472 4.45122,-2.34139 4.44306,-2.34115 12.12537,-0.33358 l 3.1053,0.81152 0.23134,11.68932 0.23132,11.68928 2.62626,1.09984 c 2.47153,1.035 2.88106,0.92872 6.95081,-1.80381 4.86043,-3.26348 10.2197,-5.28285 19.45946,-7.33238 l 6.29446,-1.3962 3.81371,2.2283 3.81375,2.22836 v 11.10919 11.109222 l 4.37926,-0.58457 c 2.40856,-0.3214 8.03115,-0.58458 12.49463,-0.58458 7.75391,0 8.21838,0.10258 10.42683,2.30273 2.2601,2.25163 2.32063,2.56457 2.72847,14.10247 l 0.41706,11.79976 4.79805,1.16542 4.7981,1.16536 -0.21044,195.52693 -0.21044,195.52691 -2.71096,0.77518 -2.71097,0.77516 v 11.77982 c 0,9.50627 -0.25458,12.09143 -1.31932,13.3942 -1.29977,1.59046 -1.30902,1.58974 -0.62561,-0.0491 0.38148,-0.91481 0.77517,-87.74017 0.87467,-192.94523 0.15764,-166.53149 0.0275,-191.01284 -1.01606,-189.20271 -1.03033,1.7896 -1.19927,28.77287 -1.21308,193.76229 -0.0157,182.29942 -0.0879,191.71151 -1.48636,192.263 -0.80866,0.31904 -5.68229,0.60618 -10.83025,0.63833 l -9.35989,0.0585 -0.23289,10.98158 -0.23291,10.98156 -3.33659,2.28109 -3.33659,2.28108 -6.82058,-1.12683 c -10.04496,-1.65958 -15.84755,-3.54928 -20.50886,-6.67901 -2.28411,-1.53364 -4.67053,-2.59037 -5.30314,-2.34834 -0.90837,0.34732 -1.15026,3.12183 -1.15026,13.19271 0,7.014 -0.28139,12.92252 -0.62561,13.13004 -0.34404,0.20746 -2.5333,0.93934 -4.86488,1.62615 -4.16134,1.2258 -4.35298,1.20218 -10.4268,-1.28514 -3.40315,-1.39365 -7.80113,-3.69386 -9.77335,-5.11161 l -3.58582,-2.57769 0.0236,-192.11354 c 0.0236,-189.54309 0.003,-192.1414 -1.60903,-194.19271 -1.62441,-2.06646 -1.63451,-0.91378 -1.65296,188.83585 -0.0157,166.59646 0.1375,191.12066 1.20618,192.5294 0.67357,0.88789 1.22827,1.9886 1.23265,2.44602 0.004,0.45739 -0.66895,-0.0456 -1.4963,-1.11818 -1.48226,-1.92137 -1.59627,-1.93445 -7.79651,-0.89571 l -6.29225,1.05413 -0.44363,6.4532 c -0.60735,8.83463 -3.56725,14.46418 -7.98811,15.1931 -6.64717,1.09595 -8.84471,0.65639 -12.55682,-2.51156 z m -0.91601,-385.06906 c -2.75365,-2.54178 -5.00521,-5.23608 -5.00352,-5.98729 0.001,-0.84774 0.59376,-0.40014 1.5603,1.18011 0.85641,1.40021 3.20105,3.9585 5.21026,5.68502 3.58056,3.0768 3.75195,3.12824 8.62901,2.59042 2.73671,-0.30176 5.22686,-0.70339 5.53361,-0.89237 1.21445,-0.74839 4.14754,-8.10064 4.22923,-10.60144 0.0477,-1.45981 -0.53252,-4.11511 -1.2894,-5.9006 -0.75688,-1.78555 -1.25308,-3.36914 -1.10265,-3.51908 0.15055,-0.15008 3.06439,-0.80769 6.47554,-1.46161 3.41115,-0.65392 7.2067,-1.44304 8.43455,-1.7536 1.94445,-0.49177 2.51362,-0.14106 4.41216,2.71936 2.82681,4.25888 7.74926,7.68529 15.16234,10.55417 5.92974,2.29483 5.97849,2.29907 10.21824,0.89505 3.74398,-1.23982 4.26012,-1.68697 4.26012,-3.69077 0,-1.25398 -0.605,-4.0502 -1.34441,-6.21379 -1.04976,-3.07165 -2.34681,-4.6884 -5.91828,-7.37686 l -4.57385,-3.443 7.23762,-3.62601 7.23759,-3.62601 3.89406,2.45962 c 4.9476,3.12509 9.94652,4.77743 19.62707,6.48757 l 7.70796,1.36168 3.48761,-2.30108 3.4876,-2.30112 -1.68017,-2.35259 c -3.86432,-5.41074 -10.42963,-9.7863 -18.61965,-12.40937 l -3.2299,-1.03446 4.92436,-4.90969 4.92438,-4.90972 4.91643,1.68648 c 5.7383,1.96837 18.5807,2.93108 25.84821,1.93769 4.35222,-0.59495 5.14544,-0.99701 6.48732,-3.28843 l 1.52885,-2.61058 -3.62222,-2.11645 c -5.69675,-3.32859 -12.07304,-5.48346 -20.10529,-6.7946 -4.07892,-0.66579 -7.51565,-1.31377 -7.6371,-1.43994 -0.12137,-0.12613 0.40054,-2.5991 1.1601,-5.4954 l 1.38095,-5.26606 6.27901,0.55415 c 6.88615,0.60776 13.82876,-0.33082 22.70767,-3.0705 5.46791,-1.68705 5.63047,-1.81679 5.63047,-4.49313 0,-2.47294 -0.32117,-2.84672 -3.12804,-3.64032 -10.97461,-3.10294 -21.60955,-3.80423 -30.88771,-2.03682 -2.12419,0.40466 -2.39425,0.10562 -4.21744,-4.6675 -1.07136,-2.8049 -1.75628,-5.29088 -1.52207,-5.52438 0.23408,-0.2334 3.61406,-1.13289 7.51081,-1.99855 8.19339,-1.82023 10.19931,-2.6059 16.20339,-6.34636 2.41746,-1.50607 4.66965,-2.73714 5.00486,-2.73568 1.40357,0.004 -9.15351,6.36675 -13.0677,7.87329 l -4.25702,1.63848 v 4.68234 4.68236 l 7.29879,0.53947 c 4.01429,0.29664 8.14331,0.77065 9.17558,1.05319 1.87304,0.51268 1.87682,0.49291 1.87682,-9.7841 0,-11.40928 -1.2695,-15.54981 -5.09515,-16.61807 -5.66436,-1.58169 -21.41188,-0.17837 -29.62967,2.64072 l -4.70087,1.61255 -5.31151,-4.29664 c -2.92129,-2.36312 -5.31145,-4.38311 -5.31145,-4.48884 0,-0.10562 2.53373,-1.37169 5.63047,-2.813322 5.94956,-2.76962 10.07471,-6.1828 12.83437,-10.61915 1.96412,-3.15755 1.66361,-3.86784 -2.54129,-6.00665 -2.97944,-1.51547 -3.47669,-1.53381 -9.2558,-0.34105 -7.97016,1.64468 -13.5896,3.78267 -19.18082,7.29753 -4.43782,2.78977 -4.60574,2.82541 -7.48278,1.58833 -1.6187,-0.696 -4.63227,-1.83882 -6.69675,-2.53961 -5.30512,-1.80083 -5.48301,-2.20242 -2.17847,-4.91818 3.64595,-2.99638 5.51502,-7.29548 5.51502,-12.68538 0,-3.21701 -0.32237,-4.22226 -1.45973,-4.55136 -8.24601,-2.38591 -8.1889,-2.3885 -14.15242,0.63726 -6.79495,3.44755 -10.31782,6.56546 -12.71775,11.25566 -1.57361,3.07538 -2.06303,3.44551 -4.03886,3.05456 -1.23651,-0.24478 -5.22558,-0.83701 -8.86459,-1.31625 -3.63898,-0.47927 -6.75145,-1.00607 -6.91657,-1.17072 -0.16512,-0.16462 0.3129,-1.82714 1.06226,-3.69445 1.62027,-4.03739 0.80046,-7.51386 -3.12166,-13.23782 l -2.42193,-3.53454 h -5.73392 c -5.7113,0 -5.74597,0.0157 -8.78388,3.53454 -3.85871,4.47184 -5.65593,8.64054 -5.14008,11.92256 0.57169,3.63713 -0.15646,4.3327 -5.09341,4.86442 -2.39998,0.25854 -6.20616,0.66547 -8.4582,0.90441 l -4.09465,0.4344 -1.46866,-3.96899 c -1.93082,-5.21777 -3.0335,-6.43638 -9.8006,-10.83057 l -5.69517,-3.69816 -5.29798,0.9967 c -5.22848,0.98361 -5.30374,1.03657 -5.7342,4.03241 -0.24,1.66962 -0.38581,6.59103 -0.32433,10.93645 0.0847,5.99464 -0.41525,8.18967 -0.4313,5.02867 l -0.0354,-6.80026 c -0.008,-1.40701 4.213,4.65513 4.213,4.65513 1.47837,1.79371 2.60281,3.34614 2.4988,3.44982 -0.10399,0.10368 -3.7373,1.32619 -8.07394,2.71666 l -7.88487,2.52807 -2.84084,-2.25448 c -6.38908,-5.07036 -12.04383,-7.7278 -21.5727,-10.13811 -3.01151,-0.76177 -4.0005,-0.63419 -7.23712,0.9336 -2.14071,1.03693 -3.94942,2.5604 -4.21627,3.55131 -0.25694,0.95446 -0.47245,6.1278 -0.47872,11.49625 l -0.0111,9.760842 2.99495,1.24764 c 4.7184,1.96562 6.18062,0.69478 6.18062,-5.371552 0,-3.24042 -0.38344,-5.14639 -1.12343,-5.58444 -1.88516,-1.11606 -7.22009,-8.60383 -7.18536,-10.08495 0.0197,-0.76547 0.53662,-0.23771 1.15258,1.1728 1.62409,3.71886 6.90797,8.728 12.03737,11.41133 l 4.4589,2.3326 -6.07622,4.173372 -6.07619,4.17338 -4.64136,-1.78161 c -7.94579,-3.05001 -12.22512,-3.97802 -21.13578,-4.583582 l -8.61885,-0.58571 -2.66649,3.027962 -2.66653,3.02793 0.001,10.15889 9.9e-4,10.15894 h 8.34087 8.34086 l -3.9e-4,-5.10772 c -4.3e-4,-4.84391 -0.1158,-5.13659 -2.23233,-5.66623 -2.7288,-0.68285 -10.24905,-5.5776 -12.43424,-8.09318 -0.88438,-1.01802 0.0788,-0.54684 2.15398,1.05379 6.41119,4.94513 11.58555,7.17761 21.85706,9.43016 l 2.25468,0.49444 -2.99449,5.01189 -2.99444,5.01185 -3.84803,-0.65169 c -5.50961,-0.93308 -22.23552,-0.45118 -27.55305,0.79385 -3.802,0.89017 -4.64531,1.43372 -5.31024,3.4226 -1.0777,3.22356 -0.004,4.07251 8.57878,6.78119 5.08241,1.60407 9.62947,2.36552 16.05726,2.68901 l 8.96706,0.4513 0.0125,3.41678 c 0.008,1.87922 0.227,4.21754 0.49029,5.19628 0.44822,1.66551 0.0867,1.81639 -5.64186,2.35554 -8.86776,0.83454 -15.36361,2.46151 -21.76096,5.4503 -3.09679,1.44677 -5.63048,2.80094 -5.63048,3.00925 0,0.20825 0.54652,1.43244 1.21445,2.7203 1.35707,2.61641 2.84856,3.01094 14.66552,3.87932 4.93581,0.36264 9.40878,0.10534 14.87141,-0.85553 4.29686,-0.7558 8.05008,-1.13733 8.34051,-0.84774 0.29045,0.28957 0.40004,2.7427 0.24356,5.45143 -0.22109,3.8275 -0.0355,4.84931 0.83506,4.58554 4.51076,-1.36729 4.39333,-1.12648 2.04581,-4.19503 -1.19755,-1.56543 -2.1774,-3.12068 -2.1774,-3.45612 0,-0.76004 5.75654,5.68291 5.8043,6.49642 0.0197,0.32533 -1.56057,0.99722 -3.51037,1.49287 -1.94985,0.49566 -5.7247,1.81843 -8.3886,2.93948 -5.86712,2.46905 -5.71303,1.50567 0.20099,-1.25602 l 4.22548,-1.97319 v -4.9139 -4.91389 l -2.50243,0.48191 c -1.37634,0.26521 -3.62853,0.69879 -5.00487,0.96384 l -2.50243,0.4819 v 6.95731 6.95727 l -3.9622,3.79602 -3.9622,3.79603 2.75044,2.51061 c 2.53207,2.31126 3.09498,2.4716 7.09024,2.01961 11.99307,-1.35684 16.58655,-2.37272 22.84583,-5.05248 l 6.82806,-2.92326 6.30475,3.67964 6.3047,3.6797 -4.57172,3.02642 c -5.29625,3.50602 -8.72404,8.19584 -9.3407,12.77973 l -0.43333,3.22132 4.50504,1.52677 c 4.4757,1.51679 4.54017,1.51443 9.88887,-0.3607 7.91056,-2.77331 11.42425,-4.72701 15.74027,-8.75211 l 3.86339,-3.60303 7.85158,2.03323 c 4.31837,1.1183 7.99639,2.17763 8.17342,2.35412 0.17694,0.17643 -0.64371,1.84578 -1.82374,3.7096 -2.50626,3.95832 -2.78507,8.44788 -0.8275,13.32575 1.2998,3.23887 1.39234,3.29234 6.67153,3.85602 6.23022,0.66523 7.66528,0.008 13.82161,-6.31286 2.73401,-2.80789 4.03725,-4.92681 4.42021,-7.18696 0.87427,-5.1593 0.82394,-5.13746 10.67971,-4.63595 l 8.9668,0.45629 v 195.62054 195.62052 l 2.19114,3.21923 c 1.20515,1.77056 3.55116,4.46126 5.21342,5.97927 l 3.02223,2.76004 0.21044,-191.36573 0.21044,-191.36571 z m 11.97688,386.74089 3.87011,-0.52889 V 419.21845 227.94564 l -2.60672,0.51979 c -1.43367,0.28603 -3.68586,0.51977 -5.00486,0.51977 h -2.39815 v 191.28191 c 0,160.75199 0.18127,191.28189 1.13475,191.28189 0.62416,0 2.87635,-0.23811 5.00487,-0.52887 z M 305.39631,419.01962 V 227.3219 l -1.87683,-0.008 c -1.03226,-0.004 -3.28445,-0.24124 -5.00486,-0.52465 l -3.12804,-0.51549 v 191.37487 191.37486 l 1.87682,0.41154 c 1.03223,0.22632 3.00292,0.55165 4.37926,0.72288 1.37634,0.17131 2.78393,0.36737 3.12804,0.43597 0.34403,0.0683 0.62561,-86.13936 0.62561,-191.57309 z m 4.87158,188.66302 c 1.67904,-1.21171 4.2727,-3.6848 5.76376,-5.49577 l 2.71094,-3.29265 V 407.72087 216.54747 l -3.43772,3.71838 c -1.89077,2.04511 -4.70599,4.4999 -6.25608,5.45506 l -2.81837,1.73662 v 191.2141 c 0,105.16773 0.22148,191.21405 0.49233,191.21405 0.27074,0 1.86611,-0.99139 3.54514,-2.20304 z m 54.97325,-196.56382 0.20335,-190.86605 -2.08037,3.61945 -2.08033,3.61946 0.0702,190.98907 0.0702,190.98908 1.80652,-3.74247 1.80657,-3.74247 z M 293.72007,223.66438 c -0.98289,-0.97996 -1.18059,377.90842 -0.19901,381.23133 0.33773,1.14354 0.70888,-83.97819 0.82455,-189.15936 0.13949,-126.9365 -0.0705,-191.51879 -0.62561,-192.07197 z M 402.15702,411.24361 V 220.08645 l -5.63047,-2.35078 c -3.09675,-1.2929 -7.22576,-3.42539 -9.17557,-4.73885 l -3.54514,-2.38804 V 402.17072 593.7327 l 4.37929,2.63026 c 4.80566,2.88636 11.29409,5.8869 12.92922,5.97904 0.83129,0.0467 1.04267,-38.69582 1.04267,-191.09839 z m 6.88169,189.78563 2.29392,-0.49974 V 408.88666 c 0,-105.4036 -0.28138,-191.47156 -0.6256,-191.26223 -0.34405,0.20943 -2.22094,0.80724 -4.17075,1.32863 l -3.5451,0.94799 V 411.2479 602.59472 l 1.87682,-0.53283 c 1.03227,-0.29311 2.9091,-0.75776 4.17071,-1.03265 z M 254.5135,407.48724 V 215.90039 l -4.17253,-1.72885 -4.17247,-1.72884 0.21044,191.75242 0.21044,191.75241 3.75365,1.5168 c 2.06452,0.83427 3.84747,1.53774 3.9622,1.56331 0.11469,0.0236 0.20846,-86.16761 0.20846,-191.5404 z m 14.00436,186.41901 5.59804,-2.73293 0.21044,-191.4564 0.21044,-191.45636 -3.96398,1.96148 c -2.18019,1.07886 -6.49769,2.81901 -9.59444,3.86707 l -5.63047,1.90553 v 191.45833 191.45834 l 3.78611,-1.13606 c 2.08235,-0.62486 6.30523,-2.36588 9.38412,-3.869 z m 51.68445,-285.7054 c -0.11859,-52.48815 -0.21557,-9.54327 -0.21557,95.43303 0,104.97636 0.0969,147.92123 0.21557,95.43304 0.11859,-52.48817 0.11859,-138.37786 0,-190.86607 z m -39.83033,85.14192 V 202.06086 l -2.50243,2.39035 -2.50243,2.39036 v 191.28191 191.28187 l 2.50243,-2.39035 2.50243,-2.39031 z m 93.11941,194.77598 5.30958,-0.97542 V 395.70071 204.25806 l -4.79631,1.05425 c -2.638,0.57982 -6.20474,1.29531 -7.9261,1.59 l -3.12974,0.53572 1.46147,2.66492 c 1.3785,2.51361 1.47371,13.34493 1.67714,190.82806 0.15921,138.80838 0.4621,188.16316 1.15505,188.16316 0.51666,0 3.32868,-0.43893 6.24891,-0.97542 z M 292.75204,210.68866 c 0.93469,0 2.83386,-4.23675 2.18788,-4.88081 -0.2798,-0.27896 -3.48544,-1.29283 -7.12323,-2.25259 l -6.61414,-1.74503 0.21044,191.35051 0.21044,191.35051 5.00487,1.32203 5.00486,1.32202 0.21045,-188.23332 c 0.1158,-103.52831 0.52463,-188.23332 0.9088,-188.23332 z M 445.53253,392.06868 V 200.86484 l -4.37925,-0.56488 c -4.40252,-0.56787 -14.79715,-3.03453 -17.51703,-4.1568 -1.38777,-0.57263 -1.45977,8.85101 -1.45977,191.09327 V 578.932 l 6.46463,1.70826 c 6.76119,1.78657 9.66526,2.30013 14.18044,2.50767 l 2.71098,0.12461 z m 6.4664,-3.79567 0.21044,-191.74016 -2.91094,1.88003 -2.91093,1.88004 -0.0125,191.5715 -0.0125,191.57148 2.71094,-1.71137 2.71098,-1.71136 0.21044,-191.74016 z m -219.05569,187.01541 5.7215,-1.29745 V 382.44127 190.8916 l -3.61698,1.08534 c -1.98934,0.59691 -6.21218,1.33153 -9.38413,1.63254 -3.1719,0.30097 -6.7994,0.7413 -8.06101,0.9785 l -2.29389,0.4313 v 191.33527 191.33522 l 5.95646,-0.55195 c 3.2761,-0.30373 8.53121,-1.13579 11.67805,-1.8494 z m 188.3888,-188.91148 -0.0125,-191.07398 -2.89747,-1.87124 c -1.59363,-1.02918 -3.09044,-1.87123 -3.32626,-1.87123 -0.23566,0 -0.42384,85.9833 -0.41785,191.07398 l 0.0125,191.07398 2.70003,1.81953 c 1.48501,1.00074 2.98155,1.84284 3.32562,1.87124 0.34405,0.0274 0.62097,-85.93158 0.6153,-191.02228 z M 214.47458,385.81348 V 195.00769 l -2.71099,-2.11535 -2.71094,-2.11535 -0.21044,190.58669 -0.21044,190.5867 2.2432,2.33444 c 1.23376,1.28394 2.54835,2.33444 2.92131,2.33444 0.37281,0 0.67806,-85.8626 0.67806,-190.80578 z m 199.36049,-2.97108 c 0,-105.20507 -0.13722,-191.28191 -0.30502,-191.28191 -0.1675,0 -3.04833,1.26698 -6.40146,2.81551 l -6.09668,2.81549 3.41816,2.38236 c 1.87998,1.31033 4.29146,3.87937 5.35879,5.70903 l 1.94067,3.32666 0.21596,182.75736 c 0.14187,120.05256 0.49958,182.75738 1.04266,182.75738 0.54388,0 0.82679,-65.45224 0.82679,-191.28188 z m -170.95816,188.3497 2.46101,-1.26883 V 390.85396 c 0,-156.21209 0.15842,-179.59039 1.2422,-183.15185 0.74985,-2.46448 1.24574,-7.46663 1.25121,-12.62107 l 0.008,-8.53853 -4.17074,2.10718 -4.17071,2.10714 v 190.85206 c 0,104.96865 0.20649,190.85207 0.45847,190.85207 0.25222,0 1.56597,-0.57098 2.91953,-1.26886 z m 229.13971,-14.22521 1.87683,-0.50146 V 365.48716 174.50884 l -12.51205,0.001 -12.51204,0.001 -1.3e-4,7.74835 c -1.1e-4,6.98366 0.20572,8.01738 2.08523,10.47424 l 2.08537,2.72593 v 181.01556 181.01555 l 8.54996,-0.0111 c 4.70249,-0.008 9.39457,-0.23692 10.42683,-0.51283 z M 207.80144,370.03344 V 189.22908 l 4.15777,-4.03217 4.15774,-4.03216 0.0125,-6.65331 0.0111,-6.65327 h -7.29875 c -4.01429,0 -9.64476,-0.27503 -12.51216,-0.61101 l -5.21341,-0.61098 v 191.2533 191.25332 l 1.87682,0.40673 c 3.62247,0.78512 6.08624,1.06276 10.42683,1.175 l 4.37926,0.11311 z M 189.5049,164.81673 c -0.93527,-2.32729 -1.18654,377.03533 -0.25181,380.19944 0.33773,1.14353 0.70888,-83.49511 0.82454,-188.0859 0.1297,-117.09291 -0.0906,-190.91379 -0.57273,-192.11354 z m 291.95066,361.87364 c 1.58801,-0.84731 1.61346,-3.87885 1.61346,-192.11355 0,-105.18895 -0.0938,-191.24978 -0.20847,-191.24629 -0.11469,0.003 -2.55823,0.71879 -5.43016,1.58956 -2.87189,0.87077 -7.84546,2.02448 -11.0524,2.56378 l -5.83078,0.98055 v 5.2498 5.24982 l 5.2134,2.01309 c 2.86736,1.10718 6.80868,3.01951 8.75852,4.24957 l 3.54511,2.23651 v 180.04405 c 0,126.87906 0.26245,180.04404 0.88896,180.04404 0.48895,0 1.61504,-0.3874 2.50243,-0.86093 z M 193.62096,156.88956 c 2.98206,-1.4586 7.58028,-3.12403 10.21828,-3.70098 l 4.79631,-1.04892 v -5.18044 -5.18044 l -4.79631,-0.97874 c -5.63305,-1.14951 -14.36046,-3.99811 -15.84875,-5.17298 -0.83365,-0.65814 -1.00145,37.67111 -0.837,191.18436 l 0.20572,192.00745 0.41993,-179.63864 0.41994,-179.63868 z m 62.46559,38.46951 3.65841,-2.30839 -4.38738,-2.39211 c -2.41305,-1.31566 -4.90393,-2.81953 -5.53525,-3.34191 -0.96055,-0.79482 -1.14719,0.32219 -1.14373,6.8449 l 0.004,7.79467 1.87268,-2.14438 c 1.02999,-1.17945 3.51898,-3.18321 5.53113,-4.45278 z m 191.77234,-14.32509 -0.24079,-7.19988 -4.37926,-1.4819 -4.37925,-1.48194 v 5.74961 c 0,5.43238 0.12651,5.81496 2.29585,6.93334 1.26272,0.65106 3.01006,1.97053 3.8829,2.93218 0.87291,0.96165 1.91888,1.74844 2.32443,1.74844 0.40552,0 0.62889,-3.23994 0.49632,-7.19985 z m -9.83366,-4.39496 v -4.94156 l -3.70474,3.90198 -3.70475,3.90196 2.66209,0.97631 c 4.55666,1.67117 4.7474,1.51695 4.7474,-3.83869 z m 21.52151,-27.91194 c -0.13791,-0.12419 -2.59685,-0.49184 -5.46424,-0.8169 l -5.21338,-0.59102 v 4.95559 4.95555 l 5.21338,0.7398 5.21341,0.73982 0.25063,-4.8785 c 0.13792,-2.68315 0.13792,-4.9801 0,-5.10434 z m -11.79351,5.20076 c -0.23132,-0.57176 -0.42073,-0.10409 -0.42073,1.0396 0,1.14352 0.18956,1.61133 0.42073,1.03957 0.23132,-0.57177 0.23132,-1.5074 0,-2.07917 z m -231.30974,-2.81592 3.87011,-0.52889 v -4.46107 -4.46109 h -5.42197 -5.42192 v 4.98996 c 0,5.57319 -0.20492,5.44212 6.97378,4.46109 z m 235.97073,-18.58795 c 1.23715,-0.0125 1.45977,-0.82386 1.45977,-5.3393 0,-5.93703 0.66687,-5.56974 -6.77257,-3.72982 l -3.01892,0.74665 1.7677,4.59355 c 1.47025,3.82062 2.04841,4.52177 3.43598,4.16694 0.91755,-0.23457 2.32518,-0.43181 3.12804,-0.43802 z m -226.33738,-9.78339 c 1.05874,-2.17271 1.9781,-4.12875 2.04304,-4.34677 0.0651,-0.21806 -1.85259,-0.8327 -4.26118,-1.36595 l -4.37926,-0.96959 v 4.83123 c 0,3.08677 0.37635,4.98265 1.04267,5.2507 2.58767,1.04101 3.73221,0.34065 5.55473,-3.39962 z m 213.61667,-14.75501 2.91953,-1.0029 0.19979,-9.481962 0.19981,-9.48194 -1.82551,2.49498 c -1.00401,1.37224 -3.2523,3.84093 -4.99612,5.48593 -3.05935,2.88601 -3.17064,3.18717 -3.17064,8.580582 0,6.24393 -0.63976,5.91746 6.67314,3.40531 z m -7.5073,-4.5703 v -4.979152 l -3.81304,1.847042 -3.81304,1.84699 3.60453,3.10733 c 1.98244,1.70904 3.69832,3.11849 3.81304,3.13216 0.1147,0.0157 0.20847,-2.21582 0.20847,-4.95437 z m -183.01165,-3.648332 2.91398,-1.9742 -3.00592,-1.76827 c -1.65326,-0.97253 -3.17218,-1.76825 -3.37532,-1.76825 -0.20296,0 -0.36926,1.68409 -0.36926,3.74248 0,2.058332 0.20768,3.742472 0.46132,3.742472 0.25379,0 1.77263,-0.88841 3.37532,-1.974232 z m 150.46725,-16.5302 c -0.008,-3.66291 -0.25142,-4.82951 -0.82134,-3.9504 -1.06829,1.6481 -1.06829,9.14825 0,9.14825 0.46844,0 0.82852,-2.27857 0.82134,-5.19785 z m -2.48965,1.83237 v -2.53379 l -2.05913,1.49423 c -2.90267,2.10632 -2.59359,2.8559 1.43352,3.47691 0.34403,0.0531 0.62561,-1.04374 0.62561,-2.43735 z m -114.91601,-0.0275 c 0.21399,-0.34536 4.24858,-0.62256 3.37328,-1.70012 l -3.62466,-5.50718 c -0.99341,1.75736 -0.91456,8.90323 0.25143,7.2073 z m 71.54049,-7.83505 c 0,-0.68611 -0.14739,-1.2475 -0.32787,-1.2475 -0.18011,0 -0.54388,0.56139 -0.80795,1.2475 -0.26404,0.68613 -0.11664,1.24749 0.32787,1.24749 0.44437,0 0.80795,-0.56136 0.80795,-1.24749 z"
         id="path5220"
         sodipodi:nodetypes="csccccsccccsccsssscccssscssssscccsssssscccccssscssscccsssssscsscccssccsssscccsssccccccssscccccccssssccsscccccssssssssccscscsscssccscssssssssssssssscccsscccsscccssscsssscssssssssscscccssssscssssscssssssssssssscscssscsscsssssssscssssccssscsscccsscccccccssssscccssssscccsssssssscsscsssccccscccccssscccsscssscssssscsscccsscccssccccscssscccccccsssscsscccsscssscccccccccsssssscsscccsssscssscccssccccccscscccccsscccsccsssscccccccccscccsscsssscsscccccsccccssscssccccccccccccscccsssccccsccssccscccccccccssccssscsscssssccssccccssccccccccssccccccccccccsscccssccssssssssscccsscsssssscccssscccsccssccsscccccssssccscccsscscccccsccssssscccccsscsscsscssscsssscccssssccccscscccsssscccsscscsssscccssssss"
         transform="translate(-4.8787,-414.21444)" />
      <rect
         style="font-variation-settings:normal;display:inline;fill:#000000;fill-opacity:1;fill-rule:evenodd;stroke-width:0.320862;stroke-linecap:butt;stroke-linejoin:miter;stroke-miterlimit:4;stroke-dasharray:none;stroke-dashoffset:0;stroke-opacity:1;stop-color:#000000"
         id="rect18235-3-0-2-6-0-8"
         width="135"
         height="4.5760341"
         x="-620.12128"
         y="272.3461"
         transform="scale(-1)" />
      <rect
         style="font-variation-settings:normal;display:inline;fill:#000000;fill-opacity:1;fill-rule:evenodd;stroke-width:0.320863;stroke-linecap:butt;stroke-linejoin:miter;stroke-miterlimit:4;stroke-dasharray:none;stroke-dashoffset:0;stroke-opacity:1;stop-color:#000000"
         id="rect18235-3-0-2-6-0-1-6"
         width="135"
         height="4.0913553"
         x="-624.33673"
         y="-145.87692"
         transform="scale(-1)" />
      <text
         xml:space="preserve"
         style="font-size:103.551px;font-family:sans-serif;-inkscape-font-specification:'sans-serif, Normal';text-align:center;text-anchor:middle;display:inline;fill:#000000;fill-opacity:1;fill-rule:evenodd;stroke:none;stroke-width:0.479089;stroke-linecap:butt;stroke-linejoin:round;stroke-dasharray:none;stroke-dashoffset:0;stroke-opacity:1;paint-order:stroke markers fill"
         x="547.17633"
         y="-25.949499"
         id="text18356-3-2"
         transform="scale(1.0007815,0.99921911)"><tspan
           sodipodi:role="line"
           id="tspan18354-2-7"
           style="stroke:none;stroke-width:0.479089"
           x="547.17633"
           y="-25.949499">L</tspan></text>
      <g
         id="g7840"
         transform="rotate(-90,-155.91738,-494.27364)"
         style="stroke-width:0.845061">
        <path
           sodipodi:type="star"
           style="display:inline;fill:#2b0000;fill-opacity:1;fill-rule:evenodd;stroke:none;stroke-width:0.489647;stroke-linecap:butt;stroke-linejoin:round;stroke-dasharray:none;stroke-opacity:1;paint-order:stroke markers fill"
           id="path6674-9-6-3"
           inkscape:flatsided="true"
           sodipodi:sides="3"
           sodipodi:cx="22.918362"
           sodipodi:cy="149.01613"
           sodipodi:r1="2.2450638"
           sodipodi:r2="1.122532"
           sodipodi:arg1="3.1415927"
           sodipodi:arg2="4.1887902"
           inkscape:rounded="0"
           inkscape:randomized="0"
           d="m 20.673298,149.01613 3.367596,-1.94428 -1e-6,3.88856 z"
           inkscape:transform-center-x="0.56126629"
           inkscape:transform-center-y="-1.8773685e-06"
           transform="matrix(-11.406067,0,0,7.33254,-142.893,-886.64515)" />
        <rect
           style="font-variation-settings:normal;display:inline;fill:#2b0000;fill-opacity:1;fill-rule:evenodd;stroke-width:0.323185;stroke-linecap:butt;stroke-linejoin:miter;stroke-miterlimit:4;stroke-dasharray:none;stroke-dashoffset:0;stroke-opacity:1;stop-color:#000000"
           id="rect6698-8-2-6"
           width="105.00001"
           height="5.4990001"
           x="412.63861"
           y="202.76385"
           transform="scale(-1,1)" />
      </g>
      <g
         id="g7840-3"
         transform="rotate(90,114.4481,635.9513)"
         style="display:inline;stroke-width:0.845061;stroke-linecap:butt;stroke-linejoin:round">
        <path
           sodipodi:type="star"
           style="display:inline;fill:#2b0000;fill-opacity:1;fill-rule:evenodd;stroke:none;stroke-width:0.489647;stroke-linecap:butt;stroke-linejoin:round;stroke-dasharray:none;stroke-opacity:1;paint-order:stroke markers fill"
           id="path6674-9-6-3-0"
           inkscape:flatsided="true"
           sodipodi:sides="3"
           sodipodi:cx="22.918362"
           sodipodi:cy="149.01613"
           sodipodi:r1="2.2450638"
           sodipodi:r2="1.122532"
           sodipodi:arg1="3.1415927"
           sodipodi:arg2="4.1887902"
           inkscape:rounded="0"
           inkscape:randomized="0"
           d="m 20.673298,149.01613 3.367596,-1.94428 -1e-6,3.88856 z"
           inkscape:transform-center-x="0.56126629"
           inkscape:transform-center-y="-1.8773685e-06"
           transform="matrix(-11.406067,0,0,7.33254,-142.893,-886.64515)" />
        <rect
           style="font-variation-settings:normal;display:inline;fill:#2b0000;fill-opacity:1;fill-rule:evenodd;stroke-width:0.323185;stroke-linecap:butt;stroke-linejoin:miter;stroke-miterlimit:4;stroke-dasharray:none;stroke-dashoffset:0;stroke-opacity:1;stop-color:#000000"
           id="rect6698-8-2-6-0"
           width="105.00001"
           height="5.4990001"
           x="412.63861"
           y="202.76385"
           transform="scale(-1,1)" />
      </g>
    </g>
  </g>
</svg>
