<?xml version="1.0" encoding="UTF-8" standalone="no"?>
<svg
   width="100pt"
   height="60pt"
   viewBox="0 0 100 59.999999"
   version="1.1"
   id="svg39"
   sodipodi:docname="module_h.svg"
   inkscape:version="1.2.1 (9c6d41e410, 2022-07-14)"
   inkscape:export-filename="graphic_module.svg"
   inkscape:export-xdpi="96"
   inkscape:export-ydpi="96"
   xmlns:inkscape="http://www.inkscape.org/namespaces/inkscape"
   xmlns:sodipodi="http://sodipodi.sourceforge.net/DTD/sodipodi-0.dtd"
   xmlns="http://www.w3.org/2000/svg"
   xmlns:svg="http://www.w3.org/2000/svg"
   xmlns:rdf="http://www.w3.org/1999/02/22-rdf-syntax-ns#"
   xmlns:cc="http://creativecommons.org/ns#"
   xmlns:dc="http://purl.org/dc/elements/1.1/">
  <sodipodi:namedview
     id="namedview41"
     pagecolor="#ffffff"
     bordercolor="#000000"
     borderopacity="0.25"
     inkscape:showpageshadow="2"
     inkscape:pageopacity="0.0"
     inkscape:pagecheckerboard="0"
     inkscape:deskcolor="#d1d1d1"
     inkscape:document-units="pt"
     showgrid="false"
     inkscape:zoom="2.4981984"
     inkscape:cx="90.064904"
     inkscape:cy="32.023077"
     inkscape:window-width="1920"
     inkscape:window-height="1001"
     inkscape:window-x="-9"
     inkscape:window-y="-9"
     inkscape:window-maximized="1"
     inkscape:current-layer="svg39" />
  <metadata
     id="metadata2">
    <rdf:RDF>
      <cc:Work>
        <dc:type
           rdf:resource="http://purl.org/dc/dcmitype/StillImage" />
        <dc:date>2023-01-30T17:37:56.672467</dc:date>
        <dc:format>image/svg+xml</dc:format>
        <dc:creator>
          <cc:Agent>
            <dc:title>Matplotlib v3.6.0, https://matplotlib.org/</dc:title>
          </cc:Agent>
        </dc:creator>
      </cc:Work>
    </rdf:RDF>
  </metadata>
  <defs
     id="defs6">
    <style
       type="text/css"
       id="style4">*{stroke-linejoin: round; stroke-linecap: butt}</style>
    <clipPath
       clipPathUnits="userSpaceOnUse"
       id="clipPath9905">
      <path
         id="path9907"
         style="stroke-width:1"
         d="m 414.72051,307.58354 -357.120555,1.7e-4 3.18e-4,-266.111197 357.119407,-1.58e-4 z M 142.3803,289.5653 c 0.93199,-0.0113 2.04747,-0.44074 3.17552,-1.45695 1.55337,-1.39937 0.56113,-0.53821 3.53004,-2.80554 4.24405,-3.24103 6.06273,-4.54189 10.42631,-8.13226 4.78896,-3.94044 7.98854,-6.81844 12.55592,-10.84317 0.11092,0.72053 0.52816,1.43272 1.27192,1.94912 -0.593,0.46055 -1.16772,0.94486 -1.78427,1.37511 -3.38941,2.36522 -2.30964,5.51123 0.36849,5.46874 0.81984,-0.013 1.78886,-0.32444 2.82612,-1.04894 1.36571,-0.95391 2.6612,-1.99946 3.95558,-3.04624 1.13444,-0.91736 1.67495,-1.88632 1.82971,-2.76013 0.091,-0.0331 0.18181,-0.0664 0.27245,-0.10102 0.44423,-0.1698 0.77145,-0.38429 1.11189,-0.59277 0.39945,0.20742 0.7813,0.44548 1.12052,0.73758 0.0147,-0.10051 -0.0221,-0.20566 0.003,-0.30427 0.0106,-0.0427 0.008,-0.17575 0.012,-0.13195 0.001,0.0133 -0.004,0.50104 -0.004,0.51136 -0.008,0.55538 -0.0202,1.11082 -0.0601,1.66506 -0.0395,0.48573 -0.10526,0.97005 -0.2418,1.43934 -0.0626,0.21057 -0.066,0.24021 -0.15364,0.45204 -0.0159,0.0384 -0.38789,0.74774 -0.0283,0.31135 2.89526,-3.51619 1.11984,4.51055 2.64191,4.67511 0.28186,0.0305 0.67682,-0.20904 1.23544,-0.84103 0.74016,-0.83739 1.14889,-1.88299 1.49558,-2.92948 0.26718,-0.85681 0.40204,-1.7433 0.48267,-2.63457 0.053,-0.68389 0.0705,-1.36942 0.081,-2.05505 0.0357,-0.9705 -0.10659,-1.94617 -0.62188,-2.79381 -0.21061,-0.34645 -0.49551,-0.64102 -0.74347,-0.96181 -1.29488,-1.37035 -2.99775,-2.19046 -4.73141,-2.85635 -1.50358,-0.53968 -3.08516,-0.78115 -4.66634,-0.95137 -1.06054,-0.1035 -2.12616,-0.13491 -3.18837,-0.21464 -0.55552,-0.11257 -1.44003,-0.041 -1.87443,-0.46727 -0.86418,-0.62658 -1.57713,-1.40927 -2.27407,-2.20957 -1.23484,-1.55781 -2.89159,-2.62582 -4.54861,-3.67876 -2.66131,-1.65874 -5.17221,-3.53192 -7.59225,-5.52192 -1.59538,-1.29333 -3.08033,-2.71453 -4.63746,-4.05192 -0.85152,-0.73135 -1.56993,-1.30255 -2.44184,-2.00734 -0.39711,-0.33008 -0.79755,-0.65651 -1.19134,-0.99054 -0.86982,-0.73773 -1.37731,-1.16288 -2.1537,-1.99276 -1.00251,-1.07157 -1.86486,-2.25359 -2.72404,-3.43911 -1.45703,-2.07603 -2.87916,-4.17868 -4.25449,-6.30996 -0.58592,-0.99749 -1.30577,-1.92068 -1.85822,-2.93842 -0.20985,-0.3866 -0.46721,-1.02152 -0.63261,-1.40898 -0.55216,-1.40719 -0.95519,-2.86573 -1.37659,-4.31548 -0.42868,-1.44079 -1.04887,-2.80719 -1.6604,-4.17622 0.76602,-0.68343 1.22242,-1.99406 0.90612,-3.86438 -0.27593,-1.63163 -0.68469,-3.23651 -1.12035,-4.83172 -1.14745,-3.84833 -2.45038,-7.64681 -3.64376,-11.48109 -1.18243,-3.68617 -1.94879,-7.47289 -2.5402,-11.29179 -0.83453,-6.05558 -1.1077,-12.17109 -1.42366,-18.27047 -0.0588,-1.25501 -0.12012,-2.50948 -0.17614,-3.76461 -0.11172,-2.50329 -0.22838,-4.34357 -0.14368,-6.84436 9.8e-4,-0.0367 0.008,-0.1055 0.01,-0.1435 3.46735,-7.73917 6.90512,-15.49183 10.42733,-23.20621 2.19867,-4.68501 4.33111,-9.39996 6.53826,-14.08102 0.65719,-1.39381 1.29938,-2.79518 1.98837,-4.17356 1.493,-2.98689 2.30692,-4.34669 3.92642,-7.21194 2.64645,-4.00592 1.42993,-2.26417 4.04878,-5.81514 1.12181,-0.94859 2.23806,-1.91478 3.54389,-2.606631 2.023,-1.08411 4.04394,-2.184752 5.9453,-3.473872 2.72981,-1.947507 5.34208,-4.051169 8.03636,-6.046904 1.39972,-1.004435 2.49908,-1.808736 3.93742,-2.777748 3.80136,-2.560962 7.78905,-4.832326 11.87229,-6.911784 1.39991,-0.670607 2.78672,-1.368465 4.1997,-2.011059 8.02259,-3.648527 16.15545,-6.540843 24.95977,-7.554392 1.52449,-0.05114 3.05215,-0.266212 4.57337,-0.154075 0.74469,0.05488 3.52233,0.606383 6.09031,1.1331 -0.17493,1.64825 1.92142,3.002448 5.2281,2.101611 0.75171,-0.204793 1.52957,-0.335824 2.31358,-0.438708 5.11901,1.169268 10.21636,2.437705 15.2056,4.084017 2.11472,0.722172 4.24546,1.401447 6.34484,2.167068 7.96894,2.906184 15.66751,6.501184 23.46657,9.820827 4.00265,1.842241 8.07769,3.527249 12.02743,5.480835 0.92938,0.548972 1.50996,0.856852 2.36376,1.492975 1.01067,0.753018 1.92021,1.654446 2.73789,2.609562 1.31672,1.566388 2.66009,3.116058 4.07826,4.590688 1.87571,1.70598 3.87974,3.25735 5.84052,4.86308 2.37456,1.96504 4.66952,4.05442 6.62683,6.44357 1.75851,2.23243 3.45706,4.53047 4.90147,6.98079 0.18144,0.34395 0.37739,0.68081 0.54373,1.03233 0.98605,2.08386 1.55683,4.33812 2.29128,6.51418 0.28099,0.83851 0.82156,2.4683 1.11272,3.26652 0.35631,0.97682 0.75803,1.9359 1.14538,2.90077 0.0258,0.24371 0.038,0.46187 0.0852,0.75843 0.35547,2.26849 0.80436,4.52197 1.48378,6.71884 0.69892,2.32733 1.48418,4.63068 2.06373,6.99208 0.64135,2.74932 1.08808,5.53731 1.64077,8.30517 0.64304,3.1984 1.26924,6.40233 1.75463,9.62915 0.41079,2.56976 0.90112,5.12768 1.18858,7.7154 0.22504,1.99931 0.30148,4.01929 0.7185,5.99316 0.20978,0.93997 0.46817,1.86429 0.7502,2.78152 -0.0345,0.20436 -0.07,0.40837 -0.1053,0.61257 -0.49668,1.86495 -1.01683,3.73352 -1.84915,5.48234 -0.98886,2.14104 -2.00638,4.26821 -3.08202,6.36732 -0.42575,0.95317 -0.69679,1.50037 -1.0306,2.5023 -0.51145,1.53523 -0.71133,3.15375 -1.13738,4.71135 -0.64148,2.58954 -1.40026,5.15038 -2.23242,7.68485 -0.81922,2.43485 -1.67647,4.8609 -2.71867,7.21095 -1.11291,2.59934 -2.3032,5.16373 -3.45721,7.74494 -0.42234,0.90435 -0.85067,1.80675 -1.26889,2.71303 -0.50528,1.09491 -0.9603,2.22339 -1.51435,3.29515 -0.1818,0.35162 -0.38625,0.68973 -0.57957,1.03518 -1.34517,2.26936 -2.80555,4.46529 -4.44851,6.53231 -1.63003,1.98083 -3.4121,3.82057 -5.31478,5.54229 -1.97838,1.89178 -3.88917,3.8491 -5.76309,5.84442 -1.16771,1.29719 -2.35927,2.57103 -3.63806,3.76056 -0.77759,0.67382 -1.54151,1.36501 -2.3907,1.95 -1.07558,0.69315 -2.19187,1.31341 -3.36198,1.83514 -1.25282,0.56713 -2.51814,1.09471 -3.84174,1.47689 -1.26024,0.40706 -2.50904,0.8564 -3.68094,1.48062 -1.02125,0.48169 -2.05499,0.94306 -3.03058,1.51399 -0.67831,0.42748 -1.33462,0.88575 -1.98336,1.35656 -0.61805,0.39523 -1.27614,0.72469 -1.92365,1.06817 -1.3934,0.83767 -2.16327,1.6852 -2.32828,3.38879 -0.006,0.68945 0.043,1.37614 0.1261,2.06083 0.0534,0.44615 0.0973,0.88452 0.07,1.33694 l 0.0108,1.70863 c 0.0152,2.69911 1.38494,4.0401 2.7482,4.03245 l 10e-6,0.001 c 1.36325,-0.008 2.71908,-1.36392 2.70393,-4.06304 l -0.0108,-1.70862 c 0.0226,-0.65452 -0.0311,-1.3032 -0.10812,-1.95219 -0.0124,-0.10768 -0.0131,-0.2158 -0.0238,-0.3261 0.55083,-0.29242 1.09662,-0.59421 1.62716,-0.92189 0.66568,-0.45607 1.31133,-0.93549 1.99487,-1.36473 0.79933,-0.43446 1.63007,-0.80953 2.45278,-1.19723 0.9605,-0.52211 1.98607,-0.89044 3.02412,-1.22242 1.51824,-0.44524 2.97608,-1.04907 4.41664,-1.69761 1.41417,-0.63298 2.76541,-1.38321 4.06781,-2.21971 1.07434,-0.7155 2.03854,-1.572 3.01165,-2.41508 1.45214,-1.33299 2.80031,-2.76852 4.11898,-4.23179 1.78407,-1.89308 3.59899,-3.75568 5.48015,-5.55246 2.06351,-1.86375 3.97892,-3.87199 5.75174,-6.01211 1.82401,-2.28194 3.43844,-4.71035 4.93055,-7.21873 0.21598,-0.38471 0.44473,-0.76329 0.6483,-1.15472 0.62987,-1.21114 1.15444,-2.47635 1.72602,-3.71512 0.40873,-0.88582 0.82983,-1.76648 1.24264,-2.65041 1.17936,-2.63413 2.39263,-5.25309 3.52919,-7.90615 0.861,-1.94429 1.58947,-3.94095 2.28729,-5.9487 1.20961,0.77752 3.12392,0.36599 4.38797,-2.06417 0.24548,-0.47197 0.67304,-0.83055 0.92282,-1.30203 0.72949,-1.14359 1.21698,-2.21979 1.4967,-3.55534 0.63327,-2.77866 1.03822,-5.59707 1.36524,-8.42732 0.21029,-1.70785 0.4327,-3.41496 0.65613,-5.12165 0.23267,0.0793 0.4701,0.12119 0.70867,0.11981 1.37956,-0.008 2.73454,-1.36483 2.65419,-4.06276 -0.0482,-1.61931 -0.59242,-3.19463 -1.05849,-4.73374 -0.2069,-0.62861 -0.41907,-1.2546 -0.62948,-1.881 0.0395,-0.20454 0.0939,-0.40616 0.12846,-0.61154 0.0394,-0.23463 0.11168,-0.46863 0.10015,-0.70625 -0.0239,-0.49366 0.28815,-1.47226 -0.20607,-1.46922 -0.28558,0.002 -0.56398,0.0588 -0.84394,0.10075 -0.0889,-0.33521 -0.17956,-0.66971 -0.25324,-1.00967 -0.34758,-1.78985 -0.42221,-3.61668 -0.62276,-5.42567 -0.18738,-1.70973 -0.46329,-3.4064 -0.7482,-5.10221 1.24982,-0.41342 2.14807,-2.02861 1.50615,-4.55145 -0.22247,-0.87437 -0.44569,-1.74883 -0.66719,-2.6235 1.17071,-0.50662 1.96021,-2.10181 1.29575,-4.52482 -0.11252,-0.41034 -0.20675,-0.8265 -0.33777,-1.23133 -1.86417,-5.75982 -4.37423,-11.29899 -6.81235,-16.83117 -0.53741,-1.22908 -1.06927,-2.46177 -1.5964,-3.69648 -0.22965,-0.80628 -0.23002,-1.94932 -0.90425,-2.19412 -0.48973,-1.19569 -0.98145,-2.39093 -1.4235,-3.6049 -0.22707,-0.6236 -0.81913,-2.40561 -1.03634,-3.05409 -0.76372,-2.31193 -1.40496,-4.68537 -2.43574,-6.89976 -0.22493,-0.48319 -0.48603,-0.94894 -0.72871,-1.42348 -1.33853,-2.33369 -2.923,-4.51515 -4.56065,-6.64952 1.40952,-0.83285 1.62469,-3.09448 -0.77734,-5.14021 -1.59387,-1.35744 -0.76675,-0.65328 -2.4806,-2.11355 -2.67626,-2.21596 -5.45914,-4.29916 -8.10589,-6.550962 -3.25687,-2.748036 -6.49354,-5.525315 -9.90186,-8.086448 -0.80015,-0.587985 -1.58639,-1.194226 -2.39998,-1.763477 -4.71999,-3.302537 -9.78013,-6.091162 -14.92246,-8.671418 -6.05774,-2.995769 -12.18097,-5.853013 -18.34878,-8.615172 -1.90162,-0.81671 -3.27908,-1.444664 -5.2121,-2.13872 -2.61813,-0.940049 -5.33447,-1.612295 -8.0985,-1.93511 -0.68879,-0.07335 -1.37575,-0.164655 -2.06624,-0.219776 -3.32822,-0.265825 -6.67623,-0.10592 -9.99534,0.199533 -0.41706,0.04392 -0.8394,0.08712 -1.2614,0.13202 -0.92664,-0.208922 -1.84634,-0.449056 -2.77434,-0.650786 -0.92409,-0.200887 -8.9166,-1.8867 -10.19385,-1.983508 -1.88094,-0.142595 -3.7728,0.04605 -5.659,0.06877 -5.69425,0.598595 -11.26979,1.941981 -16.67681,3.80711 -3.22541,1.112589 -7.20494,2.77621 -10.32925,4.193748 -1.47641,0.669876 -2.92504,1.398508 -4.38779,2.097721 -4.30269,2.183722 -8.50113,4.576781 -12.50656,7.269345 -1.52207,1.0232 -2.6514,1.848915 -4.12872,2.908385 -2.69544,1.985157 -5.2969,4.094018 -8.02369,6.03642 -1.71722,1.146163 -3.53474,2.133976 -5.35389,3.107305 -1.26659,0.664718 -2.39098,1.536411 -3.49161,2.438593 -0.45183,0.245775 -0.90774,0.618429 -1.35191,1.114704 -0.32829,0.280669 -0.35889,0.302199 -0.88639,0.782387 1.6037,-3.138037 -1.66129,-5.576909 -4.98649,-2.340117 -3.15225,3.06838 -6.30348,6.158353 -8.85771,9.762733 -0.51535,0.78004 -1.05358,1.54632 -1.54631,2.34092 -2.66851,4.30299 -4.65695,8.96235 -6.04222,13.82951 -0.29353,1.09008 -0.60178,2.17681 -0.88053,3.27077 -1.61574,6.34095 -2.80589,12.78263 -4.03728,19.20578 -0.21832,1.33828 -0.4752,2.67066 -0.65539,4.01452 -0.22393,1.67015 -0.42993,4.24477 -0.54203,6.28251 -0.16646,0.41198 -0.33686,0.82248 -0.50556,1.23374 -0.84963,2.07113 -0.46123,3.48605 0.44054,4.08473 0.0341,0.99376 0.0799,1.98234 0.13091,3.12395 0.0564,1.26418 0.11824,2.52836 0.17745,3.79236 0.32592,6.2849 0.61151,12.58573 1.48114,18.82429 0.63538,4.0839 1.459,8.13245 2.7216,12.07512 0.0376,0.12074 0.0776,0.24077 0.1154,0.36145 -0.65783,0.80982 -0.93602,2.16473 -0.33055,3.97337 0.34453,1.02913 0.70399,2.05032 1.17272,3.03134 0.45927,1.05462 0.92812,2.11625 1.15544,3.25009 0.29543,1.57206 0.38824,3.17559 0.59473,4.76063 0.18783,1.70582 0.46642,3.41264 1.19408,4.98402 0.56953,1.28195 1.17553,2.55052 1.5871,3.89551 0.48514,1.66739 0.95312,3.34456 1.60693,4.95624 0.38862,0.89122 0.5089,1.22188 0.97996,2.07917 0.58118,1.05758 1.32128,2.02599 1.93643,3.06293 1.43083,2.21514 2.90765,4.40098 4.42478,6.55773 1.04078,1.42763 2.09028,2.83546 3.30977,4.11953 0.89561,0.94304 1.5156,1.47233 2.49322,2.30089 0.41294,0.34999 0.83307,0.69172 1.24946,1.03764 0.73453,0.59321 1.54091,1.23522 2.25817,1.85104 1.60728,1.38 3.13939,2.84754 4.78743,4.18065 2.59411,2.12851 5.28218,4.13544 8.13238,5.91222 1.21905,0.77151 2.46444,1.49907 3.36057,2.65929 0.42026,0.48063 0.85698,0.94686 1.30701,1.39825 -3.98866,3.52106 -7.15198,6.33975 -11.48414,9.90589 -4.62679,3.8085 -5.90826,4.66797 -10.36641,8.0868 -3.27503,2.51168 -2.24489,1.61471 -4.07338,3.28637 -2.86366,2.61806 -1.67994,5.31988 0.70182,5.29103 z M 130.25843,136.54199 c 0.6339,-3.10663 1.31346,-6.20374 2.09741,-9.27594 0.26722,-1.0472 0.56381,-2.08722 0.84545,-3.13058 1.25428,-4.40769 3.06431,-8.61637 5.48972,-12.50644 0.43848,-0.70327 0.91962,-1.37943 1.37894,-2.06927 2.30353,-3.20103 5.12288,-5.95268 7.93938,-8.69095 -0.15292,0.31089 -0.27076,0.61659 -0.32923,0.90884 -0.40316,0.57513 -0.78482,1.17532 -2.34699,3.55663 -1.72625,3.05865 -2.50427,4.35109 -4.10154,7.54726 -0.69515,1.39102 -1.34353,2.80528 -2.00666,4.21184 -2.21372,4.6951 -4.3526,9.42478 -6.55768,14.12393 -0.8091,1.77222 -1.6083,3.54875 -2.4088,5.32468 z" />
    </clipPath>
  </defs>
  <defs
     id="defs37" />
  <rect
     style="font-variation-settings:normal;display:none;opacity:1;vector-effect:none;fill:#075295;fill-opacity:1;fill-rule:evenodd;stroke-width:0.75225;stroke-linecap:butt;stroke-linejoin:miter;stroke-miterlimit:4;stroke-dasharray:none;stroke-dashoffset:0;stroke-opacity:1;-inkscape-stroke:none;stop-color:#000000;stop-opacity:1"
     id="rect322"
     width="59.439804"
     height="43.306145"
     x="0"
     y="-2.8421709e-14" />
  <g
     id="g6728"
     transform="matrix(0,1.1220789,-1.1361373,0,220.19169,-110.45681)"
     style="fill:#000000">
    <path
       sodipodi:type="star"
       style="fill:#000000;fill-opacity:1;fill-rule:evenodd;stroke:none;stroke-width:1.5;stroke-dasharray:none;stroke-opacity:1;paint-order:stroke markers fill"
       id="path6674-2"
       inkscape:flatsided="true"
       sodipodi:sides="3"
       sodipodi:cx="22.918362"
       sodipodi:cy="149.01613"
       sodipodi:r1="2.2450638"
       sodipodi:r2="1.122532"
       sodipodi:arg1="3.1415927"
       sodipodi:arg2="4.1887902"
       inkscape:rounded="0"
       inkscape:randomized="0"
       d="m 20.673298,149.01613 3.367596,-1.94428 -1e-6,3.88856 z"
       inkscape:transform-center-x="0.56126629"
       inkscape:transform-center-y="-1.8773685e-06"
       transform="translate(86.841242,0.92815012)" />
    <rect
       style="font-variation-settings:normal;fill:#000000;fill-opacity:1;fill-rule:evenodd;stroke-width:0.148544;stroke-linecap:butt;stroke-linejoin:miter;stroke-miterlimit:4;stroke-dasharray:none;stroke-dashoffset:0;stroke-opacity:1;stop-color:#000000"
       id="rect6698-6-5"
       width="8.4736109"
       height="0.75"
       x="110.14836"
       y="149.56927"
       ry="0" />
  </g>
  <g
     id="g6728-6-4"
     transform="matrix(0,-1.1220789,1.1361373,0,-120.52289,164.35543)"
     style="fill:#000000;stroke-width:0.885672;stroke-linecap:butt;stroke-linejoin:round;stroke-dasharray:none">
    <path
       sodipodi:type="star"
       style="fill:#000000;fill-opacity:1;fill-rule:evenodd;stroke:none;stroke-width:0.885672;stroke-linecap:butt;stroke-linejoin:round;stroke-dasharray:none;stroke-opacity:1;paint-order:stroke markers fill"
       id="path6674-2-1-5"
       inkscape:flatsided="true"
       sodipodi:sides="3"
       sodipodi:cx="22.918362"
       sodipodi:cy="149.01613"
       sodipodi:r1="2.2450638"
       sodipodi:r2="1.122532"
       sodipodi:arg1="3.1415927"
       sodipodi:arg2="4.1887902"
       inkscape:rounded="0"
       inkscape:randomized="0"
       d="m 20.673298,149.01613 3.367596,-1.94428 -1e-6,3.88856 z"
       inkscape:transform-center-x="0.56126629"
       inkscape:transform-center-y="-1.8773685e-06"
       transform="translate(86.841242,0.9281537)" />
    <rect
       style="font-variation-settings:normal;fill:#000000;fill-opacity:1;fill-rule:evenodd;stroke-width:1.81553;stroke-linecap:butt;stroke-linejoin:miter;stroke-miterlimit:4;stroke-dasharray:none;stroke-dashoffset:0;stroke-opacity:1;stop-color:#000000"
       id="rect6698-6-5-0-7"
       width="9.4799757"
       height="0.75"
       x="110.14836"
       y="149.56927" />
  </g>
  <g
     id="line2d_1"
     transform="matrix(0,-1.266239,-1.266239,0,270.87511,469.58919)">
    <path
       d="m 343.26436,185.13524 1.17338,-0.003 2.13069,-0.22099 2.60556,-0.50493 2.90172,-0.7988 3.10955,-1.09503 3.16823,-1.34909 3.2808,-1.63392 1.45287,-0.79924 -0.33774,0.18764"
       clip-path="url(#p5aa0a9abf8)"
       style="fill:none;stroke:#075295;stroke-width:0.78974;stroke-linecap:square;stroke-dasharray:none;stroke-opacity:1"
       id="path11"
       sodipodi:nodetypes="cccccccccc" />
  </g>
  <g
     id="line2d_2"
     transform="matrix(0,-1.266239,-1.266239,0,270.87511,469.58919)">
    <path
       d="m 343.26436,163.92076 1.17338,0.003 2.13069,0.22099 2.60556,0.50493 2.90172,0.7988 3.10955,1.09503 3.16823,1.34908 3.2808,1.63393 0.58975,0.31139 0.48785,0.31893"
       clip-path="url(#p5aa0a9abf8)"
       style="fill:none;stroke:#075295;stroke-width:0.78974;stroke-linecap:square;stroke-dasharray:none;stroke-opacity:1"
       id="path14"
       sodipodi:nodetypes="cccccccccc" />
  </g>
  <g
     id="line2d_3"
     transform="matrix(0,-1.266239,-1.266239,0,270.87511,469.58919)">
    <path
       d="m 363.00318,178.32423 0.17541,-3.69545 -0.0915,-4.17662 -0.0849,-0.0529"
       clip-path="url(#p5aa0a9abf8)"
       style="fill:none;stroke:#075295;stroke-width:0.78974;stroke-linecap:square;stroke-dasharray:none;stroke-opacity:1"
       id="path17"
       sodipodi:nodetypes="cccc"
       transform="translate(0.11769218,0.01481831)" />
  </g>
  <g
     id="line2d_4"
     transform="matrix(0,-1.266239,-1.266239,0,270.87511,469.58919)">
    <path
       d="m 335.4723,184.40499 7.79206,0.73025"
       clip-path="url(#p5aa0a9abf8)"
       style="fill:none;stroke:#075295;stroke-width:0.78974;stroke-linecap:square;stroke-dasharray:none;stroke-opacity:1"
       id="path20" />
  </g>
  <g
     id="line2d_5"
     transform="matrix(0,-1.266239,-1.266239,0,270.87511,469.58919)">
    <path
       d="m 335.4723,164.65101 7.79206,-0.73025"
       clip-path="url(#p5aa0a9abf8)"
       style="fill:none;stroke:#075295;stroke-width:0.78974;stroke-linecap:square;stroke-dasharray:none;stroke-opacity:1"
       id="path23" />
  </g>
  <g
     id="line2d_7"
     transform="matrix(-0.00710495,-1.2662191,-1.2662191,0.00710495,272.50655,468.34459)">
    <path
       d="m 335.93411,174.528 0.0121,-4.08673 -0.56344,-6.98682 -1.00743,-6.62925 -0.35409,-2.33007 -1.47983,-6.55198 -1.8924,-6.44493 -2.29735,-6.31193 -2.69306,-6.15351 -3.07791,-5.97032 -3.45038,-5.76309 -3.80895,-5.53265 -4.15218,-5.27992 -4.4787,-5.00596 -4.78718,-4.711814 -5.07638,-4.398709 -5.34514,-4.067889 -5.59238,-3.720689 -5.81711,-3.358507 -6.0184,-2.982802 -6.19547,-2.595086 -6.34759,-2.19692 -6.47414,-1.789909 -6.57463,-1.375689 -6.64864,-0.955931 -6.69589,-0.532323 -6.71617,-0.106572 -6.70941,0.319608 -6.67562,0.744502 -6.61497,1.166398 -6.52767,1.583596 -6.4141,1.994418 -6.27468,2.39721 -6.11001,2.790349 -5.92074,3.172251 -5.70761,3.541381 -5.47152,3.896251 -5.21339,4.235431 -4.93426,4.557558 -4.63527,4.861337 -4.31762,5.14553 -3.98257,5.40901 -3.63149,5.65071 -3.26579,5.86966 -2.88694,6.06497 -2.49646,6.23586 -2.09593,6.38164 -1.68697,6.50173 -1.2712,6.59563 -0.85033,6.66297 -0.42601,6.70349 v 6.71702 l 0.42601,6.70349 0.85033,6.66297 1.2712,6.59563 1.68697,6.50173 2.09593,6.38164 2.49646,6.23586 2.88694,6.06497 3.26579,5.86966 3.63149,5.65071 3.98257,5.40901 4.31762,5.14554 4.63527,4.86133 4.93426,4.55755 5.21339,4.23544 5.47152,3.89625 5.70761,3.54138 5.92074,3.17225 6.11001,2.79035 6.27468,2.39721 6.4141,1.99442 6.52767,1.58359 6.61497,1.1664 6.67562,0.7445 6.70941,0.31961 6.71617,-0.10657 6.69589,-0.53233 6.64864,-0.95593 6.57463,-1.37568 6.47414,-1.78991 6.34759,-2.19692 6.19547,-2.59509 6.0184,-2.9828 5.81711,-3.35851 5.59238,-3.72069 5.34514,-4.06789 5.07638,-4.39871 4.78718,-4.71181 4.4787,-5.00596 4.15218,-5.27993 3.80895,-5.53264 3.45038,-5.76309 3.07791,-5.97032 2.69306,-6.15351 2.29735,-6.31193 1.8924,-6.44493 1.47983,-6.55198 1.0613,-6.63264 0.48838,-6.16122 0.36323,-7.23901"
       clip-path="url(#clipPath9905)"
       style="fill:none;stroke:#000000;stroke-width:0.78974;stroke-dasharray:3.9487, 3.9487;stroke-dashoffset:0"
       id="path29"
       sodipodi:nodetypes="ccccccccccccccccccccccccccccccccccccccccccccccccccccccccccccccccccccccccccccccccccccccccccccccccccccc"
       transform="rotate(-90,230.11351,174.528)" />
  </g>
  <text
     xml:space="preserve"
     style="font-style:normal;font-variant:normal;font-weight:normal;font-stretch:normal;font-size:40px;font-family:sans-serif;-inkscape-font-specification:'sans-serif, Normal';font-variant-ligatures:normal;font-variant-caps:normal;font-variant-numeric:normal;font-variant-east-asian:normal;text-align:center;text-anchor:middle;fill:#ff0000;fill-opacity:1;fill-rule:evenodd;stroke:none;stroke-width:4.25197;stroke-linecap:butt;stroke-linejoin:round;stroke-dasharray:none;stroke-opacity:1;paint-order:stroke markers fill"
     x="49.661331"
     y="27.963884"
     id="text6491-7-0"><tspan
       sodipodi:role="line"
       id="tspan6489-0-7"
       style="font-style:normal;font-variant:normal;font-weight:normal;font-stretch:normal;font-size:5px;font-family:sans-serif;-inkscape-font-specification:'sans-serif, Normal';font-variant-ligatures:normal;font-variant-caps:normal;font-variant-numeric:normal;font-variant-east-asian:normal;fill:#000000;stroke:none;stroke-width:4.25197"
       x="49.661331"
       y="27.963884">h</tspan></text>
</svg>
