<?xml version="1.0" encoding="UTF-8" standalone="no"?>
<svg
   width="1800pt"
   height="460.79999pt"
   viewBox="0 0 1800 460.79998"
   version="1.1"
   id="svg33"
   sodipodi:docname="pressure_angles.svg"
   xml:space="preserve"
   inkscape:version="1.2.1 (9c6d41e410, 2022-07-14)"
   xmlns:inkscape="http://www.inkscape.org/namespaces/inkscape"
   xmlns:sodipodi="http://sodipodi.sourceforge.net/DTD/sodipodi-0.dtd"
   xmlns="http://www.w3.org/2000/svg"
   xmlns:svg="http://www.w3.org/2000/svg"
   xmlns:rdf="http://www.w3.org/1999/02/22-rdf-syntax-ns#"
   xmlns:cc="http://creativecommons.org/ns#"
   xmlns:dc="http://purl.org/dc/elements/1.1/"><sodipodi:namedview
     id="namedview35"
     pagecolor="#ffffff"
     bordercolor="#000000"
     borderopacity="0.25"
     inkscape:showpageshadow="2"
     inkscape:pageopacity="0.0"
     inkscape:pagecheckerboard="0"
     inkscape:deskcolor="#d1d1d1"
     inkscape:document-units="pt"
     showgrid="false"
     inkscape:zoom="0.23541667"
     inkscape:cx="2196.1062"
     inkscape:cy="401.41593"
     inkscape:window-width="1920"
     inkscape:window-height="1001"
     inkscape:window-x="-9"
     inkscape:window-y="-9"
     inkscape:window-maximized="1"
     inkscape:current-layer="svg33" /><metadata
     id="metadata2"><rdf:RDF><cc:Work><dc:type
           rdf:resource="http://purl.org/dc/dcmitype/StillImage" /><dc:date>2023-01-30T07:04:06.850146</dc:date><dc:format>image/svg+xml</dc:format><dc:creator><cc:Agent><dc:title>Matplotlib v3.6.0, https://matplotlib.org/</dc:title></cc:Agent></dc:creator></cc:Work></rdf:RDF></metadata><defs
     id="defs6"><style
       type="text/css"
       id="style4">*{stroke-linejoin: round; stroke-linecap: butt}</style><style
       type="text/css"
       id="style656">*{stroke-linejoin: round; stroke-linecap: butt}</style><clipPath
       id="p99559126f7"><rect
         x="57.599998"
         y="41.472"
         width="357.12"
         height="266.112"
         id="rect680" /></clipPath><style
       type="text/css"
       id="style788">*{stroke-linejoin: round; stroke-linecap: butt}</style><clipPath
       id="pf2e16489f4"><rect
         x="57.599998"
         y="41.472"
         width="357.12"
         height="266.112"
         id="rect812" /></clipPath><style
       type="text/css"
       id="style920">*{stroke-linejoin: round; stroke-linecap: butt}</style><clipPath
       id="pafffaa55da"><rect
         x="57.599998"
         y="41.472"
         width="357.12"
         height="266.112"
         id="rect944" /></clipPath><style
       type="text/css"
       id="style1125">*{stroke-linejoin: round; stroke-linecap: butt}</style><clipPath
       id="peb3bf14a65"><rect
         x="57.599998"
         y="41.472"
         width="357.12"
         height="266.112"
         id="rect1145" /></clipPath><style
       type="text/css"
       id="style1216">*{stroke-linejoin: round; stroke-linecap: butt}</style><clipPath
       id="p06c44e4fae"><rect
         x="57.599998"
         y="41.472"
         width="357.12"
         height="266.112"
         id="rect1236" /></clipPath></defs><defs
     id="defs31"><clipPath
       id="p8869e3cf73"><rect
         x="57.599998"
         y="41.472"
         width="357.12"
         height="266.112"
         id="rect28" /></clipPath></defs><g
     id="g617"
     transform="translate(496.80413,57.599994)"><g
       id="figure_1"
       transform="rotate(-90,230.4,172.8)"><g
         id="patch_1"><path
           d="M 0,345.6 H 460.8 V 0 H 0 Z"
           style="fill:none"
           id="path8" /></g><g
         id="axes_1"
         style="stroke-width:5;stroke-dasharray:none"><g
           id="line2d_1"
           style="stroke-width:5;stroke-dasharray:none"><path
             d="m 165.22056,298.93317 2.48966,0.13126 4.71195,0.0426 5.98113,-0.17822 6.34526,-0.40033 7.5713,-0.71002 7.85079,-0.966 7.79237,-1.16443 8.54757,-1.49171 9.29093,-1.85654 8.72903,-1.95299 9.27838,-2.28541 9.81724,-2.64217 10.34479,-3.02296 10.86029,-3.42749 9.70939,-3.27752 10.07016,-3.6064 10.42198,-3.94956 10.76448,-4.30678 11.09722,-4.67786 11.41983,-5.06252 11.73193,-5.46054 12.03313,-5.87166 12.32306,-6.29559 12.60135,-6.73208 10.70506,-5.95234 v 0"
             clip-path="url(#p8869e3cf73)"
             style="fill:none;stroke:#000000;stroke-width:5;stroke-linecap:square;stroke-dasharray:none"
             id="path11" /></g><g
           id="line2d_2"
           style="stroke-width:5;stroke-dasharray:none"><path
             d="m 165.22056,50.122828 2.48966,-0.131258 4.71195,-0.04256 5.98113,0.17822 6.34526,0.400328 7.5713,0.710018 7.85079,0.965996 7.79237,1.164431 8.54757,1.49171 9.29093,1.856549 8.72903,1.95299 9.27838,2.285405 9.81724,2.642166 10.34479,3.022967 10.86029,3.427483 9.70939,3.277527 10.07016,3.606397 10.42198,3.949556 10.76448,4.306785 11.09722,4.677854 11.41983,5.062524 11.73193,5.460544 12.03313,5.87166 12.32306,6.29559 12.60135,6.73208 10.70506,5.95234 v 0"
             clip-path="url(#p8869e3cf73)"
             style="fill:none;stroke:#000000;stroke-width:5;stroke-linecap:square;stroke-dasharray:none"
             id="path14" /></g><g
           id="line2d_3"
           style="stroke-width:5;stroke-dasharray:none"><path
             d="m 397.70884,223.81587 0.48104,-18.82038 0.25399,-18.82481 0.0269,-18.8265 -0.2002,-18.82547 -0.42728,-18.82167 -0.13444,-4.45691 v 0"
             clip-path="url(#p8869e3cf73)"
             style="fill:none;stroke:#000000;stroke-width:5;stroke-linecap:square;stroke-dasharray:none"
             id="path17" /></g><g
           id="line2d_4"
           style="stroke-width:5;stroke-dasharray:none"><path
             d="m 73.832727,290.36857 91.387833,8.5646"
             clip-path="url(#p8869e3cf73)"
             style="fill:none;stroke:#000000;stroke-width:5;stroke-linecap:square;stroke-dasharray:none"
             id="path20" /></g><g
           id="line2d_5"
           style="stroke-width:5;stroke-dasharray:none"><path
             d="M 73.832727,58.687433 165.22056,50.122828"
             clip-path="url(#p8869e3cf73)"
             style="fill:none;stroke:#000000;stroke-width:5;stroke-linecap:square;stroke-dasharray:none"
             id="path23" /></g></g></g><text
       xml:space="preserve"
       style="font-size:40px;font-family:sans-serif;-inkscape-font-specification:'sans-serif, Normal';text-align:center;text-anchor:middle;fill:#000000;fill-opacity:1;fill-rule:evenodd;stroke-width:5.66929;stroke-dasharray:17.0079, 5.66929;paint-order:stroke markers fill;stroke-linecap:butt;stroke-linejoin:round"
       x="230.33163"
       y="342.08749"
       id="text23877"><tspan
         sodipodi:role="line"
         id="tspan23875"
         style="font-style:normal;font-variant:normal;font-weight:normal;font-stretch:normal;font-size:60px;font-family:sans-serif;-inkscape-font-specification:'sans-serif, Normal';font-variant-ligatures:normal;font-variant-caps:normal;font-variant-numeric:normal;font-variant-east-asian:normal;fill:#000000;stroke-width:5.66929"
         x="230.33163"
         y="342.08749">20°</tspan></text></g><g
     id="g749"
     transform="translate(-101.92571,54.058879)"><text
       xml:space="preserve"
       style="font-size:40px;font-family:sans-serif;-inkscape-font-specification:'sans-serif, Normal';text-align:center;text-anchor:middle;fill:#000000;fill-opacity:1;fill-rule:evenodd;stroke-width:5.66929;stroke-linecap:butt;stroke-linejoin:round;stroke-dasharray:17.0079, 5.66929;paint-order:stroke markers fill"
       x="229.18906"
       y="345.6091"
       id="text23877-0"><tspan
         sodipodi:role="line"
         id="tspan23875-0"
         style="font-style:normal;font-variant:normal;font-weight:normal;font-stretch:normal;font-size:60px;font-family:sans-serif;-inkscape-font-specification:'sans-serif, Normal';font-variant-ligatures:normal;font-variant-caps:normal;font-variant-numeric:normal;font-variant-east-asian:normal;fill:#000000;stroke-width:5.66929"
         x="229.18906"
         y="345.6091">10°</tspan></text><g
       id="figure_1-8"
       transform="rotate(-90,231.74625,190.79221)"
       style="stroke-width:5;stroke-dasharray:none"><g
         id="axes_1-1"
         transform="translate(13.612997,14.917953)"
         style="stroke-width:5;stroke-dasharray:none"><g
           id="line2d_1-3"
           style="stroke-width:5;stroke-dasharray:none"><path
             d="m 229.80816,287.14631 2.73991,0.10597 4.99704,-0.0261 6.01392,-0.25893 7.10869,-0.54499 7.15048,-0.76295 8.17911,-1.10061 8.31647,-1.34159 9.1429,-1.71027 8.92384,-1.88927 9.57098,-2.25232 10.20592,-2.64539 9.59434,-2.70539 10.07569,-3.05992 10.54648,-3.43471 11.00609,-3.82951 11.45392,-4.24398 10.37982,-4.06872 10.70453,-4.41366 11.02023,-4.77116 v 0"
             clip-path="url(#p99559126f7)"
             style="fill:none;stroke:#000000;stroke-width:5;stroke-linecap:square;stroke-dasharray:none"
             id="path663" /></g><g
           id="line2d_2-8"
           style="stroke-width:5;stroke-dasharray:none"><path
             d="m 229.80816,61.909691 2.73991,-0.10597 4.99704,0.02615 6.01392,0.258926 7.10869,0.54499 7.15048,0.762953 8.17911,1.100612 8.31647,1.341583 9.1429,1.710279 8.92384,1.889263 9.57098,2.252324 10.20592,2.645386 9.59434,2.705393 10.07569,3.059917 10.54648,3.434716 11.00609,3.829505 11.45392,4.243982 10.37982,4.06872 10.70453,4.41366 11.02023,4.77116 v 0"
             clip-path="url(#p99559126f7)"
             style="fill:none;stroke:#000000;stroke-width:5;stroke-linecap:square;stroke-dasharray:none"
             id="path666" /></g><g
           id="line2d_3-7"
           style="stroke-width:5;stroke-dasharray:none"><path
             d="m 396.93852,244.19276 0.72644,-18.89616 0.49844,-18.90355 0.27036,-18.90818 0.0422,-18.91008 -0.18588,-18.90921 -0.41397,-18.90558 -0.64201,-18.89922 -0.29563,-6.99754 v 0"
             clip-path="url(#p99559126f7)"
             style="fill:none;stroke:#000000;stroke-width:5;stroke-linecap:square;stroke-dasharray:none"
             id="path669" /></g><g
           id="line2d_4-2"
           style="stroke-width:5;stroke-dasharray:none"><path
             d="M 73.832727,274.58917 229.80816,287.14631"
             clip-path="url(#p99559126f7)"
             style="fill:none;stroke:#000000;stroke-width:5;stroke-linecap:square;stroke-dasharray:none"
             id="path672" /></g><g
           id="line2d_5-2"
           style="stroke-width:5;stroke-dasharray:none"><path
             d="M 73.832727,74.466825 229.80816,61.909691"
             clip-path="url(#p99559126f7)"
             style="fill:none;stroke:#000000;stroke-width:5;stroke-linecap:square;stroke-dasharray:none"
             id="path675" /></g></g></g></g><g
     id="g881"
     transform="translate(197.43921,56.726988)"><text
       xml:space="preserve"
       style="font-size:40px;font-family:sans-serif;-inkscape-font-specification:'sans-serif, Normal';text-align:center;text-anchor:middle;fill:#000000;fill-opacity:1;fill-rule:evenodd;stroke-width:5.66929;stroke-linecap:butt;stroke-linejoin:round;stroke-dasharray:17.0079, 5.66929;paint-order:stroke markers fill"
       x="229.18906"
       y="342.88239"
       id="text23877-0-5"><tspan
         sodipodi:role="line"
         id="tspan23875-0-2"
         style="font-style:normal;font-variant:normal;font-weight:normal;font-stretch:normal;font-size:60px;font-family:sans-serif;-inkscape-font-specification:'sans-serif, Normal';font-variant-ligatures:normal;font-variant-caps:normal;font-variant-numeric:normal;font-variant-east-asian:normal;fill:#000000;stroke-width:5.66929"
         x="229.18906"
         y="342.88239">14.5°</tspan></text><g
       id="figure_1-6"
       transform="rotate(-90,232.39593,176.52393)"
       style="stroke-width:5;stroke-dasharray:none"><g
         id="axes_1-5"
         style="stroke-width:5;stroke-dasharray:none"><g
           id="line2d_1-0"
           style="stroke-width:5;stroke-dasharray:none"><path
             d="m 204.61903,295.34551 2.79249,0.11882 4.83467,-0.001 6.10918,-0.22852 6.55208,-0.45636 7.80804,-0.7777 8.17598,-1.04912 8.22475,-1.27072 9.03387,-1.62208 9.83024,-2.01358 9.3951,-2.15063 10.00215,-2.51892 10.59735,-2.91448 9.75093,-2.8958 10.18777,-3.23705 10.61499,-3.59587 11.0321,-3.97198 11.43858,-4.36517 11.83393,-4.77514 12.21768,-5.20161 10.76857,-4.81026 11.03373,-5.14552 7.49912,-3.62147 v 0"
             clip-path="url(#pf2e16489f4)"
             style="fill:none;stroke:#000000;stroke-width:5;stroke-linecap:square;stroke-dasharray:none"
             id="path795" /></g><g
           id="line2d_2-2"
           style="stroke-width:5;stroke-dasharray:none"><path
             d="m 204.61903,53.710485 2.79249,-0.11882 4.83467,0.0012 6.10918,0.228516 6.55208,0.456361 7.80804,0.7777 8.17598,1.049116 8.22475,1.270723 9.03387,1.622083 9.83024,2.013579 9.3951,2.150627 10.00215,2.518922 10.59735,2.914474 9.75093,2.895806 10.18777,3.237052 10.61499,3.595862 11.0321,3.971987 11.43858,4.365169 11.83393,4.775139 12.21768,5.201612 10.76857,4.810257 11.03373,5.14551 7.49912,3.62148 v 0"
             clip-path="url(#pf2e16489f4)"
             style="fill:none;stroke:#000000;stroke-width:5;stroke-linecap:square;stroke-dasharray:none"
             id="path798" /></g><g
           id="line2d_3-0"
           style="stroke-width:5;stroke-dasharray:none"><path
             d="m 404.35233,238.84115 0.63028,-18.73868 0.41529,-18.74467 0.20024,-18.7482 -0.0148,-18.74927 -0.22991,-18.74787 -0.44494,-18.74399 -0.55613,-16.15362 v 0"
             clip-path="url(#pf2e16489f4)"
             style="fill:none;stroke:#000000;stroke-width:5;stroke-linecap:square;stroke-dasharray:none"
             id="path801" /></g><g
           id="line2d_4-5"
           style="stroke-width:5;stroke-dasharray:none"><path
             d="M 66.701913,283.72139 204.61903,295.34551"
             clip-path="url(#pf2e16489f4)"
             style="fill:none;stroke:#000000;stroke-width:5;stroke-linecap:square;stroke-dasharray:none"
             id="path804" /></g><g
           id="line2d_5-6"
           style="stroke-width:5;stroke-dasharray:none"><path
             d="M 66.701913,65.334607 204.61903,53.710485"
             clip-path="url(#pf2e16489f4)"
             style="fill:none;stroke:#000000;stroke-width:5;stroke-linecap:square;stroke-dasharray:none"
             id="path807" /></g></g></g></g><g
     id="g1090"
     transform="translate(796.16905,58.494547)"><text
       xml:space="preserve"
       style="font-size:40px;font-family:sans-serif;-inkscape-font-specification:'sans-serif, Normal';text-align:center;text-anchor:middle;fill:#000000;fill-opacity:1;fill-rule:evenodd;stroke-width:5.66929;stroke-linecap:butt;stroke-linejoin:round;stroke-dasharray:17.0079, 5.66929;paint-order:stroke markers fill"
       x="230.33163"
       y="341.19296"
       id="text23877-0-5-6"><tspan
         sodipodi:role="line"
         id="tspan23875-0-2-9"
         style="font-style:normal;font-variant:normal;font-weight:normal;font-stretch:normal;font-size:60px;font-family:sans-serif;-inkscape-font-specification:'sans-serif, Normal';font-variant-ligatures:normal;font-variant-caps:normal;font-variant-numeric:normal;font-variant-east-asian:normal;fill:#000000;stroke-width:5.66929"
         x="230.33163"
         y="341.19296">25°</tspan></text><g
       id="figure_1-63"
       transform="rotate(-90,232.3958,176.5238)"
       style="stroke-width:5;stroke-dasharray:none"><g
         id="axes_1-7"
         style="stroke-width:5;stroke-dasharray:none"><g
           id="line2d_1-7"
           style="stroke-width:5;stroke-dasharray:none"><path
             d="m 132.90874,295.25086 2.39838,0.15547 4.41344,0.0815 5.49157,-0.12099 6.38106,-0.37048 6.86295,-0.62372 6.98064,-0.84093 7.79776,-1.15865 8.60199,-1.52212 8.1749,-1.66557 8.76828,-2.00846 9.34947,-2.38094 9.91741,-2.78263 8.94183,-2.72664 9.33894,-3.06075 9.72584,-3.41243 10.10197,-3.78141 10.46679,-4.16738 10.81976,-4.57004 11.16034,-4.98905 11.488,-5.42406 9.81396,-4.86365 10.02415,-5.18547 10.22606,-5.51596 10.41945,-5.85494 10.6041,-6.2022 10.77976,-6.55753 10.94624,-6.92074 4.423,-2.87172 v 0"
             clip-path="url(#pafffaa55da)"
             style="fill:none;stroke:#000000;stroke-width:5;stroke-linecap:square;stroke-dasharray:none"
             id="path927" /></g><g
           id="line2d_2-9"
           style="stroke-width:5;stroke-dasharray:none"><path
             d="m 132.90874,53.805143 2.39838,-0.155473 4.41344,-0.08151 5.49157,0.120998 6.38106,0.370472 6.86295,0.623728 6.98064,0.840926 7.79776,1.158653 8.60199,1.522112 8.1749,1.665577 8.76828,2.008459 9.34947,2.380943 9.91741,2.782628 8.94183,2.726639 9.33894,3.060747 9.72584,3.412431 10.10197,3.78141 10.46679,4.167385 10.81976,4.57004 11.16034,4.989046 11.488,5.424058 9.81396,4.863648 10.02415,5.18547 10.22606,5.51596 10.41945,5.85494 10.6041,6.2022 10.77976,6.55753 10.94624,6.92074 4.423,2.87172 v 0"
             clip-path="url(#pafffaa55da)"
             style="fill:none;stroke:#000000;stroke-width:5;stroke-linecap:square;stroke-dasharray:none"
             id="path930" /></g><g
           id="line2d_3-9"
           style="stroke-width:5;stroke-dasharray:none"><path
             d="m 377.32678,205.90938 0.29119,-17.34548 0.0688,-17.3478 -0.15369,-17.34725 -0.20626,-10.72223 v 0"
             clip-path="url(#pafffaa55da)"
             style="fill:none;stroke:#000000;stroke-width:5;stroke-linecap:square;stroke-dasharray:none"
             id="path933" /></g><g
           id="line2d_4-6"
           style="stroke-width:5;stroke-dasharray:none"><path
             d="m 94.629228,291.08057 38.279512,4.17029"
             clip-path="url(#pafffaa55da)"
             style="fill:none;stroke:#000000;stroke-width:5;stroke-linecap:square;stroke-dasharray:none"
             id="path936" /></g><g
           id="line2d_5-3"
           style="stroke-width:5;stroke-dasharray:none"><path
             d="m 94.629228,57.975433 38.279512,-4.17029"
             clip-path="url(#pafffaa55da)"
             style="fill:none;stroke:#000000;stroke-width:5;stroke-linecap:square;stroke-dasharray:none"
             id="path939" /></g></g></g></g><g
     id="g1181"
     transform="translate(1095.534,52.320482)"><text
       xml:space="preserve"
       style="font-size:40px;font-family:sans-serif;-inkscape-font-specification:'sans-serif, Normal';text-align:center;text-anchor:middle;fill:#000000;fill-opacity:1;fill-rule:evenodd;stroke-width:5.66929;stroke-linecap:butt;stroke-linejoin:round;stroke-dasharray:17.0079, 5.66929;paint-order:stroke markers fill"
       x="230.27304"
       y="347.367"
       id="text23877-0-5-6-6"><tspan
         sodipodi:role="line"
         id="tspan23875-0-2-9-6"
         style="font-style:normal;font-variant:normal;font-weight:normal;font-stretch:normal;font-size:60px;font-family:sans-serif;-inkscape-font-specification:'sans-serif, Normal';font-variant-ligatures:normal;font-variant-caps:normal;font-variant-numeric:normal;font-variant-east-asian:normal;fill:#000000;stroke-width:5.66929"
         x="230.27304"
         y="347.367">30°</tspan></text><g
       id="figure_1-9"
       transform="matrix(0,-1.0837047,1.0837047,0,41.26318,428.82038)"
       style="stroke-width:4.61380301;stroke-dasharray:none"><g
         id="axes_1-4"
         style="stroke-width:4.61380301;stroke-dasharray:none"><g
           id="line2d_1-5"
           style="stroke-width:4.61380301;stroke-dasharray:none"><path
             d="m 113.39759,295.488 5.75942,-0.18473 6.4589,-0.4447 6.83912,-0.70207 6.93178,-0.92521 7.65549,-1.24765 7.40159,-1.41408 7.95211,-1.73191 8.49079,-2.07886 9.01652,-2.45454 8.30967,-2.47811 8.6913,-2.80602 9.06215,-3.15224 9.42163,-3.51649 9.76909,-3.89838 10.10393,-4.29759 10.42555,-4.71372 9.18171,-4.38408 9.39882,-4.71211 9.6066,-5.05009 9.80474,-5.39776 9.99293,-5.75487 10.17089,-6.12117 10.33835,-6.4964 10.49501,-6.88028 10.64063,-7.27254 10.77492,-7.67288 10.89764,-8.08102 1.82738,-1.38705 v 0"
             clip-path="url(#peb3bf14a65)"
             style="fill:none;stroke:#000000;stroke-width:4.61380301;stroke-linecap:square;stroke-dasharray:none"
             id="path1132" /></g><g
           id="line2d_2-4"
           style="stroke-width:4.61380301;stroke-dasharray:none"><path
             d="m 113.39759,53.568 5.75942,0.184728 6.4589,0.444698 6.83912,0.702071 6.93178,0.92521 7.65549,1.247654 7.40159,1.414076 7.95211,1.731911 8.49079,2.078865 9.01652,2.454533 8.30967,2.478114 8.6913,2.806016 9.06215,3.152246 9.42163,3.516484 9.76909,3.898386 10.10393,4.29759 10.42555,4.713719 9.18171,4.384074 9.39882,4.712116 9.6066,5.050089 9.80474,5.39776 9.99293,5.75487 10.17089,6.12117 10.33835,6.4964 10.49501,6.88028 10.64063,7.27254 10.77492,7.67288 10.89764,8.08102 1.82738,1.38705 v 0"
             clip-path="url(#peb3bf14a65)"
             style="fill:none;stroke:#000000;stroke-width:4.61380301;stroke-linecap:square;stroke-dasharray:none"
             id="path1135" /></g><g
           id="line2d_3-4"
           style="stroke-width:4.61380301;stroke-dasharray:none"><path
             d="m 358.81625,190.23145 0.10609,-16.09802 -0.10609,-15.30888 v 0"
             clip-path="url(#peb3bf14a65)"
             style="fill:none;stroke:#000000;stroke-width:4.61380301;stroke-linecap:square;stroke-dasharray:none"
             id="path1138" /></g><g
           id="line2d_4-9"
           style="stroke-width:4.61380301;stroke-dasharray:none" /><g
           id="line2d_5-28"
           style="stroke-width:4.61380301;stroke-dasharray:none" /></g></g></g><g
     id="g1272"
     transform="translate(1394.8989,47.298499)"><text
       xml:space="preserve"
       style="font-size:40px;font-family:sans-serif;-inkscape-font-specification:'sans-serif, Normal';text-align:center;text-anchor:middle;fill:#000000;fill-opacity:1;fill-rule:evenodd;stroke-width:5.66929;stroke-linecap:butt;stroke-linejoin:round;stroke-dasharray:17.0079, 5.66929;paint-order:stroke markers fill"
       x="230.27304"
       y="352.38901"
       id="text23877-0-5-6-1"><tspan
         sodipodi:role="line"
         id="tspan23875-0-2-9-9"
         style="font-style:normal;font-variant:normal;font-weight:normal;font-stretch:normal;font-size:60px;font-family:sans-serif;-inkscape-font-specification:'sans-serif, Normal';font-variant-ligatures:normal;font-variant-caps:normal;font-variant-numeric:normal;font-variant-east-asian:normal;fill:#000000;stroke-width:5.66929"
         x="230.27304"
         y="352.38901">35°</tspan></text><g
       id="figure_1-5"
       transform="matrix(0,-1.2787354,1.2787354,0,7.2248621,474.88841)"
       style="stroke-width:3.91011307;stroke-dasharray:none"><g
         id="axes_1-0"
         style="stroke-width:3.91011307;stroke-dasharray:none"><g
           id="line2d_1-2"
           style="stroke-width:3.91011307;stroke-dasharray:none"><path
             d="m 128.58094,295.488 7.43972,-1.67033 7.89135,-1.9899 8.33104,-2.33415 8.75777,-2.70268 8.23536,-2.76721 8.55894,-3.10207 8.8711,-3.4536 9.17125,-3.8215 9.45877,-4.20534 8.6385,-4.07291 8.84561,-4.39917 9.0427,-4.73582 9.22946,-5.08256 9.40553,-5.43915 9.5706,-5.80526 9.72433,-6.18058 9.86643,-6.56481 8.7403,-6.06615 8.83177,-6.37243 8.91488,-6.68406 8.98946,-7.00081 9.05537,-7.32248 9.11245,-7.64887 9.16054,-7.97975 1.31205,-1.16723 v 0"
             clip-path="url(#p06c44e4fae)"
             style="fill:none;stroke:#000000;stroke-width:3.91011307;stroke-linecap:square;stroke-dasharray:none"
             id="path1223" /></g><g
           id="line2d_2-28"
           style="stroke-width:3.91011307;stroke-dasharray:none"><path
             d="m 128.58094,53.568 7.43972,1.670331 7.89135,1.989895 8.33104,2.334152 8.75777,2.702684 8.23536,2.767212 8.55894,3.102062 8.8711,3.453608 9.17125,3.821493 9.45877,4.20534 8.6385,4.072917 8.84561,4.399169 9.0427,4.735812 9.22946,5.082568 9.40553,5.439147 9.5706,5.80526 9.72433,6.18058 9.86643,6.56481 8.7403,6.06615 8.83177,6.37243 8.91488,6.68406 8.98946,7.00081 9.05537,7.32248 9.11245,7.64887 9.16054,7.97975 1.31205,1.16723 v 0"
             clip-path="url(#p06c44e4fae)"
             style="fill:none;stroke:#000000;stroke-width:3.91011307;stroke-linecap:square;stroke-dasharray:none"
             id="path1226" /></g><g
           id="line2d_3-8"
           style="stroke-width:3.91011307;stroke-dasharray:none"><path
             d="m 343.73622,176.91918 v -4.78236 0"
             clip-path="url(#p06c44e4fae)"
             style="fill:none;stroke:#000000;stroke-width:3.91011307;stroke-linecap:square;stroke-dasharray:none"
             id="path1229" /></g><g
           id="line2d_4-7"
           style="stroke-width:3.91011307;stroke-dasharray:none" /><g
           id="line2d_5-23"
           style="stroke-width:3.91011307;stroke-dasharray:none" /></g></g></g></svg>
