<?xml version="1.0" encoding="UTF-8" standalone="no"?>
<!-- Created with Inkscape (http://www.inkscape.org/) -->

<svg
   width="180.35846mm"
   height="77.455688mm"
   viewBox="0 0 180.35846 77.455688"
   version="1.1"
   id="svg5"
   xml:space="preserve"
   xmlns="http://www.w3.org/2000/svg"
   xmlns:svg="http://www.w3.org/2000/svg"><defs
     id="defs2" /><g
     id="g1278"
     transform="translate(-12.381892,-7.546799)"><g
       id="g1270"><path
         style="display:inline;fill:none;fill-opacity:1;stroke:#343b5e;stroke-width:1.25;stroke-dasharray:none;stroke-opacity:1"
         d="m 164.44116,79.849333 c -1.30756,-0.03311 -2.55345,-0.123915 -3.76416,-0.27436 -0.10793,-0.01341 -0.31756,-0.03814 -0.46584,-0.05492 -0.58904,-0.06676 -2.83791,-0.47335 -3.4474,-0.623275 -0.20406,-0.05017 -0.56435,-0.134902 -0.80065,-0.188243 -0.28587,-0.06455 -0.43986,-0.124003 -0.46023,-0.177714 -0.0443,-0.116942 -0.50631,-2.010122 -0.61416,-2.516892 -0.0504,-0.236877 -0.15574,-0.677545 -0.23407,-0.979276 -0.0784,-0.301739 -0.24983,-0.989139 -0.38112,-1.527562 -0.13123,-0.538438 -0.26377,-1.075573 -0.29441,-1.193646 -0.0993,-0.382406 -0.46575,-1.884834 -0.46864,-1.921132 -0.005,-0.06151 -0.52054,-0.289279 -0.80281,-0.35459 -0.33157,-0.07678 -1.11288,-0.0378 -1.38164,0.0688 -0.1042,0.04137 -0.30994,0.140372 -0.4572,0.220067 -0.21961,0.118843 -0.27872,0.178812 -0.32886,0.33353 -0.0598,0.184424 -0.41239,1.652737 -0.63258,2.634097 -0.0608,0.271143 -0.1365,0.603972 -0.16814,0.739631 -0.0317,0.135652 -0.0713,0.313121 -0.0882,0.394364 -0.0744,0.358497 -0.27437,1.232835 -0.41154,1.799928 -0.22596,0.934123 -0.43482,1.824314 -0.60769,2.589997 -0.17487,0.774559 -0.40335,1.653907 -0.44088,1.696831 -0.041,0.04689 -0.3686,-0.06554 -0.59149,-0.202987 -0.11511,-0.07105 -0.49385,-0.290133 -0.84166,-0.486919 -0.85375,-0.48305 -0.89699,-0.509266 -1.62447,-0.984806 -0.77074,-0.503819 -1.94677,-1.343706 -3.16876,-2.263048 -0.24412,-0.183651 -0.6788,-0.510693 -0.96596,-0.726758 -0.73911,-0.556156 -0.71698,-0.496851 -0.53707,-1.438507 0.0816,-0.427203 0.17898,-0.920825 0.21635,-1.096926 0.0738,-0.347657 0.35698,-1.786767 0.53744,-2.730865 0.062,-0.324626 0.16798,-0.85612 0.23543,-1.181114 0.0675,-0.324999 0.1851,-0.999291 0.26147,-1.498443 0.0764,-0.499151 0.15921,-1.038033 0.18411,-1.19752 l 0.0452,-0.289977 -0.21281,-0.185038 c -0.36043,-0.313369 -1.02904,-0.448828 -1.63455,-0.331146 -0.29031,0.05643 -0.29239,0.05827 -0.82581,0.718022 -0.1235,0.152751 -0.36465,0.451109 -0.53588,0.663005 -0.17123,0.211895 -0.56719,0.697589 -0.87993,1.079306 -0.31272,0.381726 -0.67662,0.832454 -0.80866,1.001642 -0.13203,0.169178 -0.98157,1.162785 -1.88786,2.208001 -0.90628,1.045206 -1.73549,2.00263 -1.84269,2.127611 -0.23369,0.272462 -0.29327,0.26198 -0.56597,-0.09955 -0.2946,-0.390572 -0.62882,-0.892594 -0.63276,-0.95045 -0.002,-0.02943 -0.0219,-0.05965 -0.044,-0.06697 -0.0222,-0.0075 -0.15465,-0.202284 -0.29428,-0.433082 -0.13964,-0.230808 -0.39026,-0.639768 -0.55691,-0.908781 -0.56933,-0.91902 -1.8345,-3.103227 -1.9073,-3.292815 -0.04,-0.104072 -0.12053,-0.270035 -0.179,-0.368795 -0.1332,-0.224951 -0.66865,-1.409573 -0.73638,-1.629224 -0.0476,-0.154387 -0.0279,-0.199147 0.35312,-0.800592 0.22198,-0.350388 0.60331,-0.91918 0.84739,-1.263964 0.24409,-0.344785 0.51883,-0.734915 0.61056,-0.866952 0.0917,-0.132036 0.22131,-0.318318 0.28802,-0.413954 0.0668,-0.09565 0.15068,-0.224541 0.18659,-0.28644 0.44583,-0.768228 1.23913,-1.813589 2.2815,-3.006417 0.11868,-0.135805 0.22645,-0.290594 0.23952,-0.343973 0.013,-0.05341 0.0406,-0.09818 0.0611,-0.09957 0.0762,-0.0052 0.13123,-0.262248 0.13709,-0.640728 0.005,-0.318706 -0.009,-0.403952 -0.0761,-0.468549 -0.13192,-0.126962 -1.12118,-0.517755 -1.28287,-0.50676 -0.0791,0.0054 -0.70955,0.300131 -1.46376,0.684356 -0.19394,0.09879 -0.5751,0.287821 -0.84701,0.420044 -0.27192,0.132223 -0.62133,0.305258 -0.77646,0.384536 -0.91261,0.466331 -1.80467,0.88566 -2.61607,1.229722 -1.6999,0.720822 -1.91369,0.814222 -2.11899,0.925657 -0.19158,0.104038 -0.35054,0.178354 -1.15181,0.538937 -0.17622,0.07934 -0.39085,0.142185 -0.47693,0.13975 -0.18679,-0.0053 -0.18404,0.0024 -0.3854,-1.081154 -0.19667,-1.058365 -0.47694,-5.208864 -0.47334,-7.004936 0.001,-0.679827 0.0189,-1.271964 0.0388,-1.315872 0.0415,-0.09182 0.6854,-0.47684 1.15524,-0.690739 0.47882,-0.217979 1.66248,-0.905218 2.1891,-1.27099 0.25548,-0.177442 0.54859,-0.37354 0.65138,-0.435767 0.10278,-0.06222 0.30023,-0.198457 0.43878,-0.302727 0.13855,-0.10424 0.45475,-0.282584 0.70269,-0.396258 0.24794,-0.113683 0.54626,-0.25146 0.66293,-0.306192 0.24748,-0.116158 0.40715,-0.183326 0.91665,-0.385789 0.54793,-0.217747 0.71095,-0.330768 0.78722,-0.545818 0.0937,-0.264175 0.17531,-0.755555 0.1843,-1.109541 l 0.008,-0.304052 -0.2705,-0.148409 c -0.30817,-0.169062 -0.0462,-0.164271 -3.30703,-0.06054 -1.15684,0.03677 -1.7926,0.0338 -2.38425,-0.0112 -0.44373,-0.03377 -0.97174,-0.07283 -1.17334,-0.08683 -0.62128,-0.04315 -1.74679,-0.07819 -2.47735,-0.07716 -0.60844,8.83e-4 -0.8356,-0.01695 -1.1895,-0.09327 -0.24392,-0.05257 -0.11316,-0.955083 0.28354,-1.956595 0.18278,-0.461484 0.31323,-0.816082 0.3112,-0.845953 -0.002,-0.02624 0.73048,-1.801371 0.87588,-2.123277 0.0311,-0.06887 0.0694,-0.158843 0.0851,-0.199966 0.0157,-0.04116 0.105,-0.243806 0.19842,-0.45041 0.0934,-0.206605 0.25613,-0.567205 0.36155,-0.801326 0.20872,-0.463529 0.47468,-1.02636 0.61622,-1.304113 0.0493,-0.09677 0.14125,-0.293299 0.20424,-0.436643 0.063,-0.143366 0.16953,-0.336297 0.23675,-0.42875 l 0.12221,-0.168099 1.15487,-0.08455 c 1.65875,-0.122821 3.06999,-0.273615 3.56048,-0.381141 0.2338,-0.05128 0.58105,-0.09514 0.77167,-0.09738 1.8558,-0.02228 2.37263,-0.03788 2.5016,-0.0755 0.15019,-0.04379 0.48969,-0.474908 0.70776,-0.89874 0.18103,-0.351842 0.31182,-1.089215 0.19176,-1.081051 -0.0224,0.0015 -0.27628,-0.111873 -0.56438,-0.25197 -0.28809,-0.140087 -0.54925,-0.25341 -0.58035,-0.251806 -0.0311,0.0016 -0.0651,-0.01562 -0.0756,-0.03826 -0.0106,-0.02264 -0.16544,-0.102171 -0.3444,-0.176701 -0.17896,-0.07453 -0.61453,-0.278168 -0.96792,-0.452513 -0.35339,-0.174346 -0.78308,-0.377071 -0.95486,-0.450505 -0.17177,-0.07341 -0.42282,-0.197208 -0.55789,-0.275073 -0.13506,-0.07782 -0.265,-0.140255 -0.28875,-0.13864 -0.0237,0.0016 -0.2559,-0.11368 -0.51589,-0.256199 -0.25998,-0.14252 -0.48853,-0.25806 -0.50791,-0.256742 -0.0194,0.0013 -0.19268,-0.08472 -0.38516,-0.19124 -0.1925,-0.106505 -0.44576,-0.233835 -0.56283,-0.282946 -0.11709,-0.04917 -0.24746,-0.115246 -0.28975,-0.147 -0.0423,-0.03181 -0.23482,-0.126891 -0.42786,-0.211459 -0.19302,-0.0846 -0.55507,-0.258597 -0.80458,-0.386744 -0.2495,-0.128148 -0.5586,-0.279605 -0.68692,-0.33656 -0.24007,-0.106579 -0.45061,-0.296743 -0.45859,-0.414212 -0.008,-0.113428 0.88396,-1.121928 1.89845,-2.147139 0.6083,-0.614737 2.20108,-2.016199 2.98796,-2.629058 0.25121,-0.195644 0.48845,-0.392012 0.52722,-0.436345 0.14445,-0.165191 1.134,-0.881157 1.22657,-0.887452 0.0529,-0.0036 0.48454,0.156055 0.95925,0.354786 0.86335,0.361409 1.68984,0.65847 2.90388,1.04372 0.35547,0.112802 0.70685,0.240848 0.78084,0.284559 0.0739,0.04368 0.15615,0.07798 0.1826,0.07619 0.0264,-0.0018 0.17982,0.05032 0.34086,0.115821 0.16104,0.06553 0.35194,0.128969 0.42423,0.141033 0.0723,0.01212 0.371,0.114894 0.66381,0.228499 0.29281,0.113606 0.55046,0.205337 0.57255,0.203835 0.0222,-0.0015 0.19029,0.05261 0.37377,0.120208 0.18349,0.06761 0.36781,0.120634 0.4096,0.117792 0.0836,-0.0057 0.53841,-0.324907 0.56244,-0.394739 0.008,-0.02402 0.0638,-0.09224 0.12343,-0.151493 0.13743,-0.136648 0.54734,-0.856599 0.64463,-1.132144 0.0698,-0.197658 0.0688,-0.217938 -0.0186,-0.36283 -0.0509,-0.08444 -0.1633,-0.236046 -0.24985,-0.336956 -0.0865,-0.10092 -0.27005,-0.328746 -0.40775,-0.506282 -0.23155,-0.298157 -0.53233,-0.664936 -0.64577,-0.787091 -0.0443,-0.0477 -0.27647,-0.335676 -0.75624,-0.938014 -0.11096,-0.139303 -0.32124,-0.398072 -0.46729,-0.575041 -0.25406,-0.307852 -0.5242,-0.64853 -1.114,-1.404918 -0.14829,-0.190167 -0.31527,-0.397265 -0.37107,-0.460225 -0.10313,-0.116321 -0.32837,-0.389729 -0.61439,-0.745674 -0.0871,-0.108333 -0.23096,-0.279424 -0.31977,-0.380181 -0.0888,-0.100754 -0.19768,-0.246276 -0.24192,-0.323372 -0.0442,-0.07708 -0.11828,-0.176772 -0.16452,-0.221508 -0.14182,-0.137214 -0.37931,-0.539328 -0.3506,-0.593611 0.1,-0.189009 2.769,-1.191731 4.41075,-1.657069 1.05927,-0.300238 1.66558,-0.465094 1.90812,-0.518802 0.15939,-0.0353 0.33276,-0.07645 0.38524,-0.09155 0.0525,-0.0151 0.25711,-0.06379 0.45474,-0.108301 0.19762,-0.04451 0.45593,-0.108784 0.574,-0.142913 0.39225,-0.113273 0.66332,-0.121684 0.77503,-0.02384 0.0973,0.08519 0.55411,0.589775 1.01299,1.118931 0.12025,0.138671 0.36137,0.398601 0.53581,0.577618 0.17444,0.179028 0.44689,0.462637 0.60543,0.630257 0.15853,0.16762 0.33511,0.349951 0.39237,0.405173 0.29345,0.283003 0.86371,0.947474 1.44179,1.679942 0.12999,0.16471 0.28852,0.350543 0.35229,0.41296 0.0638,0.06242 0.16756,0.187865 0.23064,0.278784 0.25497,0.367478 0.5058,0.438033 1.02612,0.288647 1.23522,-0.354641 1.2352,-0.354629 1.66744,-0.716689 0.33772,-0.282905 0.37438,-0.357845 0.44065,-0.900932 0.0467,-0.383033 -0.0828,-1.261232 -0.33463,-2.257829 -0.09,-0.357085 -0.20826,-0.842823 -0.26278,-1.079419 -0.0967,-0.419437 -0.2922,-1.19092 -0.42338,-1.670324 -0.0359,-0.131068 -0.11381,-0.420689 -0.17329,-0.643597 -0.0974,-0.365093 -0.25567,-0.925326 -0.51147,-1.809979 -0.21872,-0.756394 -0.26154,-0.979763 -0.19672,-1.026098 0.0457,-0.03268 0.80091,-0.01557 1.83386,0.04146 0.52629,0.02906 1.54468,0.128948 1.91987,0.188289 0.16781,0.02648 0.35303,0.04495 0.41158,0.04097 0.12718,-0.0086 3.09533,0.510852 3.66835,0.642047 0.22083,0.05053 0.46686,0.120223 0.54674,0.154803 0.15238,0.06591 0.16734,0.103285 0.3635,0.906467 0.0385,0.157582 0.16149,0.64075 0.27334,1.073699 0.11183,0.432951 0.24937,0.969746 0.30561,1.192874 0.0563,0.223127 0.13987,0.534212 0.18581,0.691287 0.046,0.157073 0.1317,0.478938 0.19055,0.71523 0.0588,0.236317 0.19927,0.772901 0.31207,1.192435 0.11282,0.419542 0.23296,0.889935 0.26704,1.045321 0.075,0.342121 0.10029,0.3708 0.42591,0.485142 0.49018,0.172099 1.12883,0.223428 1.79224,0.144066 0.67863,-0.08113 0.74162,-0.111773 1.13006,-0.548293 0.18724,-0.210429 0.29752,-0.409499 0.4874,-0.879775 0.13498,-0.334289 0.24359,-0.636594 0.24137,-0.671784 -0.002,-0.03513 0.021,-0.120907 0.0515,-0.190453 0.0645,-0.146873 0.0426,-0.05422 0.30392,-1.281553 0.28245,-1.326258 0.47244,-2.124568 1.02169,-4.292989 0.11355,-0.448286 0.21538,-0.9063704 0.22628,-1.0179673 0.0274,-0.2809464 0.13263,-0.3026558 0.49344,-0.1018123 1.19194,0.6634306 2.20357,1.2482336 2.72216,1.5735986 1.06811,0.670128 0.93463,0.579916 2.73463,1.848296 0.24264,0.170972 0.60891,0.446207 0.81392,0.611628 l 0.37277,0.300763 -0.1081,0.710551 c -0.0594,0.390812 -0.12957,0.821254 -0.15578,0.956544 -0.0262,0.135278 -0.0808,0.466679 -0.12138,0.736441 -0.0406,0.269766 -0.11304,0.711609 -0.1611,0.981883 -0.0481,0.270274 -0.10809,0.612965 -0.13338,0.761534 -0.0253,0.148577 -0.10417,0.590858 -0.17524,0.982843 -0.0711,0.391985 -0.14881,0.856039 -0.17278,1.031219 -0.0394,0.287415 -0.19935,1.172597 -0.25094,1.388084 -0.0241,0.100768 0.44499,0.5561 0.67593,0.656083 0.0804,0.03482 0.18895,0.0979 0.24107,0.140137 0.20306,0.164592 0.51425,0.250136 0.84751,0.232957 0.89646,-0.04623 1.82523,-0.567823 2.54182,-1.427551 0.099,-0.118707 0.23765,-0.251704 0.30824,-0.295564 0.0706,-0.04389 0.12602,-0.113852 0.12319,-0.155576 -0.008,-0.124093 0.87124,-1.301729 1.35981,-1.820402 0.58118,-0.616982 2.13519,-2.406017 2.22282,-2.559015 0.13486,-0.235422 0.4756,-0.623935 0.55179,-0.629116 0.0431,-0.0029 0.15976,0.09291 0.25927,0.21296 0.23626,0.285038 0.95639,1.20936 0.95774,1.229314 5.5e-4,0.008 0.22037,0.343781 0.48846,0.745037 0.87522,1.310079 2.70726,4.5074 2.79052,4.870117 0.0359,0.156036 0.0222,0.209232 -0.0895,0.361774 -0.24252,0.329974 -0.65192,0.90739 -0.87397,1.232624 -0.25077,0.367361 -0.59646,0.842139 -0.81924,1.125186 -0.0835,0.106089 -0.18227,0.244589 -0.21947,0.307758 -0.0372,0.06317 -0.0796,0.126592 -0.0942,0.140945 -0.0147,0.01433 -0.22549,0.311767 -0.46863,0.660948 -0.24315,0.349171 -0.47233,0.672735 -0.50931,0.719021 -0.0369,0.04631 -0.10089,0.138925 -0.14201,0.205859 -0.1145,0.186388 -0.16919,0.266823 -0.753,1.107539 -0.29885,0.430358 -0.58099,0.839152 -0.62698,0.908431 -0.0794,0.119501 -0.0788,0.133526 0.008,0.273403 0.20414,0.328407 0.70122,0.907005 0.77492,0.901993 0.0269,-0.0018 0.22352,0.07992 0.43686,0.18172 0.466,0.222337 0.72905,0.247658 1.25911,0.121194 0.46293,-0.110462 1.04327,-0.305475 1.06208,-0.35693 0.008,-0.02056 0.0391,-0.03914 0.0703,-0.04126 0.0818,-0.0056 0.874,-0.379752 1.8222,-0.860772 1.03139,-0.52322 1.04134,-0.527766 1.41538,-0.645865 0.17024,-0.05377 0.36271,-0.120386 0.42771,-0.147979 0.065,-0.02767 0.42724,-0.173056 0.80496,-0.323148 0.37773,-0.150073 0.729,-0.29558 0.78062,-0.323357 0.0516,-0.02777 0.23189,-0.112892 0.40061,-0.189245 0.1687,-0.07632 0.5392,-0.244015 0.82333,-0.372668 0.7473,-0.338351 0.69861,-0.355848 0.86954,0.312535 0.38051,1.487823 0.63679,3.692144 0.73137,6.290584 0.0461,1.265312 0.0446,1.614522 -0.007,1.705935 -0.0799,0.141755 -0.617,0.501245 -1.33073,0.890626 -0.62111,0.33885 -1.27943,0.709298 -2.60019,1.463173 -1.00034,0.570975 -1.25783,0.715657 -1.92096,1.079326 -0.23213,0.127302 -0.55664,0.306181 -0.72111,0.39752 -0.16447,0.09137 -0.49678,0.274507 -0.73845,0.407059 -0.24166,0.13255 -0.43795,0.258548 -0.43621,0.28001 0.006,0.06838 0.17702,0.501525 0.32795,0.828649 0.12109,0.262459 0.18637,0.341172 0.38321,0.462086 0.49073,0.30144 1.49864,0.627008 1.84885,0.597189 0.0399,-0.0032 0.18296,0.008 0.31793,0.02559 0.63543,0.08219 0.87148,0.0869 2.11884,0.04229 1.15618,-0.04134 1.43923,-0.03563 2.11891,0.04334 0.43146,0.05004 0.95974,0.09306 1.17394,0.09552 0.21419,0.0025 0.42269,0.01055 0.4633,0.01771 0.0406,0.0073 0.40156,0.0038 0.80209,-0.0077 1.30103,-0.03766 1.62417,-0.02836 1.73196,0.04935 0.10982,0.07923 0.11614,0.03791 -0.21468,1.404381 -0.13418,0.554281 -0.65352,2.112045 -0.83161,2.494469 -0.0449,0.09627 -0.94689,2.320449 -1.00794,2.485251 -0.0202,0.0548 -0.1793,0.415131 -0.35334,0.800767 -0.17406,0.385638 -0.35525,0.806 -0.40267,0.934142 -0.0474,0.128143 -0.12139,0.249501 -0.16436,0.269683 -0.12469,0.05849 -1.64999,0.226205 -2.82095,0.310084 -1.20279,0.0858 -2.98006,0.250862 -3.06393,0.283928 -0.03,0.01207 -0.67371,0.04281 -1.4302,0.0703 -0.95586,0.03383 -1.42217,0.06764 -1.5285,0.109955 -0.20046,0.08129 -0.63644,0.635435 -0.69201,0.879567 -0.0895,0.39343 0.32358,1.038419 0.81812,1.277347 0.12873,0.06221 0.32978,0.179279 0.44681,0.260196 0.11702,0.08085 0.23098,0.147338 0.25325,0.147588 0.0223,4.89e-4 0.14356,0.06772 0.26956,0.150057 0.21628,0.141242 1.02989,0.614743 1.32704,0.772306 0.075,0.03981 0.62772,0.281671 1.22831,0.537593 0.6006,0.255912 1.19479,0.528597 1.32045,0.60598 0.28877,0.177838 1.13785,0.629983 1.17792,0.627258 0.0167,-0.0011 0.15857,0.0682 0.31555,0.153986 0.15699,0.08585 0.59257,0.288452 0.96795,0.450286 1.43926,0.620533 1.81693,0.844857 1.73249,1.02907 -0.0598,0.130247 -1.56097,1.813594 -2.03649,2.283468 -0.23815,0.23534 -0.57741,0.571392 -0.75392,0.746771 -0.17651,0.175389 -0.48076,0.46084 -0.67613,0.634324 -0.19536,0.173484 -0.57733,0.516229 -0.84881,0.761633 -1.00582,0.909266 -2.16478,1.845824 -2.29547,1.854992 -0.13913,0.01 -0.31421,-0.0528 -1.55417,-0.555065 -0.58607,-0.237425 -1.07463,-0.431054 -1.08571,-0.430301 -0.0111,7.53e-4 -0.30767,-0.112765 -0.65911,-0.252254 -0.99823,-0.396207 -1.57007,-0.615625 -1.59931,-0.613637 -0.0299,0.002 -2.35574,-0.971712 -2.86686,-1.200241 -0.27556,-0.123189 -0.35987,-0.139596 -0.54299,-0.105614 -0.49279,0.09144 -1.09583,0.644011 -1.36952,1.254827 l -0.14452,0.322518 0.16067,0.202797 c 0.0884,0.111541 0.19431,0.246534 0.23547,0.299985 0.0411,0.05343 0.20556,0.249238 0.36534,0.435046 0.15979,0.185817 0.42783,0.525715 0.59567,0.755317 0.16784,0.229611 0.391,0.520862 0.49589,0.647237 0.81223,0.978448 0.78847,0.950235 0.84772,1.006245 0.0641,0.06059 0.49796,0.560095 0.60691,0.698763 0.0439,0.05595 0.25851,0.314356 0.47683,0.574302 0.21833,0.259957 0.43868,0.524968 0.48967,0.588936 0.051,0.06399 0.19987,0.240093 0.33088,0.391383 0.13099,0.151301 0.32206,0.378602 0.4246,0.505137 0.21309,0.262958 0.27576,0.337037 0.81644,0.965162 0.21658,0.251605 0.43575,0.496971 0.48702,0.545243 0.0513,0.04823 0.0944,0.103858 0.0957,0.123522 0.001,0.01966 0.0352,0.06436 0.0754,0.09924 0.0402,0.03486 0.15057,0.172201 0.2455,0.305076 l 0.17263,0.241615 -0.10309,0.125604 c -0.0567,0.06911 -0.1374,0.128438 -0.17932,0.13188 -0.0419,0.0034 -0.1278,0.05249 -0.19084,0.108999 -0.063,0.05651 -0.1373,0.104756 -0.165,0.107241 -0.0277,0.0024 -0.30414,0.122016 -0.6143,0.26565 -0.52465,0.242965 -1.02056,0.452564 -1.61318,0.681849 -0.34596,0.13384 -1.7362,0.578476 -2.13477,0.682747 -0.184,0.0482 -0.56009,0.150737 -0.83575,0.227978 -0.27567,0.07718 -0.7381,0.197702 -1.02763,0.267676 -0.28952,0.07001 -0.84853,0.205723 -1.24221,0.301645 -0.39369,0.09593 -0.76684,0.165247 -0.82921,0.154012 -0.11228,-0.02023 -0.31037,-0.187424 -0.47421,-0.400459 -0.13437,-0.174706 -0.70945,-0.834199 -1.18374,-1.357466 -0.23935,-0.26408 -0.64659,-0.727919 -0.90497,-1.030757 -0.25837,-0.302828 -0.7085,-0.818367 -1.00028,-1.145635 -0.29176,-0.32725 -0.61205,-0.712347 -0.71174,-0.855753 -0.0997,-0.143409 -0.28418,-0.36025 -0.40995,-0.481858 -0.12576,-0.121628 -0.39276,-0.408314 -0.5933,-0.637095 -0.20054,-0.228791 -0.39464,-0.436241 -0.43133,-0.461008 -0.0367,-0.02477 -0.19922,-0.06283 -0.36121,-0.08443 -0.38741,-0.05183 -0.87607,0.08032 -1.35662,0.366956 -0.35017,0.208839 -0.91726,0.7284 -0.91669,0.839869 2.6e-4,0.03336 -0.0214,0.0621 -0.0481,0.06391 -0.10805,0.0073 -0.0285,0.41506 0.33662,1.724776 0.0548,0.196518 0.1467,0.572566 0.20427,0.835667 0.0576,0.26308 0.11978,0.510089 0.13827,0.548873 0.0185,0.03884 0.0593,0.188945 0.0906,0.333666 0.0761,0.351765 0.29842,1.185575 0.4257,1.597348 0.0566,0.183066 0.12674,0.429512 0.156,0.547679 0.10994,0.444956 0.78032,2.857683 0.93988,3.382868 0.32756,1.0782 0.35437,1.202688 0.25613,1.189683 -0.018,-0.0028 -0.23007,-0.0094 -0.47127,-0.01546 z m -6.68683,-21.531781 c 0.76344,-0.153038 0.81353,-0.165696 1.70005,-0.429671 0.57646,-0.171655 1.47932,-0.538436 2.19239,-0.890636 0.52139,-0.257518 1.67742,-0.929497 1.78184,-1.035737 0.0395,-0.04017 0.0874,-0.0741 0.10637,-0.07539 0.019,-0.0013 0.0593,-0.02669 0.0896,-0.05641 0.0302,-0.02972 0.19057,-0.153824 0.35617,-0.27576 0.65893,-0.485183 1.47103,-1.251957 2.17493,-2.053541 0.68528,-0.780391 1.16358,-1.448341 1.73676,-2.4254 0.38747,-0.66051 0.80286,-1.582347 1.04701,-2.323499 0.0729,-0.221363 0.17131,-0.503423 0.21863,-0.626797 0.0473,-0.123366 0.13867,-0.445224 0.203,-0.715241 0.0643,-0.270007 0.13856,-0.520821 0.16497,-0.557357 0.0265,-0.03648 0.13794,-0.07273 0.24783,-0.0806 0.10989,-0.0078 0.29909,-0.05171 0.42042,-0.09765 0.25942,-0.09823 0.6501,-0.159845 1.88463,-0.297159 0.57759,-0.06424 0.92734,-0.122899 0.9608,-0.161158 0.0377,-0.04305 0.0283,-0.36543 -0.0332,-1.133161 -0.12751,-1.594925 -0.41291,-4.594944 -0.48265,-5.073355 -0.0542,-0.371646 -0.0733,-0.422278 -0.17016,-0.451696 -0.0601,-0.01817 -0.59806,-0.01305 -1.19565,0.01135 -1.10884,0.04543 -2.0698,0.03514 -2.27166,-0.02424 -0.062,-0.01814 -0.13934,-0.09176 -0.17206,-0.163434 -0.0327,-0.07164 -0.14868,-0.309957 -0.25772,-0.529485 -0.62733,-1.263158 -0.7665,-1.497125 -1.33221,-2.239625 -0.16439,-0.215774 -0.32322,-0.426013 -0.35294,-0.467181 -0.85532,-1.184811 -2.47407,-2.72724 -3.50053,-3.33546 -0.0918,-0.0544 -0.17658,-0.09829 -0.18831,-0.09749 -0.0252,0.0017 -0.35932,-0.16826 -1.06649,-0.542564 -0.28297,-0.149767 -0.52594,-0.271533 -0.53991,-0.270583 -0.014,9.5e-4 -0.1915,-0.0816 -0.39447,-0.18348 -0.63754,-0.319983 -0.88791,-0.405443 -2.10301,-0.717903 -0.94102,-0.241974 -2.05168,-0.418517 -3.098,-0.492469 -1.72919,-0.122194 -4.50239,0.36591 -6.29687,1.108219 -0.99639,0.41219 -1.81531,0.85059 -2.81606,1.507521 -0.12805,0.08408 -0.47064,0.357394 -0.7613,0.6074 -0.29067,0.250006 -0.60125,0.51127 -0.69017,0.580573 -0.14599,0.113776 -0.5939,0.534966 -0.77892,0.732414 -0.46973,0.501324 -0.67454,0.73611 -0.99506,1.140759 -0.20726,0.261654 -0.40773,0.512523 -0.44548,0.557468 -0.19761,0.235279 -0.59227,0.845651 -0.8056,1.245927 -0.13288,0.24934 -0.26081,0.479219 -0.28428,0.510854 -0.18716,0.252219 -0.96115,2.554957 -1.20025,3.57089 -0.0511,0.217077 -0.109,0.461318 -0.1287,0.542752 -0.0994,0.411145 -0.18806,1.343916 -0.22976,2.418672 -0.021,0.541363 0.11906,2.218013 0.24605,2.944592 0.0939,0.537039 0.29591,1.208828 0.51409,1.709048 0.097,0.222361 0.21733,0.499827 0.26744,0.616566 0.0915,0.213056 1.00417,1.813029 1.13303,1.986166 0.0378,0.05085 0.21562,0.289969 0.39509,0.531419 0.51548,0.693515 1.22613,1.440301 2.10645,2.213557 0.48411,0.425225 1.05796,0.872392 1.1146,0.868541 0.0207,-0.0014 0.13324,0.07293 0.25007,0.165044 0.11684,0.09219 0.26902,0.201733 0.33818,0.243437 0.40085,0.24177 0.52464,0.311833 0.96015,0.5435 0.92414,0.491593 1.832,0.863907 2.77712,1.138928 0.35387,0.102959 1.60422,0.368821 2.19638,0.467002 1.25758,0.208519 3.59942,0.143756 5.00731,-0.138454 z"
         id="path302" /><path
         style="fill:none;fill-opacity:1;fill-rule:evenodd;stroke:#000000;stroke-width:1.05821;stroke-dasharray:none;stroke-opacity:1;paint-order:stroke markers fill"
         id="path9560"
         d="m -3.1749996,-39.687498 -0.3199217,-4.707161 -4.7071613,-0.319921 4.7071613,-0.319922 0.3199215,-4.707161 0.3199217,4.707161 4.7071613,0.319921 -4.7071613,0.319922 z"
         transform="matrix(0.5906224,0,0,0.5906224,157.16246,71.409464)" /></g><g
       id="g26173"
       style="display:inline"><circle
         style="display:inline;fill:none;fill-opacity:1;fill-rule:evenodd;stroke:#c9b99f;stroke-width:1.25;stroke-dasharray:2.5, 1.25;stroke-dashoffset:0;stroke-opacity:1;paint-order:stroke markers fill"
         id="path4023"
         cx="155.28723"
         cy="45.000034"
         r="36.828125" /><path
         style="display:inline;fill:none;fill-opacity:1;fill-rule:evenodd;stroke:#000000;stroke-width:1.05821;stroke-dasharray:none;stroke-opacity:1;paint-order:stroke markers fill"
         id="path9560-4-1"
         d="m -3.1749996,-39.687498 -0.3199217,-4.707161 -4.7071613,-0.319921 4.7071613,-0.319922 0.3199215,-4.707161 0.3199217,4.707161 4.7071613,0.319921 -4.7071613,0.319922 z"
         transform="matrix(0.59062239,0,0,0.59062239,73.06823,71.409433)" /><rect
         style="font-variation-settings:normal;display:inline;fill:none;fill-opacity:1;fill-rule:evenodd;stroke:#1a73e8;stroke-width:1.25;stroke-linecap:butt;stroke-linejoin:miter;stroke-miterlimit:4;stroke-dasharray:none;stroke-dashoffset:0;stroke-opacity:1;stop-color:#000000"
         id="rect3768-8"
         width="116.37222"
         height="42.474728"
         x="13.006892"
         y="23.762638"
         rx="10"
         ry="10" /><rect
         style="font-variation-settings:normal;display:inline;fill:#1a5295;fill-opacity:1;fill-rule:evenodd;stroke:#343b5e;stroke-width:1.25;stroke-linecap:butt;stroke-linejoin:miter;stroke-miterlimit:4;stroke-dasharray:none;stroke-dashoffset:0;stroke-opacity:1;stop-color:#000000"
         id="rect3768"
         width="116.37222"
         height="42.474728"
         x="13.006892"
         y="23.762638"
         rx="10"
         ry="10" /><path
         style="display:inline;fill:none;fill-opacity:1;fill-rule:evenodd;stroke:#ffffff;stroke-width:1.05821;stroke-dasharray:none;stroke-opacity:1;paint-order:stroke markers fill"
         id="path9560-4"
         d="m -3.1749996,-39.687498 -0.3199217,-4.707161 -4.7071613,-0.319921 4.7071613,-0.319922 0.3199215,-4.707161 0.3199217,4.707161 4.7071613,0.319921 -4.7071613,0.319922 z"
         transform="matrix(0.5906224,0,0,0.5906224,73.06823,71.409433)" /></g><g
       id="g3243"
       style="display:inline"><g
         id="g3199"
         style="display:inline"><path
           style="display:inline;fill:#2b0000;fill-opacity:1;fill-rule:evenodd;stroke:none;stroke-width:2.69338;stroke-dasharray:none;stroke-opacity:1;paint-order:stroke markers fill"
           id="path6674-9-8-1-8"
           d="m 20.673298,149.01613 3.367596,-1.94428 -1e-6,3.88856 z"
           transform="matrix(0.63130718,0,0,0.71633045,105.60788,-25.009408)" /><rect
           style="font-variation-settings:normal;display:inline;fill:#2b0000;fill-opacity:1;fill-rule:evenodd;stroke-width:0.27227;stroke-linecap:butt;stroke-linejoin:miter;stroke-miterlimit:4;stroke-dasharray:none;stroke-dashoffset:0;stroke-opacity:1;stop-color:#000000"
           id="rect6698-8-7-3-3-4"
           width="2.2"
           height="0.75"
           x="-121.64246"
           y="81.360382"
           transform="scale(-1,1)" /><path
           style="display:inline;fill:#2b0000;fill-opacity:1;fill-rule:evenodd;stroke:none;stroke-width:2.69338;stroke-dasharray:none;stroke-opacity:1;paint-order:stroke markers fill"
           id="path6674-9-8-1-8-7"
           d="m 20.673298,149.01613 3.367596,-1.94428 -1e-6,3.88856 z"
           transform="matrix(-0.63130718,0,0,0.71633045,142.09873,-24.977355)" /><rect
           style="font-variation-settings:normal;display:inline;fill:#2b0000;fill-opacity:1;fill-rule:evenodd;stroke-width:0.27227;stroke-linecap:butt;stroke-linejoin:miter;stroke-miterlimit:4;stroke-dasharray:none;stroke-dashoffset:0;stroke-opacity:1;stop-color:#000000"
           id="rect6698-8-7-3-3-4-5"
           width="2.2"
           height="0.75"
           x="126.06414"
           y="81.392433" /><rect
           style="font-variation-settings:normal;display:inline;fill:#000000;fill-opacity:1;fill-rule:evenodd;stroke-width:0.133945;stroke-linecap:butt;stroke-linejoin:miter;stroke-miterlimit:4;stroke-dasharray:none;stroke-dashoffset:0;stroke-opacity:1;stop-color:#000000"
           id="rect18235-3-0-2-6-0-1"
           width="40.643063"
           height="0.72532344"
           x="44.359417"
           y="-129.76053"
           transform="rotate(90)" /><rect
           style="font-variation-settings:normal;display:inline;fill:#000000;fill-opacity:1;fill-rule:evenodd;stroke-width:0.133945;stroke-linecap:butt;stroke-linejoin:miter;stroke-miterlimit:4;stroke-dasharray:none;stroke-dashoffset:0;stroke-opacity:1;stop-color:#000000"
           id="rect18235-3-0-2-6-0-1-1"
           width="40.643063"
           height="0.72532344"
           x="44.359417"
           y="-118.72533"
           transform="rotate(90)" /><text
           xml:space="preserve"
           style="font-size:14.1111px;font-family:sans-serif;-inkscape-font-specification:'sans-serif, Normal';text-align:center;text-anchor:middle;display:inline;fill:#000000;fill-opacity:1;fill-rule:evenodd;stroke:none;stroke-width:0.2;stroke-dasharray:none;stroke-dashoffset:0;stroke-opacity:1;paint-order:stroke markers fill"
           x="123.84865"
           y="84.738739"
           id="text18356-3"><tspan
             id="tspan18354-2"
             style="font-style:normal;font-variant:normal;font-weight:normal;font-stretch:normal;font-size:8.81944px;font-family:sans-serif;-inkscape-font-specification:'sans-serif, Normal';font-variant-ligatures:normal;font-variant-caps:normal;font-variant-numeric:normal;font-variant-east-asian:normal;stroke:none;stroke-width:0.2"
             x="123.84865"
             y="84.738739">h</tspan></text></g><g
         id="g586"
         transform="translate(1.0757598,1.2160764)"
         style="display:inline"><text
           xml:space="preserve"
           style="font-size:14.1111px;font-family:sans-serif;-inkscape-font-specification:'sans-serif, Normal';text-align:center;text-anchor:middle;display:inline;fill:#000000;fill-opacity:1;fill-rule:evenodd;stroke:none;stroke-width:0.2;stroke-dasharray:none;stroke-dashoffset:0;stroke-opacity:1;paint-order:stroke markers fill"
           x="71.184769"
           y="19.018995"
           id="text18356-3-0"><tspan
             id="tspan18354-2-5"
             style="font-style:normal;font-variant:normal;font-weight:normal;font-stretch:normal;font-size:8.81944px;font-family:sans-serif;-inkscape-font-specification:'sans-serif, Normal';font-variant-ligatures:normal;font-variant-caps:normal;font-variant-numeric:normal;font-variant-east-asian:normal;stroke:none;stroke-width:0.2"
             x="71.184769"
             y="19.018995">Da + 2Xm</tspan></text><path
           style="display:inline;fill:#2b0000;fill-opacity:1;fill-rule:evenodd;stroke:none;stroke-width:1.73911;stroke-dasharray:none;stroke-opacity:1;paint-order:stroke markers fill"
           id="path6674-9-8-1-8-7-6"
           d="m 20.673298,149.01613 3.367596,-1.94428 -1e-6,3.88856 z"
           transform="matrix(-0.9777136,0,0,1.1093903,148.30094,-149.74231)" /><rect
           style="font-variation-settings:normal;display:inline;fill:#2b0000;fill-opacity:1;fill-rule:evenodd;stroke-width:0.27227;stroke-linecap:butt;stroke-linejoin:miter;stroke-miterlimit:4;stroke-dasharray:none;stroke-dashoffset:0;stroke-opacity:1;stop-color:#000000"
           id="rect6698-8-7-3-3-4-5-6"
           width="32.78009"
           height="1.1615347"
           x="94.095078"
           y="14.993961" /><path
           style="display:inline;fill:#2b0000;fill-opacity:1;fill-rule:evenodd;stroke:none;stroke-width:1.73911;stroke-dasharray:none;stroke-opacity:1;paint-order:stroke markers fill"
           id="path6674-9-8-1-8-7-6-6"
           d="m 20.673298,149.01613 3.367596,-1.94428 -1e-6,3.88856 z"
           transform="matrix(0.9777136,0,0,1.1093903,-8.0575026,-149.74216)" /><rect
           style="font-variation-settings:normal;display:inline;fill:#2b0000;fill-opacity:1;fill-rule:evenodd;stroke-width:0.27227;stroke-linecap:butt;stroke-linejoin:miter;stroke-miterlimit:4;stroke-dasharray:none;stroke-dashoffset:0;stroke-opacity:1;stop-color:#000000"
           id="rect6698-8-7-3-3-4-5-6-5"
           width="34.557434"
           height="1.1615347"
           x="-47.925701"
           y="14.994115"
           transform="scale(-1,1)" /><rect
           style="font-variation-settings:normal;display:inline;fill:#000000;fill-opacity:1;fill-rule:evenodd;stroke-width:0.133945;stroke-linecap:butt;stroke-linejoin:miter;stroke-miterlimit:4;stroke-dasharray:none;stroke-dashoffset:0;stroke-opacity:1;stop-color:#000000"
           id="rect18235-3-0-2-6-0-1-1-9-1"
           width="17"
           height="0.72532344"
           x="12.5"
           y="-129.95091"
           transform="rotate(90,0.07015831,-1.1459181)" /><rect
           style="font-variation-settings:normal;display:inline;fill:#000000;fill-opacity:1;fill-rule:evenodd;stroke-width:0.133945;stroke-linecap:butt;stroke-linejoin:miter;stroke-miterlimit:4;stroke-dasharray:none;stroke-dashoffset:0;stroke-opacity:1;stop-color:#000000"
           id="rect18235-3-0-2-6-0-1-1-9"
           width="17"
           height="0.72532344"
           x="12.5"
           y="-13.140158"
           transform="rotate(90,0.07015831,-1.1459181)" /></g></g></g></svg>
