<?xml version="1.0" encoding="UTF-8" standalone="no"?>
<svg
   width="2075"
   height="2046.4257"
   viewBox="0 0 2075 2046.4257"
   version="1.1"
   id="svg21194"
   sodipodi:docname="stlgears.svg"
   inkscape:version="1.2.1 (9c6d41e410, 2022-07-14)"
   xmlns:inkscape="http://www.inkscape.org/namespaces/inkscape"
   xmlns:sodipodi="http://sodipodi.sourceforge.net/DTD/sodipodi-0.dtd"
   xmlns="http://www.w3.org/2000/svg"
   xmlns:svg="http://www.w3.org/2000/svg">
  <defs
     id="defs21198">
    <inkscape:path-effect
       effect="spiro"
       id="path-effect5735"
       is_visible="true"
       lpeversion="1" />
    <inkscape:path-effect
       effect="spiro"
       id="path-effect1056"
       is_visible="true"
       lpeversion="1" />
    <inkscape:path-effect
       effect="spiro"
       id="path-effect3864"
       is_visible="true"
       lpeversion="1" />
    <inkscape:path-effect
       effect="spiro"
       id="path-effect1354"
       is_visible="true"
       lpeversion="1" />
    <inkscape:path-effect
       effect="skeletal"
       id="path-effect6643"
       is_visible="true"
       lpeversion="1"
       pattern="M 0,18.867924 C 0,8.4528302 8.4528302,0 18.867924,0 c 10.415095,0 18.867925,8.4528302 18.867925,18.867924 0,10.415095 -8.45283,18.867925 -18.867925,18.867925 C 8.4528302,37.735849 0,29.283019 0,18.867924 Z"
       copytype="single_stretched"
       prop_scale="1"
       scale_y_rel="false"
       spacing="0"
       normal_offset="0"
       tang_offset="0"
       prop_units="false"
       vertical_pattern="false"
       hide_knot="false"
       fuse_tolerance="0" />
    <inkscape:path-effect
       effect="spiro"
       id="path-effect6641"
       is_visible="true"
       lpeversion="1" />
    <inkscape:path-effect
       effect="skeletal"
       id="path-effect6499"
       is_visible="true"
       lpeversion="1"
       pattern="M 0,18.867924 C 0,8.4528302 8.4528302,0 18.867924,0 c 10.415095,0 18.867925,8.4528302 18.867925,18.867924 0,10.415095 -8.45283,18.867925 -18.867925,18.867925 C 8.4528302,37.735849 0,29.283019 0,18.867924 Z"
       copytype="single_stretched"
       prop_scale="1"
       scale_y_rel="false"
       spacing="0"
       normal_offset="0"
       tang_offset="0"
       prop_units="false"
       vertical_pattern="false"
       hide_knot="false"
       fuse_tolerance="0" />
    <inkscape:path-effect
       effect="spiro"
       id="path-effect6497"
       is_visible="true"
       lpeversion="1" />
    <inkscape:path-effect
       effect="powerstroke"
       id="path-effect6468"
       is_visible="true"
       lpeversion="1"
       offset_points="3.9945303,25.546585"
       not_jump="false"
       sort_points="true"
       interpolator_type="CubicBezierJohan"
       interpolator_beta="0.2"
       start_linecap_type="zerowidth"
       linejoin_type="extrp_arc"
       miter_limit="4"
       scale_width="1"
       end_linecap_type="zerowidth" />
    <inkscape:path-effect
       effect="spiro"
       id="path-effect6466"
       is_visible="true"
       lpeversion="1" />
    <inkscape:path-effect
       effect="powerstroke"
       id="path-effect6456"
       is_visible="true"
       lpeversion="1"
       offset_points="0,16.48136"
       not_jump="false"
       sort_points="true"
       interpolator_type="CubicBezierJohan"
       interpolator_beta="0.2"
       start_linecap_type="zerowidth"
       linejoin_type="extrp_arc"
       miter_limit="4"
       scale_width="1"
       end_linecap_type="zerowidth" />
    <inkscape:path-effect
       effect="spiro"
       id="path-effect6454"
       is_visible="true"
       lpeversion="1" />
    <inkscape:path-effect
       effect="spiro"
       id="path-effect6104"
       is_visible="true"
       lpeversion="1" />
    <inkscape:path-effect
       effect="bspline"
       id="path-effect3616"
       is_visible="true"
       lpeversion="1"
       weight="33.333333"
       steps="2"
       helper_size="0"
       apply_no_weight="true"
       apply_with_weight="true"
       only_selected="false" />
    <inkscape:path-effect
       effect="bspline"
       id="path-effect3620"
       is_visible="true"
       lpeversion="1"
       weight="33.333333"
       steps="2"
       helper_size="0"
       apply_no_weight="true"
       apply_with_weight="true"
       only_selected="false" />
    <inkscape:path-effect
       effect="bspline"
       id="path-effect4857"
       is_visible="true"
       lpeversion="1"
       weight="33.333333"
       steps="2"
       helper_size="0"
       apply_no_weight="true"
       apply_with_weight="true"
       only_selected="false" />
    <inkscape:path-effect
       effect="powerstroke"
       id="path-effect4859"
       is_visible="true"
       lpeversion="1"
       offset_points="0,7.5560631"
       not_jump="false"
       sort_points="true"
       interpolator_type="CubicBezierJohan"
       interpolator_beta="0.2"
       start_linecap_type="zerowidth"
       linejoin_type="extrp_arc"
       miter_limit="4"
       scale_width="1"
       end_linecap_type="zerowidth" />
    <inkscape:path-effect
       effect="bspline"
       id="path-effect4819-7"
       is_visible="true"
       lpeversion="1"
       weight="33.333333"
       steps="2"
       helper_size="0"
       apply_no_weight="true"
       apply_with_weight="true"
       only_selected="false" />
    <inkscape:path-effect
       effect="bspline"
       id="path-effect10953-1"
       is_visible="true"
       lpeversion="1"
       weight="33.333333"
       steps="2"
       helper_size="0"
       apply_no_weight="true"
       apply_with_weight="true"
       only_selected="false" />
    <inkscape:path-effect
       effect="spiro"
       id="path-effect2744"
       is_visible="true"
       lpeversion="1" />
    <inkscape:path-effect
       effect="spiro"
       id="path-effect543"
       is_visible="true"
       lpeversion="1" />
    <inkscape:path-effect
       effect="spiro"
       id="path-effect1247"
       is_visible="true"
       lpeversion="1" />
    <inkscape:path-effect
       effect="powerstroke"
       id="path-effect1249"
       is_visible="true"
       lpeversion="1"
       offset_points="4,5.47726"
       not_jump="false"
       sort_points="true"
       interpolator_type="CubicBezierJohan"
       interpolator_beta="0.2"
       start_linecap_type="zerowidth"
       linejoin_type="extrp_arc"
       miter_limit="4"
       scale_width="1"
       end_linecap_type="zerowidth" />
    <inkscape:path-effect
       effect="bspline"
       id="path-effect4935"
       is_visible="true"
       lpeversion="1"
       weight="33.333333"
       steps="2"
       helper_size="0"
       apply_no_weight="true"
       apply_with_weight="true"
       only_selected="false" />
    <inkscape:path-effect
       effect="bspline"
       id="path-effect5063"
       is_visible="true"
       lpeversion="1"
       weight="33.333333"
       steps="2"
       helper_size="0"
       apply_no_weight="true"
       apply_with_weight="true"
       only_selected="false" />
    <inkscape:path-effect
       effect="spiro"
       id="path-effect2229"
       is_visible="true"
       lpeversion="1" />
    <inkscape:path-effect
       effect="powerstroke"
       id="path-effect2231"
       is_visible="true"
       lpeversion="1"
       offset_points="0.013685472,7.0409354"
       not_jump="false"
       sort_points="true"
       interpolator_type="CubicBezierJohan"
       interpolator_beta="0.2"
       start_linecap_type="zerowidth"
       linejoin_type="extrp_arc"
       miter_limit="4"
       scale_width="1"
       end_linecap_type="zerowidth" />
    <inkscape:path-effect
       effect="bspline"
       id="path-effect4819-7-5"
       is_visible="true"
       lpeversion="1"
       weight="33.333333"
       steps="2"
       helper_size="0"
       apply_no_weight="true"
       apply_with_weight="true"
       only_selected="false" />
    <inkscape:path-effect
       effect="bspline"
       id="path-effect10953-1-1"
       is_visible="true"
       lpeversion="1"
       weight="33.333333"
       steps="2"
       helper_size="0"
       apply_no_weight="true"
       apply_with_weight="true"
       only_selected="false" />
    <inkscape:path-effect
       effect="spiro"
       id="path-effect2744-3"
       is_visible="true"
       lpeversion="1" />
    <inkscape:path-effect
       effect="spiro"
       id="path-effect6641-3"
       is_visible="true"
       lpeversion="1" />
    <inkscape:path-effect
       effect="skeletal"
       id="path-effect6643-7"
       is_visible="true"
       lpeversion="1"
       pattern="M 0,18.867924 C 0,8.4528302 8.4528302,0 18.867924,0 c 10.415095,0 18.867925,8.4528302 18.867925,18.867924 0,10.415095 -8.45283,18.867925 -18.867925,18.867925 C 8.4528302,37.735849 0,29.283019 0,18.867924 Z"
       copytype="single_stretched"
       prop_scale="1"
       scale_y_rel="false"
       spacing="0"
       normal_offset="0"
       tang_offset="0"
       prop_units="false"
       vertical_pattern="false"
       hide_knot="false"
       fuse_tolerance="0" />
    <inkscape:path-effect
       effect="bspline"
       id="path-effect4935-3"
       is_visible="true"
       lpeversion="1"
       weight="33.333333"
       steps="2"
       helper_size="0"
       apply_no_weight="true"
       apply_with_weight="true"
       only_selected="false" />
    <inkscape:path-effect
       effect="bspline"
       id="path-effect5063-9"
       is_visible="true"
       lpeversion="1"
       weight="33.333333"
       steps="2"
       helper_size="0"
       apply_no_weight="true"
       apply_with_weight="true"
       only_selected="false" />
    <inkscape:path-effect
       effect="spiro"
       id="path-effect6497-9"
       is_visible="true"
       lpeversion="1" />
    <inkscape:path-effect
       effect="skeletal"
       id="path-effect6499-9"
       is_visible="true"
       lpeversion="1"
       pattern="M 0,18.867924 C 0,8.4528302 8.4528302,0 18.867924,0 c 10.415095,0 18.867925,8.4528302 18.867925,18.867924 0,10.415095 -8.45283,18.867925 -18.867925,18.867925 C 8.4528302,37.735849 0,29.283019 0,18.867924 Z"
       copytype="single_stretched"
       prop_scale="1"
       scale_y_rel="false"
       spacing="0"
       normal_offset="0"
       tang_offset="0"
       prop_units="false"
       vertical_pattern="false"
       hide_knot="false"
       fuse_tolerance="0" />
    <inkscape:path-effect
       effect="bspline"
       id="path-effect4819-7-2"
       is_visible="true"
       lpeversion="1"
       weight="33.333333"
       steps="2"
       helper_size="0"
       apply_no_weight="true"
       apply_with_weight="true"
       only_selected="false" />
  </defs>
  <sodipodi:namedview
     id="namedview21196"
     pagecolor="#ffffff"
     bordercolor="#000000"
     borderopacity="0.25"
     inkscape:showpageshadow="2"
     inkscape:pageopacity="0.0"
     inkscape:pagecheckerboard="0"
     inkscape:deskcolor="#d1d1d1"
     showgrid="false"
     inkscape:zoom="0.28104732"
     inkscape:cx="1149.2727"
     inkscape:cy="1037.1919"
     inkscape:window-width="1920"
     inkscape:window-height="1001"
     inkscape:window-x="-9"
     inkscape:window-y="-9"
     inkscape:window-maximized="1"
     inkscape:current-layer="layer2" />
  <g
     inkscape:groupmode="layer"
     id="layer3"
     inkscape:label="FrontLayer"
     transform="translate(-60.582937,-74.552242)" />
  <g
     inkscape:groupmode="layer"
     id="layer1"
     inkscape:label="FirstBack">
    <path
       style="display:none;fill:#ffffff;fill-opacity:1;fill-rule:evenodd;stroke:none;stroke-width:9.99998;stroke-dasharray:none;stroke-opacity:1;paint-order:stroke markers fill"
       d="m 603.93207,1039.8701 c 32.6886,0.3371 44.9269,17.2588 73.3221,29.7236 9.3633,4.8254 12.581,13.0006 13.4323,20.4414 -0.3431,10.3539 12.6225,14.6392 16.89591,24.8193 14.1438,37.5441 40.8996,71.043 69.1172,102.6962 40.1776,44.7298 66.2611,99.6073 117.69303,136.081 33.5613,24.359 27.5979,20.7757 61.93091,44.406 8.0664,4.4107 -17.67691,17.4088 -26.43071,21.6062 -18.5834,6.1942 -16.5665,7.303 -35.5876,12.6163 -110.12483,28.6152 -132.67423,32.087 -242.90474,60.4382 -8.3723,1.9609 -41.2896,16.7188 -44.3887,10.8452 -24.5471,-36.9238 -10.7087,-72.3761 -32.1599,-110.5222 -33.8128,-62.0571 -74.1329,-117.114 -83.5455,-184.7708 -1.4344,-19.1726 -6.1425,-33.1386 -4.4087,-52.3024 5.3639,-34.1215 26.2531,-63.7155 58.5918,-87.3897 14.0145,-9.8332 14.6266,-7.1321 32.2343,-11.5887 9.6916,-2.0687 28.6461,-9.1423 38.6616,-9.0938 z"
       id="path6229"
       sodipodi:nodetypes="cccccccccccccccccc"
       inkscape:label="Filler" />
    <path
       style="display:none;fill:#075295;fill-opacity:1;fill-rule:nonzero;stroke:none;stroke-width:25;stroke-dasharray:none;stroke-opacity:1;paint-order:stroke markers fill"
       d="m 881.62655,1466.6511 c -3.55996,-11.5515 -7.91508,-29.0375 -17.37091,-49.529 -13.94752,-24.0834 -32.51583,-44.8804 -54.15062,-65.2808 -20.34556,-19.1848 -42.61162,-37.2632 -62.96577,-55.8741 -19.74777,-20.049 -36.07063,-39.2154 -49.39364,-59.3849 -17.67068,-24.2312 -29.61265,-49.2559 -37.53935,-72.2032 -7.92081,-22.9303 -11.70933,-43.363 -13.86169,-59.3391 -0.0207,-0.1539 -25.40841,2.7329 -25.43072,2.5633 0.0223,0.1696 -25.22991,4.0735 -25.20498,4.2586 5.24722,38.948 23.27522,97.3907 70.09526,150.5282 19.06196,19.9522 41.08736,37.1013 65.0063,53.2807 22.84201,17.1866 46.44142,32.8997 67.78515,49.5574 22.59981,17.638 42.03829,35.765 57.1336,57.3209 13.91849,16.2431 22.3507,32.5937 25.89737,44.102 z"
       id="path6464"
       inkscape:path-effect="#path-effect6466;#path-effect6468"
       inkscape:original-d="m 881.62655,1466.6511 c -9.90645,-20.5201 -15.26583,-34.3427 -21.63414,-46.8155 -10.5485,-20.6598 -77.63539,-77.1278 -121.01757,-114.0166 -43.38226,-36.8888 -30.88461,-20.6654 -57.19997,-56.3328 -26.31538,-35.6675 -58.02848,-124.0302 -60.86102,-141.8829"
       inkscape:label="Leaf"
       sodipodi:nodetypes="csssc" />
    <path
       style="display:none;fill:none;fill-rule:evenodd;stroke:#075295;stroke-width:25;stroke-dasharray:none;stroke-opacity:1;paint-order:stroke markers fill"
       d="m 595.69567,1506.0222 c -4.26576,-45.2342 -8.53153,-90.4686 -32.4842,-146.7559 -23.95266,-56.2872 -67.5884,-123.6188 -69.27542,-179.1931 -1.68702,-55.5743 38.5742,-99.3802 76.16556,-121.0618 37.59137,-21.6816 72.50117,-21.2315 122.30392,1.6971 49.80275,22.9286 114.48866,68.3333 179.17918,113.7412"
       id="path3614"
       inkscape:path-effect="#path-effect3616"
       inkscape:original-d="m 595.69567,1506.0222 c -4.2668,-45.2341 -8.5326,-90.4685 -12.7976,-135.7061 -43.63902,-67.3372 -87.27475,-134.6688 -130.91479,-202.0065 40.26678,-43.8098 80.52801,-87.6156 120.79519,-131.43 34.9145,0.4512 69.8243,0.9013 104.7406,1.3505 64.68731,45.4097 129.37321,90.8144 194.06564,136.2196"
       sodipodi:nodetypes="cccccc" />
    <path
       style="display:none;fill:none;fill-rule:evenodd;stroke:#075295;stroke-width:25;stroke-dasharray:none;stroke-opacity:1;paint-order:stroke markers fill"
       d="m 1041.353,1286.6532 c -35.214,-0.7397 -70.42467,-1.4793 -106.71326,-11.8568 -36.28858,-10.3774 -73.64502,-30.3903 -100.94672,-52.8167 -27.3017,-22.4265 -44.54193,-47.2624 -59.69624,-69.8286 -15.1543,-22.5661 -28.22166,-42.8608 -41.29261,-63.1611"
       id="path3618"
       inkscape:path-effect="#path-effect3620"
       inkscape:original-d="m 1041.353,1286.6532 c -35.214,-0.739 -70.42469,-1.4786 -105.6414,-2.2191 -37.36047,-20.015 -74.71692,-40.0279 -112.07966,-60.0443 -17.24013,-24.8369 -34.48035,-49.6729 -51.72175,-74.5095 C 758.843,1129.5847 745.7756,1109.29 732.70417,1088.99"
       sodipodi:nodetypes="ccccc" />
  </g>
  <g
     inkscape:groupmode="layer"
     id="layer4"
     inkscape:label="SecondBack" />
  <g
     inkscape:groupmode="layer"
     id="layer5"
     inkscape:label="Tip"
     style="display:inline" />
  <g
     inkscape:groupmode="layer"
     id="layer2"
     inkscape:label="Front"
     style="display:inline">
    <rect
       style="font-variation-settings:normal;display:none;opacity:1;vector-effect:none;fill:#ffffff;fill-opacity:1;fill-rule:evenodd;stroke-width:1.14695;stroke-linecap:butt;stroke-linejoin:miter;stroke-miterlimit:4;stroke-dasharray:none;stroke-dashoffset:0;stroke-opacity:1;-inkscape-stroke:none;stop-color:#000000;stop-opacity:1"
       id="rect5560"
       width="49.269157"
       height="25.306231"
       x="1119.5101"
       y="1235.3999"
       ry="6.5774446"
       rx="6.5941844"
       transform="matrix(0.99500346,-0.09984041,0.16832317,0.98573187,0,0)" />
    <rect
       style="font-variation-settings:normal;display:none;opacity:1;vector-effect:none;fill:#ffd5d5;fill-opacity:1;fill-rule:evenodd;stroke-width:1.003;stroke-linecap:butt;stroke-linejoin:miter;stroke-miterlimit:4;stroke-dasharray:none;stroke-dashoffset:0;stroke-opacity:1;-inkscape-stroke:none;stop-color:#000000;stop-opacity:1"
       id="rect5608"
       width="407.58719"
       height="104.41275"
       x="1064.2555"
       y="1000.0983"
       rx="0"
       ry="0" />
    <g
       id="g336"
       transform="matrix(0.98755216,0,0,0.98755216,35.710258,35.218499)">
      <path
         d="m 1046.0546,75.48222 c -18.57,1.061 -61.61198,10.211 -69.63298,14.803 -1.852,1.06 -7.192,3.134 -11.867,4.609 -10.131,3.196 -19.368,8.017 -34.384,17.946 -22.069,14.593 -37.059,26.518 -61.116,48.617 -38.422,35.295 -60.055,51.134 -90,65.895 -18.276,9.01 -31.95,14.019 -42.693,15.642 -4.782,0.723 -9.744,2.002 -11.028,2.843 -3.485,2.284 -26.658,3.408 -84.279,4.088 -69.408,0.82 -92.769,2.311 -119.5,7.626 -31.688,6.302 -63.326,21.695 -94.995,46.221 -12.387,9.592 -43.776,40.542 -53.404,52.656 -9.313,11.717 -20.953,29.297 -24.168,36.5 -7.882,17.663 -16.222,44.049 -23.864,75.5 -5.597,23.034 -8.901,40.909 -12.095,65.43 -4.981,38.242 -8.935,54.164 -19.734,79.466 -12.236,28.669 -24.528,46.021 -52.178,73.657 -18.128,18.119 -28.797,27.222 -61.322,52.321 -21.539,16.62 -31.352,25.747 -44.757,41.626 -28.107,33.296 -39.107999,49.264 -48.784999,70.82 -21.015,46.808 -30.58,109.143 -23.198,151.17998 5.015,28.564 16.109,62.968 27.527,85.371 4.385,8.604 7.973,16.278 7.973,17.053 0,2.532 6.522999,13.364 22.861999,37.961 17.029,25.636 24.738,38.668 31.643,53.492 14.654,31.46 20.803,59.155 20.786,93.623 -0.016,33.094 -2.867,57.024 -11.345,95.208 -9.599,43.237 -9.396,41.484 -9.392,81.292 0.01,36.679 0.885,48.041 5.474,70.612 8.414,41.391 43.744,101.398 77.104,130.961 25.871,22.926 58.616,46.844 68.368,49.938 2.2,0.698 10.75,4.063 19,7.478 14.783,6.119 25.592,9.835 67,23.034 34.998,11.156 55.464,20.384 77.157,34.788 39.273,26.078 58.918,51.114 97.839,124.689 25.749,48.675 35.513,63.047 58.004,85.376 28.094,27.893 56.167,46.337 93.138,61.191 50.997,20.489 101.071,25.503 153.862,15.406 24.766,-4.737 42.994,-10.333 66.359,-20.374 8.053,-3.46 16.441,-6.865 18.641,-7.566 2.2,-0.701 11.374,-4.409 20.388,-8.241 27.36398,-11.632 41.86498,-15.586 73.11198,-19.939 13.909,-1.938 44.981,-1.658 58.327,0.524 27.234,4.454 53.101,12.635 89.673,28.363 29.489,12.683 47.993,18.924 70,23.611 27.664,5.891 39.084,7.047 70,7.087 30.178,0.039 39.876,-0.959 62.733,-6.452 28.12,-6.759 59.602,-21.997 91.608,-44.34 23.33,-16.288 46.645,-37.223 57.56,-51.686 11.898,-15.767 31.759,-49.243 56.999,-96.077 13.136,-24.373 18.378,-32.34 30.851,-46.883 12.303,-14.344 32.811,-34.375 42.749,-41.755 17.938,-13.32 61.34,-32.959 93.13,-42.14 41.957,-12.117 78.861,-27.782 101.87,-43.241 46.904,-31.513 96.442,-91.743 108.866,-132.364 1.513,-4.95 4.354,-13.5 6.311,-19 6.182,-17.371 7.24,-22.675 8.375,-41.977 0.759,-12.922 0.758,-25.046 0,-41.86 -1.759,-38.867 -3.658,-54.03 -10.54,-84.163 -7.901,-34.598 -10.425,-51.925 -11.222,-77.036 -0.895,-28.224 2.477,-52.517 10.881,-78.374 9.79,-30.122 22.67,-55.146 52.031,-101.09 23.813,-37.263 30.086,-50.453 39.832,-83.743 8.54,-29.175 11.534,-51.63398 10.692,-80.20898 -0.605,-20.519 -2.559,-33.859 -8.275,-56.487 -8.503,-33.662 -19.405,-60.347 -33.504,-82.007 -20.349,-31.26 -41.838,-54.566 -73.489,-79.702 -9.374,-7.445 -20.051,-16.349 -23.725,-19.786 -3.675,-3.438 -9.025,-7.446 -11.888,-8.908 -3.332,-1.701 -6.322,-4.25 -8.303,-7.078 -1.925,-2.749 -4.348,-4.842 -6.409,-5.536 -4.42,-1.488 -10.888,-7.062 -20.895,-18.005 -14.819,-16.205 -27.956,-35.35 -39.827,-58.039 -14.932,-28.54 -20.326,-47.926 -26.957,-96.893 -9.196,-67.898 -18.101,-102.032 -35.121,-134.607 -12.653,-24.219 -29.077,-45.682 -54.866,-71.7 -11.384,-11.485 -16.271,-15.717 -19.99,-17.311 -2.708,-1.161 -10.56,-6.077 -17.449,-10.926 -16.678,-11.739 -29.899,-19.071 -45.025,-24.971 -24.082,-9.393 -43.47,-14.603 -63.5,-17.067 -4.4,-0.541 -34.325,-1.432 -66.5,-1.981 -93.315,-1.591 -113.588,-3.402 -141.986,-12.687 -34.371,-11.238 -60.041,-29.326 -120.998,-85.259 -28.189,-25.863 -52.152,-41.884 -82.429,-55.107 -44.904,-19.611 -82.145,-25.361 -142.09,-21.937 m 116.683,315.848 c -13.338,4.606 -18.068,14.739 -27.685,59.294 -5.827,26.998 -7.755,33.466 -11.764,39.464 -4.291,6.422 -10.769,9.841 -22.309,11.777 -18.141,3.043 -70.184,4.615 -83.425,2.519 -8.565,-1.355 -16.194,-5.15 -19.99098,-9.944 -5.244,-6.622 -11.363,-21.3 -22.515,-54.012 -5.907,-17.325 -11.976,-34.246 -13.487,-37.603 -2.725,-6.051 -2.814,-6.13 -10.61,-9.375 -6.987,-2.909 -8.587,-3.212 -14.389,-2.726 -10.728,0.899 -25.268,5.053 -70.508,20.14 -60.668,20.233 -67.747,23.493 -72.217,33.256 -2.321,5.07 -2.494,6.375 -2.019,15.177 0.427,7.886 1.557,13.073 6.239,28.631 12.675,42.114 16.689,59.656 15.097,65.973 -0.935,3.706 -13.507,16.242 -24.356,24.286 -9.246,6.856 -42.98,26.86 -52.489,31.127 -9.889,4.437 -16.652,5.679 -23.08,4.241 -7.727,-1.73 -24.177,-11.865 -33.959,-20.924 -13.274,-12.292 -38.441,-33.066 -45.923,-37.905 -13.581,-8.786 -22.311,-9.542 -32.498,-2.813 -9.802,6.474 -50.742,49.611 -77.837,82.015 -15.66,18.727 -18.684,24.7 -18.572,36.674 0.118,12.594 3.671,17.222 35.439,46.155 24.011,21.867 29.61,27.794 33.214,35.161 3.383,6.914 3.595,15.559 0.571,23.232 -2.698,6.844 -34.408,64.448 -38.818,70.514 -12.177,16.754 -21.982,17.665 -73.993,6.877 -28.825,-5.979 -38.646,-7.4 -47.711,-6.906 -8.909,0.486 -12.587,1.946 -17.645,7.004 -7.791,7.791 -12.433,22.682 -21.912,70.289 -7.698,38.661 -11.201,61.476 -11.384,74.15 -0.142,9.79498 -0.041,10.30198 2.892,14.49998 6.045,8.653 19.078,14.027 50.461,20.807 39.921,8.625 47.051,10.814 53.794,16.511 4.48,3.786 7.18,9.461 8.787,18.469 1.663,9.324 1.94,72.261 0.36,81.997 -3.191,19.668 -11.062,25.727 -51.941,39.986 -35.23,12.288 -40.283,14.206 -48.283,18.328 -18.492,9.526 -19.871,19.378 -8.087,57.752 8.275,26.944 22.64,69.437 26.98,79.806 7.425,17.742 12.465,24.653 21.39,29.334 3.851,2.02 5.798,2.338 13.5,2.207 10.345,-0.176 17.852,-2 48.293,-11.738 25.423,-8.133 33.486,-9.952 41.774,-9.424 6.174,0.393 6.671,0.625 11.446,5.327 8.888,8.755 24.22,31.651 39.393,58.827 15.839,28.37 16.66,33.63 7.45,47.727 -6.302,9.646 -16.776,22.929 -32.277,40.934 -22.811,26.496 -27.828,34.727 -27.766,45.553 0.059,10.172 3.783,16.061 21.175,33.487 21.264,21.304 65.923,60.747 78.327,69.177 24.101,16.381 34.124,12.113 72.158,-30.722 16.965,-19.107 24.323,-26.019 31.027,-29.144 10.208,-4.76 18.458,-2.615 42.267,10.992 8.103,4.63 20.583,11.684 27.733,15.674 30.344,16.935 36.264,22.935 38.03,38.544 0.88,7.779 -1.312,22.814 -7.075,48.532 -9.639,43.008 -9.547,49.389 0.882,61.477 7.24,8.393 18.668,12.472 61.163,21.828 45.357,9.987 65.592,13.775 76.545,14.331 11.717,0.594 13.793,-0.013 21.576,-6.315 8.961,-7.255 13.008,-17.256 21.29898,-52.627 6.364,-27.152 9.243,-36.308 13.345,-42.446 3.978,-5.952 10.742,-9.812 19.757,-11.275 14.095,-2.287 84.524,-0.503 94.487,2.394 3.888,1.13 6.33,2.73 9.755,6.391 7.469,7.986 12.643,19.698 24.139,54.649 16.38,49.8 20.586,53.029 56.807,43.615 31.457,-8.177 84.339,-26.605 106.326,-37.054 25.031,-11.894 25.659,-17.631 7.921,-72.327 -12.771,-39.376 -12.636,-43.79 1.693,-55.364 21.033,-16.99 73.182,-47.51 86.13,-50.408 11.6,-2.596 17.424,1.155 59.72,38.469 28.79,25.399 36.641,28.483 52.071,20.452 6.818,-3.548 19.154,-15.351 45.555,-43.584 50.493,-53.997 60.6,-71.089 51.706,-87.431 -1.957,-3.596 -8.578,-10.664 -21.792,-23.267 -40.028,-38.175 -42.13,-40.713 -41.322,-49.894 0.559,-6.359 3.773,-14.611 13.32,-34.207 13.588,-27.889 29.268,-54.021 37.108,-61.846 6.549,-6.535 8.449,-7.164 21.354,-7.07 9.962,0.073 15.244,0.866 39.5,5.928 25.134,5.245 29.28,5.851 40.5,5.916 11.083,0.064 12.971,-0.18 16.653,-2.149 5.364,-2.868 9.866,-8.386 12.43,-15.235 5.272,-14.08 23.125,-94.936 26.893,-121.794 1.382,-9.851 -0.119,-20.276 -3.778,-26.25 -5.737,-9.367 -17.02,-14.029 -50.743,-20.967 -32.259,-6.636 -40.721,-10.003 -46.654,-18.564 -5.66,-8.165 -6.133,-12.187 -6.557,-55.755 -0.503,-51.696 0.576,-58.684 10.466,-67.801 6.128,-5.648 14.992,-9.508 40.79,-17.763 36.4,-11.64598 42.095,-13.98498 48.816,-20.04998 10.959,-9.888 9.844,-17.867 -12.035,-86.1 -8.301,-25.888 -17.4,-51.429 -21.456,-60.228 -3.695,-8.016 -9.51,-13.823 -17.511,-17.486 -8.578,-3.927 -15.144,-3.05 -41.314,5.516 -31.261,10.232 -36.776,11.555 -48.5,11.632 -12.422,0.082 -16.07,-1.588 -23.254,-10.644 -6.776,-8.543 -18.448,-26.519 -27.657,-42.595 -14.322,-25.001 -20.589,-39.078 -20.589,-46.246 0,-8.167 8.294,-20.615 32.908,-49.393 22.555,-26.37 29.092,-35.916 29.092,-42.482 0,-1.646 -0.504,-6.379 -1.119,-10.519 -1.076,-7.233 -1.356,-7.784 -7.165,-14.124 -7.018,-7.658 -27.426,-26.228 -57.623,-52.431 -35.343,-30.668 -46.269,-37.998 -56.647,-37.999 -9.684,0 -13.295,2.711 -43.946,33.008 -15.4,15.222 -30.227,29.18 -32.948,31.018 -7.491,5.059 -12.796,5.163 -24.65,0.485 -22.624,-8.929 -66.898,-34.286 -79.079,-45.291 -2.164,-1.955 -5.097,-5.539 -6.519,-7.966 -2.443,-4.169 -2.554,-4.946 -1.999,-14.084 0.331,-5.461 2.758,-20.158 5.577,-33.766 13.699,-66.147 11.924,-72.674 -22.382,-82.254 -14.369,-4.013 -45.122,-11.055 -70.082,-16.048 -37.286,-7.458 -50.417,-8.592 -60.235,-5.201"
         stroke="none"
         fill="#045494"
         fill-rule="evenodd"
         id="path21190-8"
         style="fill:#075295;fill-opacity:1"
         inkscape:label="WhiteCycloidal"
         transform="translate(-60.582937,-74.552242)" />
      <path
         d="m 1048.2801,152.33178 c -17.1422,0.97942 -56.87482,9.42591 -64.27911,13.66484 -1.70961,0.9785 -6.63903,2.89304 -10.95459,4.25463 -9.35206,2.95027 -17.87886,7.4006 -31.74033,16.5662 -20.37219,13.47099 -34.20966,24.47912 -56.417,44.879 -35.46786,32.58129 -55.43757,47.20248 -83.0802,60.82856 -16.87082,8.31725 -29.49348,12.94112 -39.41048,14.43934 -4.41433,0.66741 -8.99482,1.84807 -10.1801,2.62441 -3.21705,2.10839 -24.60835,3.14597 -77.79907,3.77369 -64.07145,0.75695 -85.63631,2.13331 -110.31205,7.03966 -29.25162,5.81746 -58.45708,20.02694 -87.69116,42.66722 -11.4346,8.85451 -40.41021,37.42487 -49.29794,48.60746 -8.59696,10.81612 -19.342,27.04445 -22.30981,33.69364 -7.27598,16.30495 -14.97474,40.66222 -22.02918,69.69506 -5.16666,21.263 -8.21663,37.76365 -11.16505,60.39931 -4.59803,35.3017 -8.24802,49.99951 -18.21672,73.35613 -11.29522,26.46474 -22.64213,42.4826 -48.16621,67.99376 -16.7342,16.72589 -26.5829,25.129 -56.60716,48.29822 -19.88294,15.34214 -28.94145,23.7674 -41.31579,38.42552 -25.94595,30.73598 -36.10111,45.47625 -45.03408,65.37489 -19.39923,43.20909 -28.22881,100.75136 -21.41438,139.55628 4.62941,26.3678 14.87043,58.1266 25.41054,78.8071 4.04785,7.9425 7.35998,15.0265 7.35998,15.7419 0,2.3373 6.02146,12.3365 21.10421,35.0423 15.7197,23.6649 22.83598,35.6949 29.21008,49.3792 13.5273,29.0411 19.20353,54.6067 19.18784,86.4246 -0.0148,30.5495 -2.64657,52.6396 -10.47273,87.8878 -8.86096,39.9127 -8.67357,38.2944 -8.66988,75.0417 0.005,33.8589 0.81696,44.3473 5.05313,65.1829 7.76707,38.2086 40.38067,93.6019 71.17573,120.8919 23.88187,21.1633 54.10922,43.2423 63.11142,46.0984 2.03085,0.6443 9.92347,3.7506 17.53915,6.903 13.64639,5.6486 23.62432,9.0789 61.8486,21.263 32.30712,10.2983 51.19956,18.8168 71.22466,32.1133 36.25343,24.073 54.38799,47.184 90.31649,115.1021 23.76925,44.9325 32.78253,58.1995 53.54427,78.8117 25.93395,25.7484 51.84851,42.7743 85.97693,56.4863 47.07602,18.9136 93.3,23.5421 142.03208,14.2214 22.86182,-4.3727 39.68833,-9.5385 61.25688,-18.8075 7.43383,-3.1939 15.1769,-6.3371 17.20775,-6.9842 2.03085,-0.6472 10.4995,-4.0701 18.82044,-7.6074 25.26004,-10.7377 38.64614,-14.3877 67.49064,-18.406 12.8396,-1.789 41.5226,-1.5305 53.8424,0.4837 25.1401,4.1116 49.0183,11.6636 82.7784,26.1823 27.2217,11.7078 44.303,17.469 64.6179,21.7956 25.537,5.4381 36.079,6.5052 64.618,6.5421 27.8577,0.036 36.81,-0.8852 57.9096,-5.9559 25.958,-6.2393 55.0194,-20.3057 84.5646,-40.9308 21.5362,-15.0357 43.0586,-34.3611 53.1344,-47.7121 10.9832,-14.5547 29.3172,-45.4569 52.6166,-88.69 12.126,-22.499 16.9649,-29.8534 28.4789,-43.2783 11.3571,-13.2411 30.2883,-31.732 39.4622,-38.5446 16.5588,-12.2958 56.6238,-30.4249 85.9696,-38.9 38.731,-11.1853 72.7976,-25.6459 94.0375,-39.9163 43.2977,-29.0901 89.0269,-84.6892 100.4957,-122.187 1.3966,-4.5694 4.0192,-12.462 5.8257,-17.5392 5.7067,-16.0354 6.6834,-20.9316 7.7311,-38.7495 0.7007,-11.9285 0.6997,-23.1203 0,-38.6415 -1.6237,-35.8787 -3.3767,-49.8758 -9.7296,-77.692 -7.2935,-31.9379 -9.6235,-47.9327 -10.3592,-71.113 -0.8262,-26.0539 2.2866,-48.4791 10.0444,-72.3481 9.0373,-27.806 20.927,-50.906 48.0305,-93.3175 21.9821,-34.398 27.7728,-46.5739 36.7695,-77.3043 7.8834,-26.9319 10.6472,-47.66403 9.8699,-74.042 -0.5585,-18.94136 -2.3622,-31.25569 -7.6387,-52.1439 -7.8493,-31.07385 -17.9131,-55.70713 -30.928,-75.70176 -18.7845,-28.85653 -38.6213,-50.37061 -67.8387,-73.57399 -8.6533,-6.87258 -18.5094,-15.09198 -21.9009,-18.26472 -3.3924,-3.17366 -8.3311,-6.8735 -10.974,-8.22309 -3.0758,-1.57022 -5.8359,-3.92323 -7.6646,-6.5338 -1.777,-2.53764 -4.0137,-4.46971 -5.9162,-5.11035 -4.0802,-1.3736 -10.0509,-6.51903 -19.2885,-16.62066 -13.6796,-14.95905 -25.8065,-32.63206 -36.7648,-53.57658 -13.7839,-26.34566 -18.7632,-44.24113 -24.8844,-89.44323 -8.4889,-62.67755 -16.7092,-94.1871 -32.4206,-124.25752 -11.6802,-22.35688 -26.8414,-42.16967 -50.6476,-66.18723 -10.5087,-10.60196 -15.0199,-14.50857 -18.453,-15.98002 -2.4998,-1.07173 -9.7481,-5.60976 -16.1074,-10.08593 -15.3957,-10.83643 -27.6002,-17.6047 -41.5632,-23.05107 -22.2304,-8.6708 -40.1277,-13.48022 -58.6177,-15.75477 -4.0617,-0.49941 -31.6859,-1.3219 -61.387,-1.82869 -86.1404,-1.46867 -104.8546,-3.14043 -131.0692,-11.71154 -31.7283,-10.37395 -55.4247,-27.07122 -111.6949,-78.70372 -26.0216,-23.87449 -48.1422,-38.66369 -76.0913,-50.87002 -41.4515,-18.10317 -75.8291,-23.41107 -131.1652,-20.25033 m 107.7117,291.56352 c -12.3125,4.25186 -16.6788,13.60576 -25.5564,54.73508 -5.379,24.92222 -7.1588,30.89291 -10.8595,36.42975 -3.9611,5.92823 -9.941,9.08436 -20.5938,10.8715 -16.7462,2.80904 -64.7878,4.26017 -77.0107,2.32533 -7.9065,-1.25082 -14.9489,-4.75404 -18.4539,-9.17944 -4.84086,-6.11286 -10.48939,-19.66232 -20.78395,-49.8592 -5.45283,-15.99294 -11.0552,-31.61294 -12.45003,-34.71184 -2.51548,-5.58576 -2.59764,-5.65868 -9.79423,-8.65418 -6.44979,-2.68534 -7.92677,-2.96504 -13.28268,-2.51641 -9.90316,0.82988 -23.32523,4.66449 -65.08688,18.5915 -56.00344,18.67736 -62.53816,21.68671 -66.66448,30.69906 -2.14254,4.68019 -2.30224,5.88485 -1.86376,14.01009 0.39417,7.27968 1.43728,12.06786 5.7593,26.42966 11.70046,38.876 15.40584,55.06926 13.93624,60.90056 -0.86311,3.42106 -12.46849,14.99321 -22.48335,22.41873 -8.5351,6.32887 -39.67541,24.79483 -48.45329,28.73375 -9.12867,4.09586 -15.37169,5.24237 -21.30546,3.91493 -7.1329,-1.59699 -22.31811,-10.95274 -31.34801,-19.31523 -12.25341,-11.34691 -35.4854,-30.52366 -42.39214,-34.99061 -12.5368,-8.11047 -20.59558,-8.80835 -29.99933,-2.59672 -9.04836,5.97624 -46.84062,45.79658 -71.85238,75.70915 -14.45596,17.28714 -17.24745,22.8009 -17.14406,33.85426 0.10892,11.62569 3.38875,15.89786 32.71421,42.6063 22.16488,20.18572 27.33339,25.65701 30.66029,32.45759 3.12289,6.3824 3.31859,14.36272 0.5271,21.44577 -2.49056,6.31778 -31.76249,59.49281 -35.83342,65.09241 -11.24075,15.46585 -20.29188,16.3068 -68.30393,6.34826 -26.60874,-5.5193 -35.67464,-6.83104 -44.04266,-6.37503 -8.22402,0.44864 -11.61923,1.79638 -16.28834,6.46549 -7.19197,7.19198 -11.47706,20.93806 -20.22726,64.88472 -7.10612,35.68848 -10.33979,56.74932 -10.50872,68.44887 -0.13108,9.0419 -0.0378,9.5099 2.66965,13.3851 5.58022,7.9877 17.61115,12.9485 46.58122,19.2072 36.85161,7.9619 43.43341,9.9826 49.65796,15.2416 4.13555,3.4949 6.62796,8.7335 8.1114,17.0489 1.53514,8.6071 1.79084,66.7052 0.33232,75.6926 -2.94565,18.1558 -10.21148,23.7489 -47.94743,36.9116 -32.52129,11.3432 -37.18578,13.1138 -44.57069,16.9188 -17.07021,8.7936 -18.34318,17.8881 -7.46521,53.3117 7.63876,24.8724 20.89928,64.0982 24.90559,73.67 6.85412,16.3779 11.50661,22.7575 19.7454,27.0786 3.55491,1.8647 5.35221,2.1582 12.46203,2.0373 9.54961,-0.1625 16.47942,-1.8462 44.57992,-10.8355 23.46831,-7.5077 30.91137,-9.1868 38.56213,-8.6994 5.69931,0.3627 6.15809,0.5769 10.56596,4.9174 8.20463,8.0818 22.35781,29.2175 36.36421,54.304 14.62119,26.1887 15.37907,31.0443 6.87719,44.0574 -5.81746,8.9044 -15.48615,21.1661 -29.79533,37.7867 -21.05714,24.4589 -25.6884,32.057 -25.63117,42.0506 0.0545,9.3899 3.49214,14.8261 19.54693,30.9123 19.62908,19.666 60.8544,56.0764 72.3047,63.8582 22.24796,15.1216 31.50032,11.1817 66.61002,-28.3599 15.66062,-17.6379 22.45289,-24.0184 28.64144,-26.9032 9.42314,-4.394 17.03882,-2.4139 39.01723,10.1469 7.47999,4.274 19.00044,10.7856 25.6007,14.4689 28.01096,15.6329 33.47579,21.1716 35.10601,35.5805 0.81234,7.1809 -1.21113,21.0599 -6.53103,44.8005 -8.89789,39.7013 -8.81296,45.5916 0.81419,56.7502 6.68334,7.7477 17.23268,11.5131 56.46038,20.1498 41.86965,9.2191 60.54885,12.7158 70.65971,13.2291 10.81612,0.5483 12.73251,-0.012 19.9171,-5.8295 8.27202,-6.6972 12.00789,-15.9292 19.66139,-48.5807 5.8747,-25.0643 8.5323,-33.5164 12.3189,-39.1824 3.6722,-5.4944 9.9161,-9.0576 18.238,-10.4081 13.0113,-2.1112 78.0252,-0.4644 87.2222,2.2099 3.5891,1.0431 5.8433,2.5201 9.005,5.8996 6.8947,7.372 11.6709,18.1835 22.283,50.4472 15.1206,45.9711 19.0032,48.9518 52.4393,40.2616 29.0384,-7.5483 77.8545,-24.5594 98.151,-34.205 23.1064,-10.9795 23.6861,-16.2754 7.3119,-66.766 -11.789,-36.3485 -11.6644,-40.4232 1.5629,-51.1073 19.4158,-15.6837 67.5553,-43.8571 79.5077,-46.5323 10.7081,-2.3964 16.0844,1.0662 55.1284,35.5113 26.5764,23.4461 33.8238,26.293 48.0674,18.8795 6.2938,-3.2752 17.6813,-14.1707 42.0524,-40.233 46.6108,-49.8453 55.9407,-65.6232 47.7305,-80.7087 -1.8065,-3.3195 -7.9184,-9.8441 -20.1165,-21.4781 -36.9503,-35.2399 -38.8907,-37.5827 -38.1448,-46.0578 0.516,-5.8701 3.4829,-13.4876 12.2958,-31.577 12.5433,-25.7447 27.0177,-49.8675 34.2549,-57.0908 6.0455,-6.0326 7.7994,-6.6132 19.7122,-6.5264 9.196,0.067 14.0719,0.7994 36.463,5.4722 23.2015,4.8417 27.0287,5.4011 37.386,5.4611 10.2309,0.059 11.9738,-0.1661 15.3727,-1.9838 4.9515,-2.6474 9.1074,-7.7412 11.4743,-14.0636 4.8666,-12.9974 21.347,-87.6367 24.8252,-112.4297 1.2758,-9.0935 -0.1098,-18.717 -3.4875,-24.2317 -5.2959,-8.6468 -15.7114,-12.9503 -46.8415,-19.3549 -29.7787,-6.1258 -37.5901,-9.2339 -43.067,-17.1367 -5.2248,-7.5372 -5.6614,-11.25 -6.0528,-51.4682 -0.4643,-47.7213 0.5317,-54.172 9.6613,-62.588 5.6568,-5.2138 13.8393,-8.777 37.6538,-16.3973 33.6013,-10.75054 38.8584,-12.9097 45.0627,-18.50839 10.1164,-9.12774 9.0871,-16.49326 -11.1097,-79.48006 -7.6627,-23.89756 -16.0621,-47.4748 -19.8063,-55.59727 -3.4109,-7.39968 -8.7788,-12.7602 -16.1646,-16.14156 -7.9185,-3.62507 -13.9797,-2.8155 -38.1375,5.09189 -28.8575,9.4453 -33.9485,10.66657 -44.771,10.73765 -11.467,0.0757 -14.8345,-1.4659 -21.4661,-9.82562 -6.255,-7.88615 -17.0296,-24.48004 -25.5306,-39.32001 -13.2208,-23.07876 -19.0059,-36.07343 -19.0059,-42.6903 0,-7.53907 7.6563,-19.02998 30.3778,-45.59534 20.8208,-24.3425 26.8552,-33.15454 26.8552,-39.2157 0,-1.51945 -0.4653,-5.88854 -1.033,-9.71023 -0.9933,-6.67688 -1.2517,-7.18552 -6.6141,-13.03806 -6.4784,-7.0692 -25.3173,-24.21142 -53.1926,-48.39976 -32.6255,-28.31004 -42.7115,-35.07646 -52.2916,-35.07738 -8.9394,-0.002 -12.2727,2.50256 -40.5671,30.47012 -14.2159,14.05164 -27.9029,26.93645 -30.4147,28.63314 -6.9151,4.67003 -11.8122,4.76603 -22.7548,0.44771 -20.8845,-8.24248 -61.7544,-31.64987 -72.9989,-41.80873 -1.9976,-1.80469 -4.7051,-5.11313 -6.0177,-7.35352 -2.2552,-3.84846 -2.3577,-4.56572 -1.8453,-13.00113 0.3055,-5.04112 2.5459,-18.60812 5.1482,-31.16985 12.6457,-61.06118 11.0072,-67.08634 -20.6612,-75.92977 -13.2642,-3.70445 -41.6527,-10.20502 -64.6936,-14.81412 -34.4192,-6.88458 -46.5406,-7.93139 -55.6037,-4.80111"
         stroke="none"
         fill="#045494"
         fill-rule="evenodd"
         id="path21190"
         style="fill:#075295;fill-opacity:1;stroke-width:0.923113"
         inkscape:label="BlueCycloidal"
         transform="translate(-60.582937,-74.552242)" />
      <path
         style="display:inline;fill:#ffffff;fill-opacity:1;fill-rule:evenodd;stroke-width:123.317;paint-order:stroke markers fill"
         d="m 1172.5116,378.36294 c -24.9007,-1.81732 -39.9433,21.02092 -42.6835,43.1422 -8.0493,21.33361 -6.8711,47.93241 -21.731,65.68622 -31.2554,5.97946 -65.3221,9.24045 -96.4584,1.8555 -18.4971,-18.01215 -20.3169,-47.5451 -31.58507,-70.1186 -5.44111,-18.43028 -14.92243,-41.16507 -38.30554,-38.84881 -47.7384,5.37241 -93.22452,24.55609 -137.92578,41.51603 -30.12471,8.66435 -24.1206,45.31074 -17.66282,68.15209 3.01305,20.60118 15.30148,43.09687 13.15159,61.98284 -22.82274,21.24325 -50.48901,40.23621 -80.47364,48.70228 -38.5409,-12.56267 -60.69556,-53.47418 -100.17634,-63.80988 -33.02986,0.41436 -51.29296,35.21106 -73.7029,54.46998 -19.66845,25.04832 -52.8146,47.9749 -52.45746,82.85815 10.39593,37.72721 53.20652,55.20714 70.39795,88.09823 -11.88906,29.13765 -24.54218,59.99025 -45.59535,83.58105 -38.86537,2.85343 -77.01876,-15.52614 -115.5694,-9.29837 -31.97958,11.60175 -30.33227,52.80311 -38.78979,80.06122 -4.29906,32.68937 -17.78281,67.81014 -6.83336,100.24923 20.12712,25.0231 57.03231,24.6313 85.28368,34.9349 15.92536,1.477 27.12882,13.7195 24.38563,30.1746 -1.04665,25.4792 6.80963,53.9435 -5.28159,77.3891 -30.92057,24.3268 -77.6704,22.6634 -104.89503,52.371 -12.3389,24.5241 4.2018,52.2869 9.01344,76.8888 12.08782,31.1445 18.00691,67.959 42.36386,92.2609 32.05417,19.3465 68.81163,-5.5654 101.63991,-10.4412 19.88157,-8.7418 28.08343,18.3373 38.468,30.0387 10.08008,17.1869 22.60017,35.0636 25.37245,54.7269 -18.14077,34.3488 -55.83894,58.5816 -63.28866,98.029 1.74188,32.4945 35.35761,50.4652 55.09718,72.2453 24.45206,18.2304 45.50465,48.8387 78.08212,51.1074 34.9732,-7.7006 53.897,-43.1533 81.78409,-62.9318 10.94403,-13.667 26.70967,4.053 38.7628,7.6083 18.03401,12.5954 48.21572,18.3041 54.66965,42.0988 2.48617,37.1689 -21.94577,76.1429 -5.40666,111.9487 21.51025,25.6886 59.54342,25.1775 89.34214,34.6917 29.42483,3.857 64.33041,18.1115 91.57991,0.5906 24.23639,-27.5003 19.78229,-69.553 39.93849,-98.7239 31.2051,-6.9821 65.2211,-4.956 96.1318,-1.4594 21.411,19.642 22.413,52.4973 36.0885,77.2015 5.8558,22.0321 28.4311,36.9786 50.8005,29.0001 46.2528,-12.0908 93.5691,-25.5471 135.0417,-49.64 22.0902,-22.9343 2.1187,-56.6052 -3.0438,-82.4552 -3.0485,-13.998 -13.1862,-32.6755 5.0592,-40.2443 24.7256,-17.2942 51.3587,-36.7747 80.3913,-43.587 31.2339,17.7717 53.1124,52.8129 89.085,61.3567 27.8352,0.1392 43.3517,-29.4602 62.9342,-44.9073 23.2295,-27.4442 56.5705,-52.0682 63.9211,-89.0433 -2.9338,-33.8578 -39.7115,-50.3468 -57.5971,-75.2765 -16.4533,-12.9082 3.7982,-30.9092 7.9468,-44.8598 11.4639,-17.6994 17.4863,-42.3454 35.2232,-54.441 37.1458,-4.8792 74.7932,18.6797 110.948,5.504 26.8583,-19.4796 24.9397,-57.9483 34.1469,-86.9668 2.9698,-29.7236 20.3954,-62.0259 6.7993,-91.0643 -22.5403,-30.5648 -67.1521,-22.6574 -96.7781,-40.4736 -9.1658,-32.6851 -2.4267,-67.9955 -4.6075,-101.6705 28.0702,-29.4127 80.9877,-21.783 102.5253,-59.17454 7.7969,-28.75175 -11.6559,-56.75465 -17.2485,-84.41497 -12.7919,-28.36376 -13.8228,-68.73102 -44.2611,-84.96402 -35.4961,-11.07361 -69.8354,20.41888 -104.9367,12.9121 -20.1443,-25.16776 -38.0048,-53.83375 -48.9033,-84.0467 14.111,-36.04983 56.5974,-58.21779 59.946,-98.73782 -5.8179,-32.92366 -39.6294,-50.35258 -60.7939,-73.15688 -23.8027,-17.98815 -46.2936,-45.11297 -77.6392,-48.15971 -33.5614,14.25298 -53.553,50.54092 -85.1378,67.06222 -30.0819,-11.75186 -61.5376,-25.93607 -84.8319,-48.40989 -5.4437,-37.72845 19.6205,-76.03566 6.9355,-113.5471 -18.3332,-27.10557 -56.6145,-25.36624 -84.7547,-34.76623 -24.3179,-5.07358 -48.8856,-11.2989 -73.9013,-10.85692 z"
         id="path22471"
         inkscape:label="CenterGear"
         transform="translate(-60.582937,-74.552242)" />
      <path
         style="display:inline;fill:#ffffff;fill-rule:evenodd;stroke-width:106.206;paint-order:stroke markers fill"
         d="m 589.0595,699.1897 c 101.68529,-22.77304 205.95309,-14.5544 308.67525,-8.86489 86.36877,3.4948 171.25265,25.93636 253.39915,56.26143 65.342,23.83397 126.646,65.43202 171.7423,126.36631 29.2777,40.34189 55.2134,87.11035 64.2053,139.62185 -1.4764,31.0938 -28.6047,47.9439 -49.1963,61.4717 -12.3039,6.8257 -31.6114,23.8575 -41.2616,4.4335 -2.2004,18.5514 -17.9615,23.4141 -31.6339,24.1257 -21.3949,2.7272 -43.6456,10.3448 -64.9816,4.9743 -17.4004,-10.1939 -5.7878,-34.317 -4.1752,-50.8226 7.0344,-43.2386 -19.6994,-80.5859 -47.4456,-104.4811 -58.9223,-52.48329 -135.252,-61.39314 -205.36742,-79.06697 -93.09759,-21.98805 -186.95729,-37.70614 -280.38758,-57.1092 -45.70835,-10.84517 -91.72536,-24.36922 -133.76048,-48.38543 -16.17414,-8.79098 -17.50268,-38.06741 -0.60985,-46.92185 18.94393,-11.13708 40.31499,-15.83181 60.79753,-21.60275 z m 207.28055,72.92438 c 123.23134,32.16323 250.57255,50.82545 367.59055,108.98672 49.3628,26.10831 97.7452,63.12914 126.5979,118.0884 4.1606,7.7933 7.8779,21.0488 9.3816,27.08 -3.2451,-48.51 -34.5121,-86.02454 -64.8577,-115.60714 -78.5716,-73.84808 -180.3069,-99.94677 -277.02673,-119.2763 -55.8298,-10.67772 -112.1714,-17.68188 -168.66564,-21.10493 2.3267,0.61114 4.65339,1.22227 6.98002,1.83325 z"
         id="path496" />
      <path
         style="display:inline;fill:none;fill-opacity:1;fill-rule:evenodd;stroke:#075295;stroke-width:38.3986;stroke-dasharray:none;stroke-opacity:1;paint-order:stroke markers fill"
         d="m 866.60075,1295.4184 c 50.33728,10.5389 100.67565,21.0779 144.19715,27.405 43.5216,6.327 80.2181,8.4415 120.3637,5.7323 40.1456,-2.7091 83.7181,-10.2399 122.4725,-21.5119 38.7544,-11.2721 72.6664,-26.278 99.7869,-55.9158 27.1204,-29.6378 47.4279,-73.8835 55.9811,-125.7309 8.5531,-51.8474 5.3437,-111.2796 -13.2243,-160.23914 -18.5679,-48.95949 -52.4875,-87.43141 -86.1877,-119.13477 -33.7003,-31.70336 -67.1677,-56.62487 -109.2877,-79.37227 -42.1201,-22.74739 -92.8743,-43.31049 -149.0473,-56.50082 -56.17297,-13.19033 -117.74352,-19.00144 -179.31409,-24.81255"
         id="path4817-1"
         sodipodi:nodetypes="ccccccccccc"
         inkscape:original-d="m 866.60075,1295.4184 c 50.33708,10.5398 100.67547,21.0788 151.01445,31.6171 36.7042,2.116 73.4007,4.2304 110.1052,6.3443 43.587,-7.532 87.1595,-15.0627 130.7439,-22.5968 33.9248,-15.01 67.8368,-30.0159 101.7612,-45.0289 20.3172,-44.2633 40.6247,-88.509 60.9391,-132.773 -3.2084,-59.4315 -6.4179,-118.8637 -9.6287,-178.30346 -33.9259,-38.47926 -67.8455,-76.95118 -101.7735,-115.43242 -33.4727,-24.92525 -66.9401,-49.84674 -100.4152,-74.77425 -50.7651,-20.56694 -101.5193,-41.13005 -152.2876,-61.69944 -61.57755,-5.81087 -123.1481,-11.62197 -184.71859,-17.43398"
         inkscape:path-effect="#path-effect4819-7" />
      <path
         style="display:inline;fill:none;fill-rule:evenodd;stroke:#075295;stroke-width:38.3986;stroke-dasharray:none;stroke-opacity:1;paint-order:stroke markers fill"
         d="m 1149.4754,1184.8597 c 20.3086,-23.8044 40.6218,-47.6142 52.5808,-67.4844 11.959,-19.8703 15.556,-35.7843 8.991,-57.3742 -6.5651,-21.5898 -23.287,-48.8326 -49.9903,-74.25979 -26.7033,-25.4272 -63.3702,-49.02011 -104.0801,-67.53499 -40.7098,-18.51489 -85.44464,-31.94225 -130.1819,-45.37034"
         id="path10951-0"
         inkscape:path-effect="#path-effect10953-1"
         inkscape:original-d="m 1149.4754,1184.8597 c 20.3097,-23.8035 40.6229,-47.6132 60.9405,-71.4304 3.6005,-15.924 7.1975,-31.838 10.7957,-47.763 -16.7292,-27.2552 -33.4511,-54.498 -50.1809,-81.75281 -36.6772,-23.59915 -73.3442,-47.19204 -110.0231,-70.79296 -44.7408,-13.42847 -89.47563,-26.85582 -134.2127,-40.28455"
         sodipodi:nodetypes="cccccc" />
      <g
         id="g1120"
         transform="matrix(1.1813753,0,0,1.0699615,423.71448,2378.3803)"
         style="display:inline">
        <g
           id="g1114">
          <g
             aria-label="G"
             id="text344"
             style="font-size:1251.43px;font-family:Inter;-inkscape-font-specification:'Inter, Normal';text-align:center;text-anchor:middle;fill:#075295;fill-rule:evenodd;stroke-width:10;paint-order:stroke markers fill" />
        </g>
        <path
           d="m 769.31895,-1458.4833 q -14.66519,-44.8844 -38.66278,-80.4364 -23.5532,-35.9963 -56.43879,-61.3271 -32.44119,-25.3308 -73.77038,-38.6628 -41.32919,-13.332 -90.65757,-13.332 -80.88078,0 -147.09636,41.7736 -66.21558,41.7736 -105.32277,123.0987 -39.10719,81.3252 -39.10719,199.5356 0,118.2103 39.55159,199.5355 39.55159,81.3252 107.10037,123.09879 67.54878,41.77359 151.98475,41.77359 78.21438,0 137.76397,-33.33 59.99398,-33.77439 93.32397,-95.10158 33.77439,-61.7716 33.77439,-145.3187 l 33.77439,7.1103 H 541.78622 v -97.7679 h 346.6319 v 97.7679 q 0,112.4332 -47.99518,195.536 -47.55079,83.10277 -131.54237,128.87596 -83.54718,45.32879 -191.98075,45.32879 -120.87676,0 -212.42314,-56.88319 -91.10197,-56.88318 -142.20796,-161.76156 -50.66158,-104.8784 -50.66158,-248.8639 0,-107.9892 28.88599,-194.2028 29.33039,-86.6579 82.65838,-147.5407 53.32798,-60.8828 126.20956,-93.324 72.88158,-32.4412 160.42836,-32.4412 71.99278,0 134.20876,21.7756 62.66038,21.3312 111.54437,60.8828 49.32839,39.1072 82.21398,93.7684 32.88559,54.2167 45.32878,120.4323 z"
           id="path1243"
           style="font-size:1251.43px;font-family:Inter;-inkscape-font-specification:'Inter, Normal';text-align:center;text-anchor:middle;display:inline;fill:#075295;fill-rule:evenodd;stroke-width:10;paint-order:stroke markers fill" />
        <path
           style="fill:#075295;fill-opacity:1;fill-rule:evenodd;stroke-width:10.6134;paint-order:stroke markers fill"
           d="m 781.19226,-1192.0985 c -0.53704,-2.6194 -0.47974,-5.3588 0.16635,-7.9534 1.11677,-4.4848 4.03762,-8.493 7.96474,-10.9298 3.92712,-2.4368 8.81545,-3.2743 13.32976,-2.2837 4.51432,0.9906 8.60282,3.798 11.14876,7.6553 2.54593,3.8573 3.52009,8.7202 2.65639,13.2605 -0.77017,4.0486 -2.98228,7.8076 -6.14769,10.4467 -3.16541,2.6391 -7.26103,4.1389 -11.38214,4.1683 -4.12112,0.029 -8.23768,-1.4121 -11.44034,-4.0058 -3.20267,-2.5937 -5.46809,-6.3209 -6.29583,-10.3581 z"
           id="path1054"
           inkscape:path-effect="#path-effect1056"
           inkscape:original-d="m 781.19226,-1192.0985 c -11.75639,0.083 0.11195,-5.3012 0.16635,-7.9534 0.0544,-2.6522 23.40082,5.1359 35.09965,7.7023 11.69883,2.5663 -23.50961,0.1685 -35.266,0.2511 z" />
      </g>
      <path
         style="display:inline;fill:#ffffff;fill-opacity:1;fill-rule:evenodd;stroke:none;stroke-width:0.7228;stroke-dasharray:none;stroke-opacity:1;paint-order:stroke markers fill"
         d="m 741.14959,700.53033 c -55.14009,0.60666 -108.04108,0.47194 -162.09548,14.33467 -15.42828,4.46664 -30.45681,12.33387 -44.40872,21.46502 -3.31535,1.98151 -6.36835,6.61298 -3.68924,10.86 6.03932,9.87805 17.11789,14.54424 26.232,18.79533 38.87567,16.51253 83.5038,34.70765 124.2806,43.00151 61.01515,12.83277 121.61245,18.56579 182.48579,32.36505 23.21006,4.98607 46.72048,11.38157 69.88227,16.53485 -0.20235,-3.9145 -6.91235,-13.37308 -7.98965,-17.30998 -4.53992,-11.44985 20.28554,-19.26582 15.33404,-30.39772 -71.76851,-13.34885 -169.76402,-25.49271 -241.16299,-41.47623 -13.87405,-3.65256 -31.81514,-6.05015 -44.57217,-13.64028 -2.07369,-0.84621 -3.40207,-4.30565 -0.77678,-5.42543 10.29593,-4.91254 21.77082,-4.96198 32.72628,-6.0448 38.83771,-1.63901 77.72236,-0.56114 116.56719,0.26188 27.99863,0.62389 55.93857,2.96679 83.86917,5.08224 1.87774,0.51922 47.80639,8.26575 46.15183,6.3953 -5.28576,-13.21323 -25.51525,-32.49457 -31.16271,-45.33004 -37.55798,-10.62326 -118.6945,-9.6172 -161.67143,-9.47137 z"
         id="path3935"
         sodipodi:nodetypes="ccccccccccccccccccc" />
      <path
         style="display:inline;fill:none;fill-rule:evenodd;stroke:#075295;stroke-width:38.3986;stroke-dasharray:none;stroke-opacity:1;paint-order:stroke markers fill"
         d="m 874.99762,685.50542 c -44.58852,-3.47749 -89.33026,-4.98989 -134.05183,-4.53136 -39.56422,0.40566 -79.16179,2.35811 -118.3824,7.57697 -29.54784,3.93176 -59.31628,9.87336 -85.78914,23.57449 -5.13125,2.6557 -10.15806,5.62291 -14.42539,9.5181 -4.26732,3.89518 -7.76334,8.79287 -9.26776,14.37133 -1.45805,5.40649 -0.97032,11.2485 0.94628,16.50993 1.91659,5.26144 5.21286,9.95899 9.19693,13.89386 7.96815,7.86973 18.42672,12.62023 28.71544,17.04362 10.50436,4.5161 21.085,8.86027 31.79921,12.85307 69.10297,25.75217 142.69105,36.54125 215.38047,48.97678 23.16604,3.96319 46.30698,8.11026 69.27778,13.08164 21.11662,4.5701 42.08273,9.83564 62.8529,15.78522"
         id="path2742"
         inkscape:path-effect="#path-effect2744"
         inkscape:original-d="m 874.99762,685.50542 c -37.16641,-0.42668 -96.36609,-4.28595 -134.05183,-4.53136 -37.68571,-0.24545 -88.98154,5.73993 -118.3824,7.57697 -29.40054,1.83697 -60.64854,17.38245 -85.78914,23.57449 -25.14095,6.1921 -9.52055,11.16432 -23.69315,23.88943 -14.17264,12.72497 32.79895,38.19668 38.85865,47.44741 6.05953,9.25104 -32.5344,-7.34246 31.79921,12.85307 39.64081,12.44388 185.11526,40.5035 215.38047,48.97678 17.49249,4.89755 41.49013,6.06494 69.27778,13.08164 31.31162,7.90627 42.06394,14.69794 62.8529,15.78522"
         sodipodi:nodetypes="cssssssssc" />
      <path
         style="display:inline;fill:#075295;fill-opacity:1;fill-rule:evenodd;stroke:none;stroke-width:25;stroke-dasharray:none;stroke-opacity:1;paint-order:stroke markers fill"
         d="m 614.14495,1231.0982 c 0.0877,3.0368 -14.19064,8.7972 -37.94152,0.1541 -10.32744,-3.7347 -22.51472,-10.7611 -32.81469,-22.7881 -11.18789,-13.2913 -19.51186,-31.4217 -21.88103,-52.7208 -2.01358,-17.8048 -0.38716,-36.4088 4.32546,-55.3147 0,0 0,0 0,0 7.0269,-28.5756 20.0194,-57.186 38.80463,-84.5292 14.58981,-21.27472 31.90668,-41.18471 51.51984,-59.93145 3.19819,-3.0569 6.42202,-6.04908 9.66376,-8.97778 32.98002,-29.7488 68.03727,-54.03156 100.21765,-73.90515 31.57289,-19.49842 63.53137,-36.62598 88.30448,-49.37236 10e-6,-10e-6 2e-5,-10e-6 2e-5,-10e-6 54.8855,-28.30701 90.36982,-43.31253 93.00847,-38.76434 2.63866,4.54818 -28.05257,27.7748 -79.3834,61.93264 0,1e-5 -10e-6,1e-5 -10e-6,1e-5 -23.98321,15.99338 -52.5463,34.24278 -83.06521,55.18691 -30.22648,20.74345 -63.21564,44.85364 -93.71344,72.82234 -2.99876,2.74559 -5.97998,5.53273 -8.93569,8.36188 -18.13567,17.35911 -34.06814,35.11271 -47.52497,53.77801 -17.22052,23.9309 -29.66755,48.0487 -37.11503,72.1335 0,0 -1e-5,0 -1e-5,0 -4.87681,15.9797 -7.53982,30.5649 -7.13133,44.3565 0.51466,16.3302 4.63137,30.3065 11.46117,41.0024 5.9573,9.6103 14.19309,16.6984 21.59344,21.4994 8.48865,5.477 16.49854,8.4158 21.86016,10.3527 5.47877,1.9792 8.70339,3.2051 8.74725,4.7235 z"
         id="path6639"
         sodipodi:nodetypes="cssssc"
         inkscape:label="Leaf"
         transform="matrix(-1.1761658,0.66115433,0.56539814,1.3753619,1276.1205,-927.68976)"
         inkscape:original-d="m 614.14495,1231.0982 c -10.67336,-4.4467 -50.50666,-24.8596 -61.47853,-29.6048 -10.97187,-4.7452 -7.9766,-70.6034 -10.9427,-96.6972 -2.9661,-26.0939 83.1435,-112.12841 96.78196,-143.85591 13.63846,-31.72761 116.82618,-78.7938 182.65039,-125.64338 65.82421,-46.84957 56.24943,-29.59179 86.19593,-50.34849"
         inkscape:path-effect="#path-effect6641;#path-effect6643"
         class="UnoptimicedTransforms" />
      <path
         style="display:inline;fill:#ffffff;fill-opacity:1;fill-rule:evenodd;stroke:none;stroke-width:68.2188;stroke-dasharray:none;stroke-opacity:1;paint-order:stroke markers fill"
         d="m 776.11769,1131.2985 c 75.7686,-35.3863 152.42799,-12.0192 220.68483,3.5722 99.61298,22.4284 211.25268,49.29 321.74588,7.3021 25.3062,-6.7326 52.9073,-43.7506 76.438,-24.6166 13.7412,37.0632 9.9203,80.8811 0.1608,121.7325 -15.054,52.1005 -57.4758,106.5357 -122.3982,123.9377 -102.9787,33.6877 -212.0851,34.2522 -306.8606,9.8299 -112.06115,-20.8095 -225.6433,-54.9635 -349.45468,-32.6988 -26.08113,1.6501 -62.30141,26.6481 -78.69986,5.677 9.14345,-30.4494 42.13869,-55.7347 62.70442,-83.4128 46.40056,-54.0144 103.28663,-104.1081 175.67941,-131.3232 z"
         id="path5768"
         inkscape:label="Filler" />
      <path
         style="display:inline;fill:#ffffff;fill-opacity:0;fill-rule:evenodd;stroke:#075295;stroke-width:34.1092;stroke-dasharray:none;stroke-opacity:1;paint-order:stroke markers fill"
         d="m 527.38596,1349.0966 c 3.25077,4.9045 6.50178,9.8094 17.70055,7.9316 11.19876,-1.8778 30.34698,-10.5398 52.5277,-16.5391 22.18073,-5.9993 47.39088,-9.3341 71.85371,-10.7412 24.46284,-1.4071 48.17549,-0.886 77.05586,1.729 28.88036,2.615 62.92517,7.3238 95.91818,13.1557 32.993,5.8319 64.92961,12.7863 91.30987,19.3819 26.38026,6.5957 47.20013,12.8315 71.26437,17.3867 24.0642,4.5551 51.3706,7.429 81.4739,7.6417 30.1034,0.2127 63.0013,-2.2361 96.5557,-7.2296 33.5544,-4.9936 67.7621,-12.5319 93.3855,-21.326 25.6234,-8.7941 42.6605,-18.8446 58.9233,-33.2358 16.2629,-14.3912 31.7495,-33.1234 44.1485,-55.2704 12.3989,-22.1469 21.7076,-47.707 27.1839,-76.4883 5.4762,-28.7813 7.1174,-60.7654 8.7591,-92.762"
         id="path4933"
         inkscape:path-effect="#path-effect4935"
         inkscape:original-d="m 527.38596,1349.0966 c 3.25096,4.9044 6.50196,9.8093 9.75319,14.7149 19.14729,-8.6585 38.29543,-17.3207 57.44665,-25.987 25.20965,-3.3308 50.41979,-6.6657 75.63324,-10.0048 23.71163,0.5252 47.42428,1.0465 71.13943,1.5634 34.04508,4.7131 68.08988,9.4219 102.13891,14.1268 31.93663,6.959 63.87321,13.9135 95.81391,20.8641 20.82028,6.2379 41.64008,12.474 62.46211,18.7084 27.3068,2.8756 54.6132,5.7493 81.9224,8.6219 32.898,-2.4448 65.7959,-4.8937 98.6977,-7.3465 34.2074,-7.5347 68.4152,-15.0727 102.6269,-22.6157 17.0357,-10.0466 34.0726,-20.0973 51.1127,-30.1524 15.4851,-18.7288 30.9716,-37.4611 46.4612,-56.1981 9.3089,-25.557 18.6176,-51.1171 27.9272,-76.6834 1.6428,-31.9966 3.2839,-63.9807 4.9246,-95.9774"
         sodipodi:nodetypes="ccccccccccccccc" />
      <path
         style="display:inline;fill:#075295;fill-opacity:1;fill-rule:evenodd;stroke:none;stroke-width:25;stroke-dasharray:none;stroke-opacity:1;paint-order:stroke markers fill"
         d="m 1029.0855,1127.8456 c -0.5945,2.7198 -10.0531,2.8966 -26.0133,4.0487 -15.69814,1.1332 -38.84662,3.6047 -64.13228,13.022 -25.2853,9.2622 -49.34473,24.2366 -77.92502,46.2141 0,0 -10e-6,10e-5 -10e-6,10e-5 -22.90629,17.7697 -46.73929,39.2809 -74.43797,60.0541 4.3e-4,-3e-4 -0.49799,0.3731 -0.49756,0.3727 -26.44508,19.8152 -53.48733,35.9451 -81.33441,47.9162 -32.45122,13.9815 -63.77887,20.7826 -92.39247,21.8416 0,0 -2e-5,0 -2e-5,0 -34.60683,1.2107 -62.28874,-6.0948 -80.14639,-13.436 -17.85766,-7.3412 -26.29866,-14.4386 -25.17405,-17.1712 1.12462,-2.7327 11.59195,-0.9342 29.42215,1.2422 17.6025,2.1486 43.46689,4.4675 73.40746,0.1738 0,0 10e-6,0 10e-6,0 24.89395,-3.5111 51.51594,-11.5514 80.10217,-25.2483 24.58595,-11.8053 48.7298,-27.0462 73.51795,-45.5397 5.2e-4,-4e-4 0.46662,-0.349 0.46714,-0.3494 26.01747,-19.4774 50.64889,-40.6467 75.91502,-58.4768 0,0 2e-5,0 2e-5,0 31.1628,-22.1797 60.99602,-37.0648 90.98804,-44.4618 30.63597,-7.4107 56.46888,-5.422 73.42552,-1.7216 16.9566,3.7004 25.4025,8.7995 24.808,11.5193 z"
         id="path6495"
         inkscape:path-effect="#path-effect6497;#path-effect6499"
         inkscape:original-d="m 1029.0855,1127.8456 c -33.50474,3.2626 -60.38642,0.3758 -94.18955,3.6365 -33.80314,3.2606 -106.74259,69.9773 -160.11539,104.9645 -53.37279,34.9872 -109.11467,46.8496 -163.6735,70.2729 -54.55884,23.4232 -69.38234,-10.6734 -104.07501,-16.0116"
         class="UnoptimicedTransforms"
         inkscape:label="Leaf"
         transform="matrix(-1.3022289,0.5213206,0.53717917,1.2459859,1375.6038,-689.98924)"
         sodipodi:nodetypes="csssc" />
      <path
         style="fill:#ffffff;fill-opacity:1;fill-rule:evenodd;stroke:none;stroke-width:0;stroke-dasharray:none;stroke-opacity:1;paint-order:stroke markers fill"
         d="m 1343.0296,1131.4822 c 5.8455,-4.1503 12.0715,-7.7645 18.5744,-10.7825 11.5123,-5.3428 23.7941,-8.7817 35.8287,-12.8126 1.5575,-0.5217 3.1204,-1.0574 4.5627,-1.8434 0.2091,-0.114 0.4189,-0.2358 0.5801,-0.4111 0.081,-0.088 0.1481,-0.1883 0.1912,-0.2993 0.043,-0.111 0.061,-0.2327 0.044,-0.3505 -0.024,-0.1658 -0.1169,-0.3178 -0.2437,-0.4273 -0.1267,-0.1096 -0.2854,-0.1785 -0.4493,-0.2132 -0.3278,-0.069 -0.6671,-0.01 -0.9974,0.051 -2.7612,0.4726 -5.58,0.4439 -8.3814,0.4526 -12.0541,0.037 -24.1058,0.4335 -36.1591,0.2943 l -9.6303,-0.1112"
         id="path5733"
         inkscape:path-effect="#path-effect5735"
         inkscape:original-d="m 1343.0296,1131.4822 c 4.8233,-1.7812 13.7531,-8.9469 18.5744,-10.7825 4.8213,-1.8356 29.4874,-10.5577 35.8287,-12.8126 6.3413,-2.2549 -0.9924,-0.06 4.5627,-1.8434 5.5551,-1.7832 -1.2802,-0.1164 0.8154,-1.0609 2.0957,-0.9445 -0.4744,-0.5434 -1.6904,-0.5896 -3.1328,-0.119 -2.2477,0.2439 -8.3814,0.4526 -6.1337,0.2086 -28.0866,0.3875 -36.1591,0.2943 l -9.6303,-0.1112"
         sodipodi:nodetypes="cscccsssc" />
      <path
         style="display:inline;fill:#ffffff;fill-opacity:0;fill-rule:evenodd;stroke:#075295;stroke-width:33.4081;stroke-dasharray:none;stroke-opacity:1;paint-order:stroke markers fill"
         d="m 533.68847,1356.6836 c -6.19838,-7.1924 -12.39952,-14.3879 -9.05181,-28.1033 3.34772,-13.7154 16.24007,-33.9402 41.49838,-57.5874 25.25831,-23.6472 62.86531,-50.699 94.07359,-71.7643 31.20828,-21.0654 56.00696,-36.1362 81.20886,-46.8221 25.2019,-10.6859 50.80472,-16.9846 73.47926,-21.4411 22.67454,-4.4565 42.40208,-7.0677 69.80339,-5.3795 27.40131,1.6883 62.44081,7.6734 94.82517,14.1668 32.38439,6.4934 62.07849,13.4881 93.14289,19.2457 31.0644,5.7577 63.4836,10.2752 92.4363,12.583 28.9526,2.3077 54.4236,2.4049 77.4263,0.5888 23.0028,-1.8161 43.5194,-5.5435 59.0067,-9.0844 15.4872,-3.5409 25.9245,-6.8903 38.5709,-11.491 12.6463,-4.6008 27.4747,-10.4429 37.4081,-15.6257 9.9333,-5.1828 14.9494,-9.6947 19.4856,-15.3161 4.5362,-5.6213 8.5817,-12.3381 9.6928,-17.8647 1.111,-5.5266 -0.7168,-9.8422 -2.837,-15.0141 -2.1202,-5.1718 -4.528,-11.1882 -6.938,-17.2104"
         id="path5061"
         inkscape:path-effect="#path-effect5063"
         inkscape:original-d="m 533.68847,1356.6836 c -6.19833,-7.1924 -12.39942,-14.388 -18.60207,-21.5851 12.89914,-20.2329 25.79149,-40.4577 38.6889,-60.693 37.61831,-27.0594 75.22533,-54.1112 112.84456,-81.1724 24.79824,-15.0679 49.597,-30.1386 74.39895,-45.2143 25.60089,-6.2969 51.20369,-12.5957 76.81184,-18.897 19.74079,-2.6118 39.46832,-5.223 59.20767,-7.8368 35.06299,5.99 70.10251,11.975 105.16266,17.9629 29.70852,6.9989 59.40262,13.9937 89.10502,20.9896 32.4265,4.5195 64.8457,9.0368 97.2716,13.5545 25.4795,0.098 50.9505,0.1953 76.4288,0.2914 20.5274,-3.7281 41.044,-7.4555 61.5717,-11.1861 10.447,-3.3512 20.8843,-6.7006 31.3308,-10.0543 14.8463,-5.8478 29.6747,-11.6899 44.5192,-17.5397 5.0226,-4.516 10.0387,-9.0279 15.059,-13.5455 4.0523,-6.7254 8.0979,-13.4422 12.15,-20.1725 -1.8306,-4.3238 -3.6585,-8.6394 -5.4908,-12.9643 -2.4109,-6.0177 -4.8187,-12.0341 -7.2264,-18.0572"
         sodipodi:nodetypes="cccccccccccccccccc" />
      <path
         sodipodi:type="star"
         style="display:inline;fill:#ffffff;fill-opacity:1;fill-rule:evenodd;stroke:#075295;stroke-width:1;stroke-dasharray:none;stroke-opacity:1;paint-order:stroke markers fill"
         id="path5789"
         inkscape:flatsided="true"
         sodipodi:sides="3"
         sodipodi:cx="1371.9116"
         sodipodi:cy="1095.0762"
         sodipodi:r1="1.7230158"
         sodipodi:r2="0.86150789"
         sodipodi:arg1="0.47385134"
         sodipodi:arg2="1.5210489"
         inkscape:rounded="0"
         inkscape:randomized="0"
         d="m 1373.4448,1095.8624 -2.9807,0.1484 1.3618,-2.6555 z"
         inkscape:transform-center-x="-0.011100773"
         inkscape:transform-center-y="0.41334446"
         transform="matrix(0.50933382,0.87595561,-1.021565,0.43673562,1821.2355,-574.62202)" />
      <path
         style="display:inline;fill:none;fill-opacity:1;fill-rule:evenodd;stroke:#075295;stroke-width:38.3986;stroke-dasharray:none;stroke-opacity:1;paint-order:stroke markers fill"
         d="m 1381.8661,1288.366 c 13.8153,-43.4249 27.625,-86.8322 32.2309,-134.2924 4.6058,-47.4602 0,-98.9408 -4.5999,-150.4361"
         id="path4817-1-0"
         sodipodi:nodetypes="ccc"
         inkscape:original-d="m 1381.8661,1288.366 c 13.8165,-43.4245 27.6262,-86.8318 41.4403,-130.257 -4.6027,-51.4957 -9.2049,-102.9763 -13.8093,-154.4715"
         inkscape:path-effect="#path-effect4819-7-2" />
    </g>
  </g>
</svg>
