<?xml version="1.0" encoding="UTF-8" standalone="no"?>
<!-- Created with Inkscape (http://www.inkscape.org/) -->

<svg
   width="800mm"
   height="800mm"
   viewBox="0 0 800 800"
   version="1.1"
   id="svg1"
   inkscape:version="1.3.2 (091e20e, 2023-11-25)"
   sodipodi:docname="pattern_logo.svg"
   xmlns:inkscape="http://www.inkscape.org/namespaces/inkscape"
   xmlns:sodipodi="http://sodipodi.sourceforge.net/DTD/sodipodi-0.dtd"
   xmlns="http://www.w3.org/2000/svg"
   xmlns:svg="http://www.w3.org/2000/svg">
  <sodipodi:namedview
     id="namedview1"
     pagecolor="#505050"
     bordercolor="#ffffff"
     borderopacity="1"
     inkscape:showpageshadow="0"
     inkscape:pageopacity="0"
     inkscape:pagecheckerboard="true"
     inkscape:deskcolor="#505050"
     inkscape:document-units="mm"
     inkscape:zoom="0.10581789"
     inkscape:cx="1200.1752"
     inkscape:cy="1682.1353"
     inkscape:window-width="1280"
     inkscape:window-height="593"
     inkscape:window-x="0"
     inkscape:window-y="33"
     inkscape:window-maximized="0"
     inkscape:current-layer="layer1" />
  <defs
     id="defs1">
    <inkscape:path-effect
       effect="powerstroke"
       id="path-effect27"
       is_visible="true"
       lpeversion="1.3"
       scale_width="1"
       interpolator_type="CentripetalCatmullRom"
       interpolator_beta="0.2"
       start_linecap_type="zerowidth"
       end_linecap_type="zerowidth"
       offset_points="0.23184382,7.4781915 | 2.6012932,6.989461 | 4.6661181,1.80228"
       linejoin_type="round"
       miter_limit="4"
       not_jump="false"
       sort_points="true"
       message="&lt;b&gt;Ctrl + click&lt;/b&gt; on existing node and move it" />
    <inkscape:path-effect
       effect="bspline"
       id="path-effect26"
       is_visible="true"
       lpeversion="1.3"
       weight="33.333333"
       steps="2"
       helper_size="0"
       apply_no_weight="true"
       apply_with_weight="true"
       only_selected="false"
       uniform="false" />
    <inkscape:path-effect
       effect="powerstroke"
       id="path-effect25"
       is_visible="true"
       lpeversion="1.3"
       scale_width="1"
       interpolator_type="CentripetalCatmullRom"
       interpolator_beta="0.2"
       start_linecap_type="zerowidth"
       end_linecap_type="zerowidth"
       offset_points="0.79360214,5.1741723 | 1.4160182,7.3089331 | 2.808669,4.6366173"
       linejoin_type="round"
       miter_limit="4"
       not_jump="false"
       sort_points="true"
       message="&lt;b&gt;Ctrl + click&lt;/b&gt; on existing node and move it" />
    <inkscape:path-effect
       effect="bspline"
       id="path-effect24"
       is_visible="true"
       lpeversion="1.3"
       weight="33.333333"
       steps="2"
       helper_size="0"
       apply_no_weight="true"
       apply_with_weight="true"
       only_selected="false"
       uniform="false" />
    <inkscape:path-effect
       effect="bspline"
       id="path-effect21"
       is_visible="true"
       lpeversion="1.3"
       weight="33.333333"
       steps="2"
       helper_size="0"
       apply_no_weight="true"
       apply_with_weight="true"
       only_selected="false"
       uniform="false" />
    <inkscape:path-effect
       effect="bspline"
       id="path-effect20"
       is_visible="true"
       lpeversion="1.3"
       weight="33.333333"
       steps="2"
       helper_size="0"
       apply_no_weight="true"
       apply_with_weight="true"
       only_selected="false"
       uniform="false" />
    <inkscape:path-effect
       effect="bspline"
       id="path-effect19"
       is_visible="true"
       lpeversion="1.3"
       weight="33.333333"
       steps="2"
       helper_size="0"
       apply_no_weight="true"
       apply_with_weight="true"
       only_selected="false"
       uniform="false" />
    <inkscape:path-effect
       effect="bspline"
       id="path-effect17"
       is_visible="true"
       lpeversion="1.3"
       weight="33.333333"
       steps="2"
       helper_size="0"
       apply_no_weight="true"
       apply_with_weight="true"
       only_selected="false"
       uniform="false" />
    <inkscape:path-effect
       effect="bspline"
       id="path-effect16"
       is_visible="true"
       lpeversion="1.3"
       weight="33.333333"
       steps="2"
       helper_size="0"
       apply_no_weight="true"
       apply_with_weight="true"
       only_selected="false"
       uniform="false" />
    <inkscape:path-effect
       effect="bspline"
       id="path-effect15"
       is_visible="true"
       lpeversion="1.3"
       weight="33.333333"
       steps="2"
       helper_size="0"
       apply_no_weight="true"
       apply_with_weight="true"
       only_selected="false"
       uniform="false" />
    <inkscape:path-effect
       effect="bspline"
       id="path-effect11"
       is_visible="true"
       lpeversion="1.3"
       weight="33.333333"
       steps="2"
       helper_size="0"
       apply_no_weight="true"
       apply_with_weight="true"
       only_selected="false"
       uniform="false" />
    <inkscape:path-effect
       effect="bspline"
       id="path-effect9"
       is_visible="true"
       lpeversion="1.3"
       weight="33.333333"
       steps="2"
       helper_size="0"
       apply_no_weight="true"
       apply_with_weight="true"
       only_selected="false"
       uniform="false" />
    <inkscape:path-effect
       effect="bspline"
       id="path-effect8"
       is_visible="true"
       lpeversion="1.3"
       weight="33.333333"
       steps="2"
       helper_size="0"
       apply_no_weight="true"
       apply_with_weight="true"
       only_selected="false"
       uniform="false" />
    <inkscape:path-effect
       effect="bspline"
       id="path-effect7"
       is_visible="true"
       lpeversion="1.3"
       weight="33.333333"
       steps="2"
       helper_size="0"
       apply_no_weight="true"
       apply_with_weight="true"
       only_selected="false"
       uniform="false" />
    <inkscape:path-effect
       effect="bspline"
       id="path-effect6"
       is_visible="true"
       lpeversion="1.3"
       weight="33.333333"
       steps="2"
       helper_size="0"
       apply_no_weight="true"
       apply_with_weight="true"
       only_selected="false"
       uniform="false" />
    <inkscape:path-effect
       effect="bspline"
       id="path-effect5"
       is_visible="true"
       lpeversion="1.3"
       weight="33.333333"
       steps="2"
       helper_size="0"
       apply_no_weight="true"
       apply_with_weight="true"
       only_selected="false"
       uniform="false" />
    <inkscape:path-effect
       effect="bspline"
       id="path-effect4"
       is_visible="true"
       lpeversion="1.3"
       weight="33.333333"
       steps="2"
       helper_size="0"
       apply_no_weight="true"
       apply_with_weight="true"
       only_selected="false"
       uniform="false" />
    <inkscape:path-effect
       effect="bspline"
       id="path-effect3"
       is_visible="true"
       lpeversion="1.3"
       weight="33.333333"
       steps="2"
       helper_size="0"
       apply_no_weight="true"
       apply_with_weight="true"
       only_selected="false"
       uniform="false" />
    <inkscape:path-effect
       effect="bspline"
       id="path-effect2"
       is_visible="true"
       lpeversion="1.3"
       weight="33.333333"
       steps="2"
       helper_size="0"
       apply_no_weight="true"
       apply_with_weight="true"
       only_selected="false"
       uniform="false" />
    <inkscape:path-effect
       effect="bspline"
       id="path-effect6-2"
       is_visible="true"
       lpeversion="1.3"
       weight="33.333333"
       steps="2"
       helper_size="0"
       apply_no_weight="true"
       apply_with_weight="true"
       only_selected="false"
       uniform="false" />
    <inkscape:path-effect
       effect="bspline"
       id="path-effect6-3"
       is_visible="true"
       lpeversion="1.3"
       weight="33.333333"
       steps="2"
       helper_size="0"
       apply_no_weight="true"
       apply_with_weight="true"
       only_selected="false"
       uniform="false" />
    <inkscape:path-effect
       effect="bspline"
       id="path-effect4819-7"
       is_visible="true"
       lpeversion="1"
       weight="33.333333"
       steps="2"
       helper_size="0"
       apply_no_weight="true"
       apply_with_weight="true"
       only_selected="false"
       uniform="false" />
    <inkscape:path-effect
       effect="bspline"
       id="path-effect10953-1"
       is_visible="true"
       lpeversion="1"
       weight="33.333333"
       steps="2"
       helper_size="0"
       apply_no_weight="true"
       apply_with_weight="true"
       only_selected="false"
       uniform="false" />
    <inkscape:path-effect
       effect="spiro"
       id="path-effect2744"
       is_visible="true"
       lpeversion="1" />
    <inkscape:path-effect
       effect="spiro"
       id="path-effect6641"
       is_visible="true"
       lpeversion="1" />
    <inkscape:path-effect
       effect="skeletal"
       id="path-effect6643"
       is_visible="true"
       lpeversion="1"
       pattern="M 0,18.867924 C 0,8.4528302 8.4528302,0 18.867924,0 c 10.415095,0 18.867925,8.4528302 18.867925,18.867924 0,10.415095 -8.45283,18.867925 -18.867925,18.867925 C 8.4528302,37.735849 0,29.283019 0,18.867924 Z"
       copytype="single_stretched"
       prop_scale="1"
       scale_y_rel="false"
       spacing="0"
       normal_offset="0"
       tang_offset="0"
       prop_units="false"
       vertical_pattern="false"
       hide_knot="false"
       fuse_tolerance="0" />
    <inkscape:path-effect
       effect="bspline"
       id="path-effect4935"
       is_visible="true"
       lpeversion="1"
       weight="33.333333"
       steps="2"
       helper_size="0"
       apply_no_weight="true"
       apply_with_weight="true"
       only_selected="false"
       uniform="false" />
    <inkscape:path-effect
       effect="spiro"
       id="path-effect6497"
       is_visible="true"
       lpeversion="1" />
    <inkscape:path-effect
       effect="skeletal"
       id="path-effect6499"
       is_visible="true"
       lpeversion="1"
       pattern="M 0,18.867924 C 0,8.4528302 8.4528302,0 18.867924,0 c 10.415095,0 18.867925,8.4528302 18.867925,18.867924 0,10.415095 -8.45283,18.867925 -18.867925,18.867925 C 8.4528302,37.735849 0,29.283019 0,18.867924 Z"
       copytype="single_stretched"
       prop_scale="1"
       scale_y_rel="false"
       spacing="0"
       normal_offset="0"
       tang_offset="0"
       prop_units="false"
       vertical_pattern="false"
       hide_knot="false"
       fuse_tolerance="0" />
    <inkscape:path-effect
       effect="spiro"
       id="path-effect5735"
       is_visible="true"
       lpeversion="1" />
    <inkscape:path-effect
       effect="bspline"
       id="path-effect5063"
       is_visible="true"
       lpeversion="1"
       weight="33.333333"
       steps="2"
       helper_size="0"
       apply_no_weight="true"
       apply_with_weight="true"
       only_selected="false"
       uniform="false" />
    <inkscape:path-effect
       effect="bspline"
       id="path-effect4819-7-2"
       is_visible="true"
       lpeversion="1"
       weight="33.333333"
       steps="2"
       helper_size="0"
       apply_no_weight="true"
       apply_with_weight="true"
       only_selected="false"
       uniform="false" />
    <inkscape:path-effect
       effect="bspline"
       id="path-effect19-3"
       is_visible="true"
       lpeversion="1.3"
       weight="33.333333"
       steps="2"
       helper_size="0"
       apply_no_weight="true"
       apply_with_weight="true"
       only_selected="false"
       uniform="false" />
  </defs>
  <g
     inkscape:groupmode="layer"
     id="layer1"
     inkscape:label="Leaf"
     style="display:inline"
     transform="translate(197.07229,202.85932)">
    <path
       id="text27"
       style="font-size:425.701px;font-family:'System Font';-inkscape-font-specification:'System Font, Normal';display:inline;fill:#075295;fill-opacity:1;stroke-width:29.0123;stroke-linecap:round;stroke-linejoin:round;stroke-opacity:0.987805;paint-order:markers stroke fill"
       inkscape:label="G_left"
       d="M 192.80938,48.427938 C 171.42524,50.385102 152.35097,56.383804 135.67,66.57151 115.16099,79.043206 99.224628,96.711398 87.861529,119.57617 76.637003,142.44095 71.024863,169.53238 71.024863,200.8502 v 0.20767 c 0,23.8348 3.187271,45.38336 9.561694,64.6452 6.512997,19.26184 15.7279,35.75226 27.645293,49.47113 12.05598,13.71886 26.53711,24.25079 43.44319,31.59523 12.59499,5.36836 26.3089,8.73029 41.13434,10.09924 v -34.85684 c -9.14737,-1.26785 -17.66887,-3.67362 -25.54461,-7.2535 -12.19455,-5.68156 -22.65693,-13.78777 -31.38712,-24.31943 -8.59161,-10.67023 -15.1739,-23.48861 -19.74685,-38.45464 -4.57296,-15.10462 -6.85966,-32.08027 -6.85966,-50.92639 v -0.20767 c 0,-24.66625 3.94967,-45.86829 11.84841,-63.60581 8.03732,-17.73752 19.46985,-31.31752 34.2973,-40.74058 10.91937,-7.041458 23.39191,-11.468796 37.39253,-13.324725 z"
       transform="scale(1.0277789,0.9729719)" />
    <path
       style="display:inline;fill:#ffffff;fill-opacity:1;stroke:#075295;stroke-width:24;stroke-linecap:round;stroke-linejoin:round;stroke-dasharray:none;stroke-opacity:0.987805;paint-order:markers stroke fill"
       d="m 238.72968,264.51137 c -5.47525,-8.65695 12.92887,-21.31035 21.28147,-35.41981 8.3526,-14.10947 6.65302,-29.67353 -8.70468,-45.58533 -15.3577,-15.91181 -42.48969,-31.11489 -84.05921,-43.12257 C 125.67774,128.37597 80.550772,122.52265 71.785779,115.045 63.020787,107.56735 94.388521,99.625575 127.12221,98.36261 c 32.73369,-1.262965 65.40301,4.35171 93.49306,13.20833 28.09005,8.85662 50.96414,20.7709 67.5336,33.75312 16.56946,12.98223 26.7257,26.9753 32.75377,41.24059 6.02807,14.2653 7.92729,28.80139 4.24112,44.83415 -3.68618,16.03276 -12.95742,33.56122 -32.27092,39.99544 -19.3135,6.43423 -48.66791,1.77408 -54.14316,-6.88287 z"
       id="path20"
       inkscape:path-effect="#path-effect20"
       inkscape:original-d="m 214.84992,268.50808 c 18.40451,-12.65366 36.80863,-25.30706 55.21352,-37.96098 -1.69969,-15.56501 -3.39927,-31.12907 -5.09895,-46.69407 -29.01572,-16.25861 -56.14771,-31.46169 -86.87382,-48.67869 -52.41293,-6.79837 -97.539898,-12.65169 -148.190339,-19.22145 33.120455,-8.38554 64.48819,-16.327315 96.902049,-24.533954 33.05352,5.680709 65.72284,11.295384 98.81434,16.982624 23.0886,12.026 45.96269,23.94028 68.94475,35.91079 10.15686,13.99394 20.31309,27.98701 30.46995,41.98093 1.8993,14.53667 3.79851,29.07276 5.69777,43.60914 -9.27161,17.52914 -18.54285,35.0576 -27.81427,52.58638 -29.35558,-4.66033 -58.70999,-9.32048 -88.065,-13.98072 z"
       sodipodi:nodetypes="cccccccccccc"
       inkscape:label="top"
       transform="translate(-19.579173,-1.0583333)" />
    <path
       style="display:inline;fill:#075295;fill-opacity:1;fill-rule:nonzero;stroke:none;stroke-width:10.898;stroke-linecap:round;stroke-linejoin:round;stroke-dasharray:none;stroke-opacity:0.987805;paint-order:markers stroke fill"
       d="m 259.71451,268.72535 c 2.45095,-0.4937 8.7487,0.16287 15.49754,-3.24325 3.53635,-1.78478 8.33178,-5.05702 13.21455,-9.44869 3.30683,-2.97423 6.85651,-6.64986 10.00478,-10.88631 2.74282,-3.69086 5.31012,-7.97939 7.12328,-12.7972 1.69342,-4.49963 2.647,-9.24729 2.82188,-14.17381 0.16709,-4.70698 -0.38112,-9.43405 -1.55057,-14.12702 -2.30798,-9.2618 -6.97146,-18.14975 -12.93704,-26.42942 -6.5193,-9.04818 -14.38641,-17.10614 -24.08145,-24.29993 -2.12734,-1.5785 -4.30672,-3.08863 -6.5349,-4.53636 -8.58973,-5.58101 -19.21159,-10.92151 -32.54357,-15.54114 -7.97442,-2.7632 -16.80743,-5.22871 -25.99285,-7.41274 -9.14326,-2.17401 -18.57629,-4.05484 -27.72997,-5.65489 -19.09909,-3.3385 -36.62393,-5.40927 -48.40431,-6.46569 -14.00535,-1.25594 -20.8558,-1.15373 -24.9128,-0.78167 -1.8455,0.16925 -3.19118,0.40657 -4.185155,0.6379 -0.619117,0.1441 -1.156133,0.30629 -1.626284,0.47452 -1.818205,0.65058 -3.22448,1.69161 -3.621936,1.92528 0.66166,0.14059 1.852745,0.53967 3.866856,0.93241 0.45644,0.089 0.964188,0.17888 1.544667,0.26865 0.988902,0.15295 2.120662,0.31742 3.906482,0.58058 3.64576,0.53725 10.4577,1.54602 24.02906,3.79981 11.23202,1.86531 28.92228,4.87623 47.3764,8.92613 8.92927,1.9596 18.0605,4.1659 26.84804,6.62226 8.84367,2.47204 17.16573,5.14903 24.53473,8.02697 12.25438,4.78592 21.6891,10.05263 29.09807,15.25361 1.92675,1.35255 3.78772,2.76197 5.58057,4.22901 8.13456,6.6563 14.33578,14.05555 19.1898,22.10032 4.54362,7.53032 7.33051,14.68654 8.37393,21.21656 0.52037,3.25667 0.59321,6.27318 0.29969,9.05608 -0.30531,2.89464 -1.00915,5.57775 -2.04639,8.10089 -1.13474,2.76032 -2.74469,5.52484 -4.68716,8.32036 -2.22535,3.20261 -4.80461,6.32648 -7.32163,9.27812 -3.83402,4.49604 -7.10456,8.13813 -9.4084,11.48249 -4.1705,6.05411 -4.73157,12.12539 -5.72591,14.56617 z"
       id="path25"
       inkscape:path-effect="#path-effect26;#path-effect27"
       inkscape:original-d="m 259.71451,268.72535 c 15.43277,-12.77243 30.86522,-25.5446 46.2983,-38.31729 -4.18026,-16.1607 -8.36026,-32.32041 -12.54052,-48.48111 -17.00553,-15.69026 -34.01002,-31.37957 -51.01555,-47.06984 -44.82806,-7.04053 -89.65421,-14.08077 -134.48139,-21.12116 -4.57322,0.74299 -9.146428,1.48598 -13.719645,2.22898"
       sodipodi:nodetypes="ccccsc"
       inkscape:label="top_inner"
       transform="translate(-16.933338,-3.7041668)" />
    <path
       style="display:inline;fill:#ffffff;fill-opacity:1;stroke:#075295;stroke-width:24;stroke-linecap:round;stroke-linejoin:round;stroke-dasharray:none;stroke-opacity:0.987805;paint-order:markers stroke fill"
       d="m 68.309642,292.17411 c -5.955604,-2.51752 -2.284662,-13.73156 5.912252,-23.39419 8.196915,-9.66263 20.918865,-17.77288 34.713946,-22.46623 13.79508,-4.69336 28.66158,-5.96922 48.94675,-2.94741 20.28517,3.02182 45.98648,10.34093 69.85179,11.21819 23.86532,0.87725 45.29203,-4.53599 62.24063,-11.35312 16.9486,-6.81713 27.62072,-14.31488 32.45417,-14.79536 4.83345,-0.48048 3.5294,6.26611 0.30826,14.84586 -3.22114,8.57975 -8.35896,18.99164 -17.03117,28.81745 -8.67221,9.82581 -20.79385,19.00082 -35.84583,25.15018 -15.05197,6.14937 -32.1114,9.01863 -52.48394,8.24949 -20.37254,-0.76913 -41.65125,-5.11083 -60.67119,-9.61031 -19.01995,-4.49948 -35.14731,-9.02734 -51.00274,-8.20173 -15.855426,0.82561 -31.437323,7.00471 -37.392928,4.48718 z"
       id="path19"
       inkscape:path-effect="#path-effect19"
       inkscape:original-d="m 58.683018,300.87087 c 3.671021,-11.21428 7.341961,-22.42832 11.013054,-33.64282 12.722735,-8.11076 25.444688,-16.22101 38.167428,-24.33177 14.86742,-1.27595 29.73392,-2.55181 44.60134,-3.82776 25.70292,7.31958 51.40423,14.63869 77.10715,21.95827 22.02771,-5.56507 43.45442,-10.97831 66.08174,-16.69487 11.26988,-7.9177 21.942,-15.41545 32.91298,-23.12316 -1.30408,6.74675 -2.60813,13.49334 -3.91224,20.24025 -5.13817,10.41259 -10.27599,20.82448 -15.41413,31.23703 -12.20628,9.23907 -24.32792,18.41408 -36.61815,27.71669 -17.81372,2.99612 -34.87315,5.86538 -53.07514,8.9268 -22.54309,-4.59969 -43.8218,-8.94139 -65.73336,-13.41222 -16.12833,-4.52813 -32.25569,-9.05599 -48.38402,-13.58412 -15.582526,6.17935 -31.164423,12.35845 -46.746652,18.53768 z"
       sodipodi:nodetypes="ccccccsccccccc"
       transform="matrix(0.97828106,0,0,1.0031606,-12.445769,-1.9186036)"
       inkscape:label="bottom" />
    <path
       style="display:inline;fill:#075295;fill-opacity:1;fill-rule:nonzero;stroke:none;stroke-width:10;stroke-linecap:round;stroke-linejoin:round;stroke-dasharray:none;stroke-opacity:0.987805;paint-order:markers stroke fill"
       d="m 6.0477855,254.25131 c 1.4004674,-1.25348 5.2962335,-4.71749 8.9439115,-7.49918 2.971055,-2.2657 6.265226,-4.49262 10.128582,-6.52757 3.999425,-2.10662 8.161941,-3.77356 12.678525,-5.17472 0.874182,-0.27119 1.743354,-0.52678 2.606369,-0.76908 4.502732,-1.26418 9.369001,-2.21228 14.568753,-2.93449 6.491497,-0.90162 14.187879,-1.55608 23.346795,-2.27719 4.866392,-0.38314 11.725793,-0.9051 18.004464,-1.44941 2.887527,-0.25033 6.154375,-0.54121 9.510165,-0.86527 8.33845,-0.80522 18.56755,-1.93579 28.55397,-3.70428 9.00617,-1.59489 18.22227,-3.77096 26.64893,-6.94332 8.35814,-3.14656 15.58709,-7.13949 21.91442,-11.69043 6.75553,-4.85893 12.28412,-10.21397 16.80988,-15.40855 7.38193,-8.47285 12.59557,-17.13026 15.08699,-22.20952 3.47469,-7.08386 4.38944,-13.6341 5.13754,-16.05084 -2.12022,1.82605 -7.30658,5.02281 -12.76278,10.77367 -4.00346,4.21967 -9.65299,11.22011 -17.05716,18.47625 -4.42396,4.33551 -9.47113,8.71186 -15.38703,12.6588 -5.5223,3.68434 -11.72261,6.94414 -18.89231,9.55187 -7.32329,2.66361 -15.59134,4.6242 -24.11535,6.15224 -9.40532,1.68603 -19.22154,2.85442 -27.43182,3.73705 -3.27657,0.35224 -6.523531,0.68189 -9.375626,0.96788 -6.841889,0.68606 -12.493292,1.26838 -18.061236,1.95092 -9.298831,1.13988 -17.319681,2.44692 -24.314605,4.19482 -5.623042,1.4051 -10.884932,3.18033 -15.749632,5.35515 -0.930264,0.41588 -1.863918,0.85836 -2.796752,1.32849 -4.829515,2.434 -9.108516,5.33937 -12.881826,8.72598 -3.619058,3.24817 -6.397737,6.601 -8.657725,9.71553 -2.6726838,3.68327 -5.574659,8.50858 -6.4554425,9.9152 z"
       id="path24"
       inkscape:path-effect="#path-effect24;#path-effect25"
       inkscape:original-d="m 6.0477855,254.25131 c 0,0 19.7796845,-23.4793 29.6698265,-35.21931 46.018004,0.75323 92.033218,1.50641 138.051218,2.25964 15.40639,-23.5152 30.81216,-47.02945 46.21825,-70.54418"
       sodipodi:nodetypes="cccc"
       transform="rotate(17.258897,-32.601485,455.18285)"
       inkscape:label="bottom_inner" />
    <path
       id="text27-0"
       style="font-size:425.701px;font-family:'System Font';-inkscape-font-specification:'System Font, Normal';display:inline;fill:#075295;fill-opacity:1;stroke-width:29.0123;stroke-linecap:round;stroke-linejoin:round;stroke-opacity:0.987805;paint-order:markers stroke fill"
       inkscape:label="G_right"
       d="m 213.81074,46.367967 c -5.49958,0 -10.81928,0.29804 -16.04553,0.75086 v 33.81189 c 5.15009,-0.64629 10.48978,-0.99063 16.04553,-0.99063 21.64843,0 39.87916,5.12363 54.69124,15.37063 14.81207,10.112183 25.7786,24.404373 32.8998,42.875943 l 0.85421,2.22467 h 40.37738 l -1.06815,-3.84266 c -4.69999,-17.25812 -12.60474,-32.62903 -23.7138,-46.111913 -11.10905,-13.61773 -25.35141,-24.33662 -42.72711,-32.1567 -17.23328,-7.95491 -37.67121,-11.93209 -61.31357,-11.93209 z m 5.34128,148.244713 v 32.65485 h 86.94973 v 5.25808 c 0,16.3143 -3.91687,29.97351 -11.75018,42.37777 -7.6909,12.40427 -18.51491,22.11166 -32.47244,29.12277 -13.81512,6.87627 -29.83814,10.31461 -48.06839,10.31461 -5.54847,0 -10.89007,-0.35604 -16.04553,-1.03249 V 347.223 c 5.2155,0.4559 10.56146,0.69039 16.04553,0.69039 20.50903,0 38.81077,-2.83176 54.90466,-8.49457 16.23632,-5.66281 29.98011,-13.8871 41.23159,-24.67343 11.25149,-10.92115 19.79729,-24.13463 25.63668,-39.63995 5.9818,-15.50534 8.97258,-33.10037 8.97258,-52.78541 v -27.70735 z" />
  </g>
</svg>
